<?xml version="1.0" encoding="utf-8"?>
<!-- Generator: Adobe Illustrator 16.0.0, SVG Export Plug-In . SVG Version: 6.00 Build 0)  -->
<!DOCTYPE svg PUBLIC "-//W3C//DTD SVG 1.1//EN" "http://www.w3.org/Graphics/SVG/1.1/DTD/svg11.dtd">
<svg version="1.1" id="Layer_1" xmlns="http://www.w3.org/2000/svg" xmlns:xlink="http://www.w3.org/1999/xlink" x="0px" y="0px"
	 width="267.018px" height="42.676px" viewBox="0 0 267.018 42.676" enable-background="new 0 0 267.018 42.676"
	 xml:space="preserve">
<g>
	<g>
		<path fill="#C4161C" d="M3.655,8.104C2.193,8.104,1,9.297,1,10.762c0,1.466,1.193,2.657,2.655,2.657
			c1.467,0,2.657-1.191,2.657-2.657C6.312,9.297,5.122,8.104,3.655,8.104z"/>
		<path fill="#C4161C" d="M3.655,15.524C2.193,15.524,1,16.713,1,18.177c0,1.469,1.193,2.655,2.655,2.655
			c1.467,0,2.657-1.186,2.657-2.655C6.312,16.713,5.122,15.524,3.655,15.524z"/>
		<path fill="#C4161C" d="M3.655,22.938C2.193,22.938,1,24.126,1,25.595c0,1.463,1.193,2.652,2.655,2.652
			c1.467,0,2.657-1.189,2.657-2.652C6.312,24.126,5.122,22.938,3.655,22.938z"/>
		<path fill="#C4161C" d="M39.675,1.495h-6.192v0.002c-0.009,0-0.024-0.002-0.035-0.002c-1.153,0-2.092,0.895-2.18,2.031
			l-0.002,18.899c-1.957-2.628-4.918-4.467-8.315-4.961v-4.96h1.611c0.519,0.915,1.488,1.545,2.613,1.545
			c1.661,0,3.012-1.355,3.012-3.016c0-1.664-1.351-3.016-3.012-3.016c-1.125,0-2.095,0.628-2.613,1.543h-1.611V6.986
			c0.873-0.587,1.451-1.587,1.451-2.716c0-1.808-1.467-3.27-3.274-3.27c-1.804,0-3.266,1.462-3.266,3.27
			c0,1.129,0.573,2.129,1.444,2.716V9.56h-0.002h-1.626c-0.517-0.915-1.488-1.543-2.613-1.543c-1.664,0-3.014,1.353-3.014,3.016
			c0,1.661,1.35,3.016,3.014,3.016c1.125,0,2.097-0.63,2.613-1.545h1.626h0.002v4.96c-3.401,0.495-6.369,2.342-8.33,4.986
			L10.974,3.526C10.889,2.39,9.952,1.495,8.796,1.495c-0.011,0-0.026,0.002-0.035,0.002V1.495H2.569v3.001h3.944v36.519h29.213
			V4.496h3.949V1.495z M21.124,40.042c-1.583,0-2.865-1.277-2.865-2.859s1.283-2.867,2.865-2.867s2.86,1.285,2.86,2.867
			S22.706,40.042,21.124,40.042z M29.312,33.388H12.927l-0.002-3.746c0-4.531,3.668-8.208,8.199-8.208
			c4.526,0,8.192,3.676,8.192,8.208L29.312,33.388z"/>
		<path fill="#C4161C" d="M35.935,10.762c0,1.466,1.188,2.657,2.657,2.657c1.464,0,2.657-1.191,2.657-2.657
			c0-1.464-1.193-2.657-2.657-2.657C37.123,8.104,35.935,9.297,35.935,10.762z"/>
		<path fill="#C4161C" d="M38.592,15.524c-1.469,0-2.657,1.188-2.657,2.653c0,1.469,1.188,2.655,2.657,2.655
			c1.464,0,2.657-1.186,2.657-2.655C41.249,16.713,40.056,15.524,38.592,15.524z"/>
		<path fill="#C4161C" d="M38.592,22.938c-1.469,0-2.657,1.188-2.657,2.656c0,1.463,1.188,2.652,2.657,2.652
			c1.464,0,2.657-1.189,2.657-2.652C41.249,24.126,40.056,22.938,38.592,22.938z"/>
	</g>
</g>
<g>
	<g>
		<path fill="#1B3281" d="M49.363,5.829h-3.418V2.156h5.594V0h4.18v2.156h5.563v3.673h-3.416l4.384,7.194h-4.56l-4.074-7.146
			l-4.117,7.146h-4.474L49.363,5.829z M46.201,15.685h3.93v4.926h19.521v3.67h-23.45V15.685z M65.689,4.594V1.659h3.962v11.588
			h-3.962V8.27h-3.416V4.594H65.689z"/>
		<path fill="#1B3281" d="M87.707,24.773v-7.041H77.67v-3.672h24.132v3.672h-9.896v7.041H87.707z M84.315,5.345h-6.142v-3.68h23.223
			v3.68h-6.129l6.982,6.437h-5.473l-7.025-6.384l-7.029,6.384h-5.395L84.315,5.345z"/>
		<path fill="#1B3281" d="M118.093,20.665h3.86v-8.576h4.191v8.576h6.854v3.673h-24.135v-3.673h4.982v-8.576h4.247V20.665z
			 M128.24,14.967V5.345h-18.761v-3.68h22.749v13.302H128.24z"/>
		<path fill="#1B3281" d="M159.099,13.413h-14.348V1.683h3.994v1.914h6.396V1.683h3.957V13.413z M145.008,15.689h3.932v4.928h19.029
			v3.672h-22.961V15.689z M148.745,9.738h6.396v-2.41h-6.396V9.738z M167.969,8.271v4.981h-3.995V1.665h3.995v2.933h2.485v3.673
			H167.969z"/>
		<path fill="#1B3281" d="M191.854,20.665v-5.619h8.882V11.37h-3.52V5.345h3.52v-3.68h-22.716v3.68h3.513v6.025h-3.513v3.676h9.439
			v5.619h-9.95v3.675h24.143v-3.675H191.854z M185.494,5.345h7.822v6.025h-7.822V5.345z"/>
		<path fill="#1B3281" d="M215.701,6.812l-2.561,5.58h-5.099l5.644-10.829h4.057l5.756,10.829h-5.186L215.701,6.812z M220.105,15.01
			c1.263-1.237,2.77-1.855,4.524-1.855c1.744,0,3.245,0.618,4.486,1.855c1.259,1.259,1.885,2.764,1.885,4.521
			c0,1.752-0.626,3.252-1.885,4.493c-1.241,1.237-2.742,1.854-4.486,1.854c-1.777,0-3.282-0.616-4.524-1.854
			c-1.221-1.241-1.826-2.741-1.826-4.493C218.279,17.773,218.885,16.269,220.105,15.01z M226.289,21.22
			c0.463-0.483,0.696-1.045,0.696-1.688c0-0.662-0.233-1.229-0.696-1.689c-0.462-0.467-1.021-0.699-1.659-0.699
			c-0.669,0-1.231,0.232-1.697,0.699c-0.458,0.46-0.69,1.027-0.69,1.689c0,0.644,0.232,1.205,0.69,1.688
			c0.466,0.462,1.028,0.694,1.697,0.694C225.269,21.914,225.827,21.682,226.289,21.22z M228.665,4.784V1.567h4.085v11.57h-4.085
			V8.562h-3.519V4.784H228.665z"/>
		<path fill="#1B3281" d="M244.667,8.312h10.661v3.882h-14.773V1.563h14.773v3.786h-10.661V8.312z M252.33,15.019
			c1.255-1.24,2.765-1.854,4.52-1.854c1.752,0,3.256,0.614,4.489,1.854c1.255,1.254,1.889,2.76,1.889,4.519
			c0,1.755-0.634,3.251-1.889,4.491c-1.233,1.241-2.737,1.854-4.489,1.854c-1.776,0-3.281-0.613-4.52-1.854
			c-1.219-1.24-1.833-2.736-1.833-4.491C250.497,17.778,251.111,16.272,252.33,15.019z M258.516,21.226
			c0.459-0.485,0.68-1.045,0.68-1.688c0-0.663-0.221-1.233-0.68-1.689c-0.462-0.469-1.021-0.694-1.666-0.694
			c-0.663,0-1.23,0.226-1.688,0.694c-0.469,0.456-0.691,1.026-0.691,1.689c0,0.644,0.223,1.203,0.691,1.688
			c0.457,0.466,1.024,0.693,1.688,0.693C257.494,21.919,258.054,21.691,258.516,21.226z M264.466,8.363v4.795h-4.109V1.563h4.109
			v3.015h2.552v3.786H264.466z"/>
	</g>
	<g>
		<path fill="#1B3281" d="M46.248,32.167h5.476c2.762,0,3.462,1.571,3.462,2.624c0,1.467-0.907,1.884-1.379,2.095
			c1.379,0.472,1.75,1.469,1.75,2.487c0,0.812-0.377,1.577-0.983,2.104c-0.64,0.574-1.243,0.923-3.548,0.923h-4.777V32.167z
			 M48.515,36.169h2.758c0.921,0,1.662-0.321,1.662-1.135c0-0.84-0.658-1.102-1.729-1.102h-2.69V36.169z M48.515,40.636h2.874
			c1.148,0,1.808-0.451,1.808-1.496c0-0.901-0.837-1.238-1.694-1.238h-2.987V40.636z"/>
		<path fill="#1B3281" d="M59.18,42.399h-2.48l4.013-10.232h2.71l3.975,10.232h-2.558l-0.72-2.104h-4.157L59.18,42.399z
			 M60.584,38.526h2.868l-1.393-4.048h-0.034L60.584,38.526z"/>
		<path fill="#1B3281" d="M76.232,32.167h2.191v10.232H76.08l-4.599-7.288h-0.029v7.288h-2.19V32.167h2.471l4.469,7.128h0.031
			V32.167z"/>
		<path fill="#1B3281" d="M83.512,42.399h-2.354V32.167H86.3c2.174,0,3.501,1.271,3.501,3.28c0,0.925-0.573,3.264-3.59,3.264h-2.699
			V42.399z M85.686,36.945c1.762,0,1.762-1.14,1.762-1.595c0-1.001-0.615-1.418-2.074-1.418h-1.861v3.013H85.686z"/>
		<path fill="#1B3281" d="M96.992,31.898c1.496,0,5.403,0.585,5.403,5.385c0,4.806-3.907,5.393-5.403,5.393
			c-1.49,0-5.403-0.587-5.403-5.393C91.589,32.483,95.502,31.898,96.992,31.898z M96.992,40.862c1.273,0,3.064-0.708,3.064-3.579
			c0-2.866-1.791-3.576-3.064-3.576c-1.274,0-3.053,0.71-3.053,3.576C93.939,40.154,95.718,40.862,96.992,40.862z"/>
		<path fill="#1B3281" d="M116.765,35.515c-0.19-0.607-0.552-1.767-2.494-1.767c-1.126,0-2.788,0.685-2.788,3.581
			c0,1.84,0.801,3.489,2.788,3.489c1.302,0,2.211-0.664,2.494-1.922h2.351c-0.47,2.225-2.065,3.779-4.888,3.779
			c-3,0-5.146-1.849-5.146-5.378c0-3.576,2.27-5.399,5.17-5.399c3.373,0,4.739,2.113,4.864,3.616H116.765z"/>
		<path fill="#1B3281" d="M122.971,42.399h-2.473l4.006-10.232h2.721l3.963,10.232h-2.555l-0.721-2.104h-4.156L122.971,42.399z
			 M124.378,38.526h2.876l-1.392-4.048h-0.043L124.378,38.526z"/>
		<path fill="#1B3281" d="M136.539,42.399h-2.349v-8.423h-3.407v-1.81h9.155v1.81h-3.399V42.399z"/>
		<path fill="#1B3281" d="M144.076,37.813v4.586h-2.354V32.167h2.354v3.878h4.395v-3.878h2.347v10.232h-2.347v-4.586H144.076z"/>
		<path fill="#1B3281" d="M158.505,31.898c1.495,0,5.408,0.585,5.408,5.385c0,4.806-3.913,5.393-5.408,5.393
			c-1.493,0-5.415-0.587-5.415-5.393C153.09,32.483,157.012,31.898,158.505,31.898z M158.505,40.862
			c1.265,0,3.052-0.708,3.052-3.579c0-2.866-1.787-3.576-3.052-3.576c-1.274,0-3.056,0.71-3.056,3.576
			C155.449,40.154,157.23,40.862,158.505,40.862z"/>
		<path fill="#1B3281" d="M168.615,40.55h5.601v1.85h-7.944V32.167h2.344V40.55z"/>
		<path fill="#1B3281" d="M178.48,42.399h-2.354V32.167h2.354V42.399z"/>
		<path fill="#1B3281" d="M188.321,35.515c-0.187-0.607-0.54-1.767-2.497-1.767c-1.121,0-2.789,0.685-2.789,3.581
			c0,1.84,0.806,3.489,2.789,3.489c1.312,0,2.215-0.664,2.497-1.922h2.354c-0.477,2.225-2.064,3.779-4.888,3.779
			c-3.003,0-5.145-1.849-5.145-5.378c0-3.576,2.271-5.399,5.171-5.399c3.375,0,4.733,2.113,4.861,3.616H188.321z"/>
		<path fill="#1B3281" d="M204.948,35.515c-0.196-0.607-0.556-1.767-2.491-1.767c-1.141,0-2.801,0.685-2.801,3.581
			c0,1.84,0.809,3.489,2.801,3.489c1.289,0,2.202-0.664,2.491-1.922h2.35c-0.472,2.225-2.075,3.779-4.896,3.779
			c-2.991,0-5.141-1.849-5.141-5.378c0-3.576,2.271-5.399,5.168-5.399c3.373,0,4.741,2.113,4.868,3.616H204.948z"/>
		<path fill="#1B3281" d="M211.828,37.813v4.586h-2.35V32.167h2.35v3.878h4.383v-3.878h2.36v10.232h-2.36v-4.586H211.828z"/>
		<path fill="#1B3281" d="M230.357,38.822c0,2.701-1.785,3.854-4.622,3.854c-1.032,0-2.573-0.231-3.581-1.24
			c-0.604-0.633-0.841-1.449-0.875-2.487v-6.781h2.402v6.645c0,1.429,0.908,2.051,2.009,2.051c1.615,0,2.268-0.708,2.268-1.951
			v-6.744h2.399V38.822z"/>
		<path fill="#1B3281" d="M233.136,32.167h5.687c2.996,0,3.548,2.011,3.548,2.894c0,1.124-0.626,2.093-1.734,2.441
			c0.911,0.37,1.42,0.683,1.42,2.592c0,1.496,0,1.867,0.503,2.035v0.271h-2.597c-0.164-0.486-0.261-1.013-0.261-2.063
			c0-1.396-0.086-1.94-1.835-1.94h-2.43v4.003h-2.301V32.167z M238.2,36.675c1.223,0,1.818-0.387,1.818-1.397
			c0-0.544-0.269-1.345-1.647-1.345h-2.935v2.742H238.2z"/>
		<path fill="#1B3281" d="M252.105,35.515c-0.19-0.607-0.553-1.767-2.494-1.767c-1.129,0-2.794,0.685-2.794,3.581
			c0,1.84,0.807,3.489,2.794,3.489c1.302,0,2.209-0.664,2.494-1.922h2.355c-0.473,2.225-2.071,3.779-4.898,3.779
			c-2.991,0-5.145-1.849-5.145-5.378c0-3.576,2.279-5.399,5.178-5.399c3.373,0,4.736,2.113,4.865,3.616H252.105z"/>
		<path fill="#1B3281" d="M258.99,37.813v4.586h-2.355V32.167h2.355v3.878h4.392v-3.878h2.349v10.232h-2.349v-4.586H258.99z"/>
	</g>
</g>
</svg>
