<?xml version="1.0" standalone="no"?>
<!DOCTYPE svg PUBLIC "-//W3C//DTD SVG 20010904//EN"
 "http://www.w3.org/TR/2001/REC-SVG-20010904/DTD/svg10.dtd">
<svg version="1.0" xmlns="http://www.w3.org/2000/svg"
 width="700.000000pt" height="700.000000pt" viewBox="0 0 700.000000 700.000000"
 preserveAspectRatio="xMidYMid meet">
<metadata>
Created by potrace 1.11, written by Peter Selinger 2001-2013
</metadata>
<g transform="translate(0.000000,700.000000) scale(0.100000,-0.100000)"
fill="#000000" stroke="none">
<path d="M3390 6804 c-150 -32 -302 -149 -368 -284 -109 -222 -59 -484 125
-650 l56 -50 1 -201 c1 -110 -2 -206 -6 -212 -4 -6 -54 -10 -135 -9 l-128 0
-20 28 c-107 149 -240 222 -413 226 -176 5 -362 -107 -443 -264 -44 -87 -54
-130 -53 -238 2 -147 42 -246 142 -347 216 -219 592 -184 760 70 l25 37 136 0
136 0 -1 -405 c0 -232 -5 -409 -10 -414 -5 -5 -31 -12 -57 -15 -27 -4 -99 -20
-160 -36 -424 -109 -811 -357 -1088 -696 -33 -41 -62 -74 -64 -74 -2 0 -4 706
-5 1570 0 863 -3 1584 -6 1602 -9 56 -63 155 -104 192 -41 37 -114 77 -165 91
-16 5 -274 9 -572 10 l-543 1 -1 -80 c-2 -275 -1 -408 4 -413 4 -3 150 -5 327
-5 l320 1 0 -42 c1 -23 2 -1385 3 -3027 l2 -2985 2420 0 2420 -1 0 3026 0
3025 305 2 c168 1 315 2 328 2 l22 1 0 248 0 248 -547 -1 c-577 -1 -579 -1
-663 -48 -85 -46 -154 -142 -173 -238 -10 -50 -13 -401 -12 -1621 0 -857 -1
-1558 -2 -1558 -1 0 -29 33 -62 73 -226 278 -538 501 -882 632 -94 36 -287 90
-359 100 -81 12 -75 -24 -74 427 l1 403 134 3 134 3 18 -31 c10 -16 41 -53 69
-80 269 -265 715 -145 825 222 46 156 3 338 -111 465 -71 79 -175 139 -273
158 -98 19 -251 -4 -328 -50 -76 -44 -162 -125 -194 -183 -7 -13 -30 -15 -136
-14 -71 1 -130 4 -133 7 -3 3 -6 98 -6 211 l-1 206 53 45 c235 201 251 566 33
783 -110 109 -218 159 -361 165 -41 1 -104 -3 -140 -11z m335 -3394 c353 -62
649 -243 869 -531 122 -160 228 -418 251 -608 4 -30 9 -63 11 -75 4 -21 6
-235 5 -573 l-1 -173 -1358 0 -1358 0 2 373 c2 418 9 490 69 671 84 257 236
473 455 648 177 141 401 237 635 272 99 15 326 13 420 -4z m-78 -2140 c72 -24
129 -59 184 -113 98 -96 141 -199 142 -337 1 -268 -214 -478 -485 -472 -123 2
-244 57 -327 147 -63 70 -95 128 -116 212 -68 271 121 547 395 579 30 3 56 7
57 8 6 5 114 -13 150 -24z"/>
<path d="M480 5617 c-269 -83 -387 -377 -255 -635 24 -48 112 -134 167 -164
70 -39 113 -50 199 -54 202 -8 375 116 439 315 30 94 11 245 -43 340 -96 170
-318 257 -507 198z"/>
<path d="M6291 5623 c-104 -26 -209 -102 -264 -190 -81 -129 -85 -308 -9 -450
29 -55 108 -133 169 -168 65 -36 172 -58 250 -51 310 30 491 356 352 632 -55
109 -155 193 -269 224 -64 18 -166 19 -229 3z"/>
<path d="M494 4393 c-104 -30 -186 -87 -246 -173 -210 -302 32 -722 397 -686
368 36 532 477 277 740 -109 113 -280 160 -428 119z"/>
<path d="M6278 4390 c-82 -26 -130 -54 -188 -112 -239 -237 -125 -647 204
-734 62 -16 187 -11 246 10 177 65 286 211 295 396 4 90 -13 162 -57 239 -100
174 -312 260 -500 201z"/>
<path d="M490 3164 c-192 -58 -318 -225 -318 -424 0 -129 42 -227 137 -318
210 -202 563 -138 692 126 86 174 41 398 -105 521 -10 9 -23 21 -30 26 -78 67
-265 102 -376 69z"/>
<path d="M6283 3161 c-81 -22 -134 -53 -193 -111 -57 -58 -87 -110 -111 -191
-30 -102 -15 -252 33 -321 10 -14 18 -30 18 -35 0 -16 101 -112 143 -138 135
-79 303 -82 439 -8 89 48 168 144 205 248 18 50 24 157 12 221 -23 124 -122
253 -234 305 -107 51 -201 59 -312 30z"/>
</g>
</svg>
