<?xml version="1.0" encoding="utf-8"?>
<!-- Generator: Adobe Illustrator 16.0.0, SVG Export Plug-In . SVG Version: 6.00 Build 0)  -->
<!DOCTYPE svg PUBLIC "-//W3C//DTD SVG 1.1//EN" "http://www.w3.org/Graphics/SVG/1.1/DTD/svg11.dtd">
<svg version="1.1" id="Layer_1" xmlns="http://www.w3.org/2000/svg" xmlns:xlink="http://www.w3.org/1999/xlink" x="0px" y="0px"
	 width="512px" height="512px" viewBox="0 0 512 512" enable-background="new 0 0 512 512" xml:space="preserve">
<g opacity="0.3">
	<g>
		<g>
			<g>
				<path fill="#DBC671" d="M406.214,284.795c-1.789-0.691-4.847-1.479-4.847-1.479c-0.372-0.097-0.764,0.127-0.871,0.496
					c0,0-6.416,22.21-1.614,33.071c4.03,9.106,20.07,19.313,20.07,19.313c0.324,0.206,0.591,0.375,0.592,0.375
					c0.001,0.001,0.297,0.11,0.657,0.244l0.672,0.237c0.364,0.124,0.775-0.068,0.914-0.427l7.829-20.26
					c0.139-0.358,0.195-0.961,0.126-1.339c0,0-1.28-6.956-2.87-10.534C422.848,295.382,415.507,288.387,406.214,284.795z"/>
			</g>
			<g>
				<path fill="#DBC671" d="M441.367,318.879c-0.309,0.229-0.675,0.709-0.813,1.067l-8.052,20.834
					c-0.139,0.358,0.037,0.776,0.39,0.928c0,0,0.463,0.2,1.019,0.415c9.295,3.592,19.422,3.353,28.536-0.673
					c10.854-4.811,21.043-25.563,21.043-25.563c0.169-0.345,0.029-0.773-0.311-0.953c0,0-2.794-1.472-4.587-2.165
					c-9.289-3.59-19.422-3.349-28.533,0.686C446.69,314.94,441.367,318.879,441.367,318.879z"/>
			</g>
			<g>
				<path fill="#DBC671" d="M404.843,336.529c-3.838-4.028-8.389-7.08-13.529-9.066c-5.807-2.244-17.633-2.196-17.633-2.196
					c-0.384,0.002-0.679,0.316-0.654,0.7c0,0,1.463,23.08,9.651,31.67c3.832,4.026,8.386,7.076,13.532,9.065
					c4.153,1.605,12.29,2.432,12.29,2.432c0.383,0.038,0.809-0.223,0.947-0.581l4.808-12.44c0.139-0.358,0.15-0.949,0.027-1.313
					C414.282,354.8,409.856,341.792,404.843,336.529z"/>
			</g>
			<g>
				<path fill="#DBC671" d="M445.091,352.191c-7.416,0.653-19.536,7.768-19.536,7.768c-0.331,0.194-0.716,0.646-0.854,1.005
					l-4.599,11.899c-0.139,0.358,0.001,0.838,0.311,1.065l10.051,6.103c0.345,0.17,0.627,0.309,0.632,0.311
					c5.332,2.061,10.947,2.846,16.679,2.346c11.826-1.042,28.173-17.395,28.173-17.395c0.271-0.271,0.26-0.704-0.026-0.96
					c0,0-8.52-7.622-14.14-9.794C456.448,352.479,450.831,351.693,445.091,352.191z"/>
			</g>
			<g>
				<path fill="#DBC671" d="M390.12,374.624c-3.839-4.026-8.391-7.074-13.532-9.062c-5.806-2.244-17.631-2.199-17.631-2.199
					c-0.384,0.002-0.679,0.316-0.654,0.7c0,0,1.466,23.073,9.651,31.671c3.831,4.025,8.387,7.074,13.533,9.063
					c4.152,1.605,12.288,2.434,12.288,2.434c0.383,0.038,0.809-0.223,0.947-0.581l4.809-12.441c0.139-0.358,0.15-0.949,0.027-1.313
					C399.559,392.896,395.133,379.887,390.12,374.624z"/>
			</g>
			<g>
				<path fill="#DBC671" d="M430.365,390.291c-7.414,0.65-19.534,7.764-19.534,7.764c-0.331,0.194-0.716,0.646-0.854,1.005
					l-4.598,11.899c-0.139,0.358,0.001,0.838,0.311,1.065l10.05,6.103c0.345,0.17,0.627,0.309,0.632,0.311
					c5.332,2.061,10.946,2.851,16.681,2.342c11.824-1.04,28.171-17.39,28.171-17.39c0.271-0.271,0.26-0.704-0.026-0.96
					c0,0-8.52-7.621-14.14-9.793C441.724,390.576,436.108,389.787,430.365,390.291z"/>
			</g>
			<g>
				<path fill="#DBC671" d="M375.17,413.307c-3.841-4.023-8.393-7.072-13.533-9.06c-5.806-2.243-17.631-2.2-17.631-2.2
					c-0.384,0.002-0.679,0.316-0.654,0.7c0,0,1.465,23.076,9.651,31.67c3.833,4.024,8.387,7.074,13.533,9.063
					c4.153,1.604,12.289,2.434,12.289,2.434c0.383,0.039,0.809-0.222,0.947-0.58l4.81-12.445c0.139-0.358,0.15-0.949,0.027-1.313
					C384.609,431.576,380.183,418.57,375.17,413.307z"/>
			</g>
			<g>
				<path fill="#DBC671" d="M415.414,428.977c-7.41,0.649-19.533,7.761-19.533,7.761c-0.331,0.194-0.716,0.646-0.854,1.005
					l-4.599,11.9c-0.139,0.358,0.001,0.838,0.312,1.065l10.055,6.104c0.345,0.17,0.932,0.388,1.303,0.484
					c0,0,10.271,2.673,16.004,2.168c11.825-1.042,28.172-17.391,28.172-17.391c0.271-0.271,0.26-0.704-0.026-0.96
					c0,0-8.521-7.621-14.142-9.794C426.768,429.257,421.158,428.47,415.414,428.977z"/>
			</g>
			<g>
				<path fill="#DBC671" d="M460.122,254.624c-0.124-0.364-0.501-0.509-0.837-0.324c0,0-20.241,11.171-24.522,22.247
					c-3.461,8.955-3.353,18.772,0.31,27.65c0.274,0.669,0.576,1.345,0.889,1.998c0.299,0.617,0.618,1.238,0.955,1.844
					c0.059,0.106,0.059,0.106,0.059,0.106c-0.02,0.128-0.148,0.526-0.287,0.885l-73.454,190.056
					c-0.139,0.358-0.235,0.966-0.216,1.35c0,0,0.066,1.267,0.992,1.624c0.925,0.357,1.827-0.535,1.827-0.535
					c0.273-0.271,0.61-0.784,0.749-1.143l73.454-190.057c0.139-0.358,0.312-0.739,0.384-0.846c0,0,0,0,0.11-0.042
					c0.654-0.223,1.311-0.467,1.945-0.723c0.677-0.271,1.354-0.569,2.005-0.881c8.68-4.106,15.363-11.299,18.824-20.255
					C467.589,276.504,460.122,254.624,460.122,254.624z"/>
			</g>
		</g>
	</g>
</g>
<g opacity="0.3">
	<path fill="#D2BD6B" d="M253.703,104.625c-1.777-2.198-4.666-2.625-7.699-2.625h-48.206c-2.493,0-4.849-1.952-6.569-3.517
		c-1.934-1.771-3.229-5.302-3.229-8.11V29.027c0-2.57-0.941-5.102-2.594-6.833C183.643,20.343,181.24,19,178.505,19h-64.061
		c-2.524,0-6.23,1.176-7.954,2.78c-1.901,1.765-4.49,4.468-4.49,7.248v61.345c0,2.653,0.313,6.053-1.438,7.805
		C98.816,99.923,97.803,102,95.148,102H46.945c-2.671,0-5.242,0.104-6.993,1.873c-1.735,1.746-2.952,3.154-2.952,5.794v64.058
		c0,2.239,0.923,4.622,2.212,6.262c1.768,2.246,4.662,4.013,7.733,4.013h48.203c3.308,0,4.841,1.371,6.581,3.922
		c1.051,1.545,0.271,3.094,0.271,5.093v144.707c0,2.652,2.486,4.381,4.232,6.13c1.748,1.751,5.56,2.148,8.212,2.148h64.061
		c2.654,0,4.987-0.403,6.737-2.148c1.748-1.749,2.758-3.478,2.758-6.13V193.015c0-2.635,1.146-4.723,2.881-6.469
		c1.748-1.768,4.252-2.546,6.917-2.546h48.206c2.654,0,5.242-1.4,6.986-3.146c1.75-1.749,3.01-4.478,3.01-7.129v-64.058
		C256,107.389,255.029,106.282,253.703,104.625z M168,175.248v148.829c0,1.56,0.826,2.61-0.203,3.628
		c-1.019,1.028-0.972,1.295-2.528,1.295h-37.588c-1.701,0-3.227-0.514-4.27-1.706c1.146,0.928,2.688,1.706,4.27,1.706h37.588
		c3.116,0,2.731-1.81,2.731-4.923V175.248c0-1.949,2.467-3.67,3.98-4.688l0.714,0.102c-0.251,0.181-1.652,0.371-1.871,0.589
		C169.8,172.275,168,173.694,168,175.248z M235.705,168.078c0.863-1.141,0.295-2.637,0.295-4.15v-37.591
		c0-3.115,0.056-5.337-3.06-5.337H176.59c-1.709,0-3.232-0.948-4.274-2.166l-25.437,24.492l15.349,15.873l-15.58-15.97l-0.011,0.021
		l-25.091-25.827c-0.878,1.999-2.877,3.578-5.189,3.578H62.561c-1.545,0-3.063,0.603-4.208,1.479
		c0.072-0.081,0.131,0.043,0.206-0.034c1.028-1.026,2.44-1.444,4.002-1.444h53.796c1.456,0,2.788-0.717,3.791-1.629
		c0.55-0.5,1-1.191,1.323-1.872l25.177,25.786l24.201-24.591c-0.85-0.991-2.85-2.281-2.85-3.679V43.42
		c0-1.515-0.73-3.007-1.59-4.147c1.123,1.035,1.59,2.51,1.59,4.147v71.595c0,1.347,1.943,2.75,2.736,3.725
		c1.041,1.276,4.089,2.26,5.854,2.26h56.351c1.506,0,1.575,0.433,2.593,1.398c1.088,1.037,0.467,2.332,0.467,3.939v37.591
		c0,1.23,0.371,2.376-0.307,3.312C235.471,167.546,235.986,167.822,235.705,168.078z"/>
	<g>
		<path fill="#DBC671" d="M169.266,328.077c1.028-1.023,1.665-2.44,1.665-4V175.248c0-1.554,0.637-2.973,1.662-3.997l18.365,14.98
			c-1.732,1.747-2.805,4.148-2.805,6.784v144.707c0,2.652-1.087,5.067-2.836,6.813L169.266,328.077z"/>
		<path fill="#CAB768" d="M123.094,327.394c1.034,1.417,2.705,2.346,4.586,2.346h37.588c1.557,0,2.969-0.637,3.997-1.662
			l16.052,16.458c-1.745,1.748-4.158,2.832-6.813,2.832h-64.061c-2.652,0-5.064-1.084-6.813-2.832L123.094,327.394z"/>
		<path fill="#DBC671" d="M120.356,171.256c1.026,1.024,1.662,2.438,1.662,3.992v148.829c0,1.237,0.4,2.382,1.076,3.316
			l-15.462,17.142c-1.749-1.746-2.833-4.161-2.833-6.813V193.015c0-1.999-0.617-3.861-1.67-5.404"/>
		<path fill="#CAB768" d="M237.526,167.24c-1.034,1.419-2.707,2.349-4.586,2.349H176.59c-1.554,0-2.972,0.635-3.997,1.662
			l18.365,14.98c1.748-1.765,4.175-2.863,6.84-2.863h48.206c2.654,0,5.067-1.085,6.813-2.831L237.526,167.24z"/>
		<path fill="#DBC671" d="M236.832,122.239c1.092,1.036,1.771,2.491,1.771,4.099v37.591c0,1.23-0.4,2.376-1.076,3.312l15.29,13.297
			c1.752-1.75,2.839-4.161,2.839-6.813v-64.058c0-2.278-0.798-4.376-2.127-6.028L236.832,122.239z"/>
		<path fill="#CAB768" d="M172.204,118.58c1.036,1.277,2.621,2.097,4.386,2.097h56.351c1.506,0,2.877,0.592,3.892,1.562l16.696-18.6
			c-1.773-2.204-4.491-3.619-7.524-3.619h-48.206c-2.493,0-4.772-0.959-6.49-2.528"/>
		<path fill="#DBC671" d="M169.032,39.199c1.162,1.041,1.898,2.549,1.898,4.221v71.595c0,1.347,0.479,2.586,1.273,3.565
			l19.104-21.087c-1.938-1.769-3.154-4.311-3.154-7.12V29.027c0-2.57-1.018-4.916-2.672-6.646L169.032,39.199z"/>
		<path fill="#CAB768" d="M123.492,39.619c1.037-1.141,2.535-1.861,4.189-1.861h37.588c1.44,0,2.763,0.548,3.764,1.441
			l16.449-16.818c-1.762-1.85-4.241-3.002-6.977-3.002h-64.061c-2.524,0-4.831,0.985-6.557,2.588"/>
		<path fill="#DBC671" d="M120.148,119.209c1.145-1.037,1.871-2.535,1.871-4.194V43.42c0-1.459,0.559-2.795,1.473-3.801
			l-15.604-17.651c-1.898,1.765-3.088,4.28-3.088,7.06v61.345c0,2.653-1.087,5.064-2.838,6.813"/>
		<path fill="#CAB768" d="M58.441,167.806c1.034,1.097,2.502,1.783,4.12,1.783h53.796c1.556,0,2.974,0.638,4,1.667l-17.228,16.355
			c-1.74-2.556-4.673-4.243-7.98-4.243H46.945c-3.071,0-5.815-1.448-7.585-3.697L58.441,167.806z"/>
		<path fill="#DBC671" d="M58.559,122.337c-1.029,1.03-1.663,2.443-1.663,4v37.591c0,1.494,0.589,2.859,1.545,3.877L39.36,179.672
			c-1.29-1.642-2.063-3.708-2.063-5.947v-64.058c0-2.641,1.07-5.04,2.805-6.785L58.559,122.337z"/>
		<path fill="#CAB768" d="M120.148,119.209c-1.003,0.91-2.335,1.468-3.791,1.468H62.561c-1.562,0-2.974,0.635-4.002,1.661
			l-18.457-19.456c1.749-1.767,4.172-2.861,6.843-2.861h48.203c2.655,0,5.07-1.087,6.813-2.835"/>
	</g>
	<path fill="#E3D07E" d="M121.546,117.425c-0.878,2.001-2.877,3.575-5.189,3.575H62.561c-3.116,0-5.561,2.223-5.561,5.337v37.591
		c0,3.112,2.445,6.072,5.561,6.072h53.796c0.931,0,1.798,0.043,2.574,0.446l27.948-27.021L121.546,117.425z"/>
	<path fill="#E3D07E" d="M170.85,118.678c-0.85-0.992-2.85-2.266-2.85-3.664V43.42c0-3.112,0.385-7.42-2.731-7.42h-37.588
		c-3.116,0-5.681,4.308-5.681,7.42v71.595c0,0.799-0.167,1.557-0.467,2.249l24.611,25.982L170.85,118.678z"/>
	<path fill="#E3D07E" d="M232.94,121H176.59c-1.709,0-3.232-0.948-4.274-2.166l-25.437,24.492l26.606,27.448
		c0.892-0.592,1.962-0.774,3.104-0.774h56.351c3.115,0,3.06-2.96,3.06-6.072v-37.591C236,123.223,236.056,121,232.94,121z"/>
	<path fill="#E3D07E" d="M118.92,170.239c1.823,0.943,3.08,2.828,3.08,5.009v148.829c0,3.113,2.565,4.923,5.681,4.923h37.588
		c3.116,0,2.731-1.81,2.731-4.923V175.248c0-1.967,2.486-3.705,4.02-4.718l-25.875-27.285L118.92,170.239z"/>
</g>
</svg>
