<?xml version="1.0" encoding="utf-8"?>
<svg id="master-artboard" xmlns="http://www.w3.org/2000/svg" viewBox="0 0 220 60" width="220px" height="60px"><rect id="ee-background" x="0" y="0" width="220" height="60" style="fill: white; fill-opacity: 0; pointer-events: none;"/><defs><clipPath id="clipPath18" clipPathUnits="userSpaceOnUse"><path id="path16" d="M 0,1250 H 1125 V 0 H 0 Z"/></clipPath></defs><g transform="matrix(0.30000001192092896, 0, 0, 0.30000001192092896, -153.14952087402344, -197.34272480010986)"><metadata id="metadata8"/><g transform="matrix(4.51241111755371, 0, 0, -4.51241111755371, -1517.407470703125, 4043.0362957053712)" id="g10"><g id="g12"><g clip-path="url(#clipPath18)" id="g14"><g transform="translate(470.3613,733.9844)" id="g20"><path id="path22" style="fill:#cbcbcc;fill-opacity:1;fill-rule:nonzero;stroke:none" d="m 0,0 c 0,0.16 -0.002,0.454 -0.004,0.854 h 0.002 c -0.009,4.624 -0.016,8.242 -0.008,8.245 0.002,4.655 -6.62,4.59 -6.62,4.59 0,0 0.607,-0.968 0.606,-3.367 0,-0.777 0.007,-4.217 0.008,-9.058 h 0.002 c 0,-0.027 0,-0.041 -10e-4,-0.041 -0.002,-4.655 6.62,-4.589 6.62,-4.589 0,0 -0.606,0.968 -0.605,3.366"/></g><g transform="translate(471.1963,732.9609)" id="g24"><path id="path26" style="fill:#57438c;fill-opacity:1;fill-rule:nonzero;stroke:none" d="m 0,0 c 0,0 0.031,-2.121 1.593,-2.121 1.557,0 2.005,1.243 2.005,1.243 0,0 3.776,8.495 4.349,9.823 0.449,1.039 2.15,1.539 2.15,1.539 l -5.463,0.002 c 0,0 -2.283,-0.117 -3.05,-1.834 C 0.819,6.936 0.003,5.104 0.003,5.104 L 0,0"/></g><g transform="translate(491.1152,724.4238)" id="g28"><path id="path30" style="fill:#cbcbcc;fill-opacity:1;fill-rule:nonzero;stroke:none" d="m 0,0 -2.478,5.674 h 0.027 l -2.131,4.818 -0.408,0.936 -0.008,0.002 -2.589,5.605 c 0,0 -0.467,1.486 -2.006,1.245 -1.29,-0.202 -1.779,-1.949 -1.779,-1.949 l -0.922,-2.782 0.003,-0.007 0.138,-0.31 3.371,-7.562 h 0.003 l 1.93,-4.328 3.786,-3.424 c 0,0 1.594,-1.398 2.642,-0.24 C 0.623,-1.166 0,0 0,0"/></g><g transform="translate(486.7324,722.4082)" id="g32"><path id="path34" style="fill:#57438c;fill-opacity:1;fill-rule:nonzero;stroke:none" d="M 0,0 C -0.148,0.134 -0.447,0.402 -0.864,0.777 -4.19,3.771 -6.761,6.084 -6.759,6.092 -6.786,6.116 -6.814,6.13 -6.841,6.153 -6.886,6.194 -6.927,6.23 -6.972,6.271 L -6.982,6.26 c -3.417,2.725 -7.621,-2.003 -7.621,-2.003 0,0 1.125,-0.199 2.905,-1.808 0.559,-0.506 3.128,-2.81 6.561,-5.91 0.125,-0.113 0.198,-0.181 0.198,-0.182 0.007,-0.006 0.015,-0.01 0.022,-0.016 0.032,-0.029 0.061,-0.056 0.093,-0.084 l 0.008,0.008 c 3.433,-2.901 7.719,1.927 7.719,1.927 0,0 -1.125,0.201 -2.903,1.808"/></g><g transform="translate(473.7148,724.9238)" id="g36"><path id="path38" style="fill:#cbcbcc;fill-opacity:1;fill-rule:nonzero;stroke:none" d="m 0,0 c 0,0 -1.595,1.397 -2.643,0.24 -1.043,-1.156 -0.42,-2.322 -0.42,-2.322 0,0 3.773,-8.496 4.374,-9.811 0.471,-1.031 -0.299,-2.628 -0.299,-2.628 l 3.664,4.053 c 0,0 1.444,1.774 0.683,3.491 -0.761,1.72 -1.574,3.553 -1.574,3.553 L 0,0"/></g><g transform="translate(460.6631,712.4316)" id="g40"><path id="path42" style="fill:#cbcbcc;fill-opacity:1;fill-rule:nonzero;stroke:none" d="m 0,0 c 0,0 -1.779,-1.225 -0.881,-2.576 0.897,-1.348 2.21,-1.033 2.21,-1.033 0,0 9.303,0.976 10.831,1.363 1.528,0.385 1.153,2.152 1.153,2.152 L 11.688,4.064 4.328,2.876 0,0"/></g><g transform="translate(468.0215,727.1855)" id="g44"><path id="path46" style="fill:#57438c;fill-opacity:1;fill-rule:nonzero;stroke:none" d="m 0,0 c 0,0 -0.419,-1.064 -2.349,-2.486 -0.128,-0.095 -0.364,-0.271 -0.684,-0.51 v 10e-4 c -3.715,-2.755 -6.621,-4.908 -6.629,-4.904 -0.068,-0.05 -0.116,-0.107 -0.179,-0.159 -0.031,-0.023 -0.06,-0.046 -0.092,-0.068 l 0.006,-0.008 c -3.248,-2.815 0.504,-7.817 0.504,-7.817 0,0 0.419,1.062 2.35,2.486 0.137,0.102 0.402,0.299 0.761,0.567 3.678,2.726 6.543,4.849 6.552,4.845 0.062,0.045 0.104,0.097 0.161,0.143 0.046,0.034 0.091,0.067 0.137,0.101 L 0.529,-7.796 C 3.734,-4.977 0,0 0,0"/></g><g transform="translate(466,725.9775)" id="g48"><path id="path50" style="fill:#cbcbcc;fill-opacity:1;fill-rule:nonzero;stroke:none" d="m 0,0 c 0,0 1.687,1.286 0.76,2.542 -0.924,1.253 -2.192,0.875 -2.192,0.875 0,0 -9.076,-2.01 -10.483,-2.336 -1.106,-0.258 -2.517,0.815 -2.517,0.815 l 3.244,-4.397 c 0,0 1.45,-1.768 3.287,-1.363 1.836,0.404 3.794,0.835 3.794,0.835 L 0,0"/></g><g transform="translate(461.9092,747.4512)" id="g52"><path id="path54" style="fill:#57438c;fill-opacity:1;fill-rule:nonzero;stroke:none" d="m 0,0 c -1.558,0 -2.005,-1.244 -2.005,-1.244 l -2.216,-4.902 -4.966,-10.811 c 0,0 -0.819,-1.324 0.368,-2.332 0.996,-0.846 2.638,-0.074 2.638,-0.074 l 2.851,1.118 2.516,5.636 h 0.003 l 2.401,5.384 0.003,5.104 c 0,0 -0.031,2.12 -1.593,2.121"/></g><g transform="translate(503.5967,736.6504)" id="g56"><path id="path58" style="fill:#57438c;fill-opacity:1;fill-rule:nonzero;stroke:none" d="m 0,0 c 0.259,0.322 0.619,0.344 0.98,0.125 l 1.445,-0.893 c -1.847,-2.589 -2.696,-4.794 -2.681,-7.816 0.015,-3.02 0.966,-5.195 2.961,-7.865 L 1.269,-17.357 C 0.91,-17.58 0.55,-17.561 0.288,-17.242 -1.665,-14.873 -2.8,-11.938 -2.837,-8.598 -2.874,-5.256 -1.689,-2.109 0,0"/></g><g transform="translate(509.146,730.7773)" id="g60"><path id="path62" style="fill:#57438c;fill-opacity:1;fill-rule:nonzero;stroke:none" d="M 0,0 C 2.937,0.795 4.63,2.104 4.724,3.365 L 1.264,3.348 C 0.803,3.344 0.582,3.564 0.58,4.004 l -0.008,1.5 9.922,0.051 c 0.46,0.002 0.681,-0.217 0.683,-0.657 L 11.185,3.396 7.244,3.377 C 7.226,2.957 7.148,2.537 6.991,2.117 L 10.658,0.734 C 11.36,0.477 11.663,0.039 11.605,-0.561 11.568,-1.021 11.23,-1.523 10.711,-1.785 L 5.561,0.107 C 4.804,-0.596 3.827,-1.16 2.669,-1.566 1.67,-1.893 1.01,-1.896 0.588,-1.598 0.127,-1.279 -0.056,-0.701 0,0 M 13.229,-5.254 7.168,-5.285 7.179,-7.426 C 7.183,-8.045 7.206,-8.666 7.128,-9.105 6.952,-9.928 6.093,-10.23 4.493,-10.08 l -0.025,4.781 -5.361,-0.027 c -0.46,-0.002 -0.681,0.217 -0.684,0.656 l -0.007,1.502 14.122,0.07 c 0.46,0.004 0.682,-0.216 0.684,-0.656 z"/></g><g transform="translate(526.1235,719.5215)" id="g64"><path id="path66" style="fill:#57438c;fill-opacity:1;fill-rule:nonzero;stroke:none" d="m 0,0 c -0.259,-0.322 -0.619,-0.344 -0.979,-0.125 l -1.445,0.893 c 1.966,2.689 2.895,4.875 2.88,7.896 -0.016,3.022 -0.887,5.217 -2.761,7.787 l 1.436,0.908 c 0.359,0.221 0.72,0.203 0.981,-0.115 C 1.823,15.152 3,12.018 3.036,8.676 3.073,5.336 1.928,2.389 0,0"/></g><g transform="translate(541.6548,737.2051)" id="g68"><path id="path70" style="fill:#57438c;fill-opacity:1;fill-rule:nonzero;stroke:none" d="m 0,0 1.88,0.01 c 0.461,0.002 0.682,-0.217 0.684,-0.658 l 0.065,-12.883 c 0.005,-0.901 0.048,-1.52 -0.068,-2.061 -0.176,-0.84 -0.915,-1.144 -2.477,-0.992 z m -4.426,-6.865 c -0.011,2.08 -0.676,2.998 -1.696,2.992 -1.02,-0.006 -1.675,-0.928 -1.665,-3.01 0.012,-2.14 0.675,-2.857 1.695,-2.851 1.02,0.005 1.677,0.728 1.666,2.869 m -5.9,-0.19 c -0.018,3.5 1.633,5.369 4.193,5.383 2.541,0.012 4.231,-1.84 4.248,-5.34 0.018,-3.521 -1.654,-5.029 -4.195,-5.043 -2.58,-0.013 -4.228,1.479 -4.246,5"/></g><g transform="translate(560.084,723.7539)" id="g72"><path id="path74" style="fill:#57438c;fill-opacity:1;fill-rule:nonzero;stroke:none" d="M 0,0 C 0.005,-0.9 0.048,-1.52 -0.069,-2.061 -0.245,-2.9 -0.983,-3.205 -2.545,-3.053 l -0.084,16.584 1.88,0.01 c 0.461,0.002 0.682,-0.217 0.684,-0.658 z M -4.238,3.459 C -3.775,2.943 -3.612,2.404 -3.93,1.902 -4.208,1.461 -4.747,1.178 -5.387,1.133 l -3.157,3.246 c -0.515,-0.984 -1.15,-1.867 -1.787,-2.629 -0.577,-0.684 -1.137,-0.787 -1.717,-0.67 -0.501,0.078 -0.983,0.576 -1.126,1.035 1.99,2.151 3.537,4.617 3.525,7.178 L -11.93,9.281 c -0.46,-0.002 -0.681,0.219 -0.683,0.658 l -0.008,1.541 7.702,0.04 c 0.44,0.001 0.641,-0.219 0.643,-0.659 l 0.007,-1.541 -3,-0.013 C -7.265,8.467 -7.381,7.686 -7.557,6.924 Z"/></g><g transform="translate(570.0117,729.8066)" id="g76"><path id="path78" style="fill:#57438c;fill-opacity:1;fill-rule:nonzero;stroke:none" d="M 0,0 C 1.78,0.01 2.517,0.953 2.511,2.094 2.505,3.232 1.559,4.23 -0.021,4.221 -1.602,4.213 -2.537,3.207 -2.531,2.068 -2.525,0.928 -1.78,-0.01 0,0 m 6.685,-4.467 c 0.46,0.002 0.681,-0.217 0.683,-0.656 L 7.376,-6.664 -6.747,-6.736 c -0.46,-0.002 -0.681,0.216 -0.684,0.656 l -0.007,1.541 5.96,0.029 -0.011,2.381 c -2.483,0.449 -3.671,2.063 -3.682,4.043 -0.012,2.32 1.778,4.451 5.139,4.486 3.36,0.039 5.172,-2.113 5.183,-4.433 0.01,-2 -1.202,-3.647 -3.759,-4.1 l 0.011,-2.361 z"/></g><g transform="translate(591.6836,723.916)" id="g80"><path id="path82" style="fill:#57438c;fill-opacity:1;fill-rule:nonzero;stroke:none" d="m 0,0 c 0.005,-0.9 0.048,-1.521 -0.069,-2.061 -0.177,-0.841 -0.914,-1.144 -2.476,-0.994 l -0.084,16.584 1.88,0.01 c 0.46,0.002 0.682,-0.217 0.684,-0.656 z m -12.231,9.541 c -0.481,-0.004 -0.722,0.234 -0.724,0.695 l -0.008,1.541 7.982,0.039 c 0.479,0.004 0.721,-0.236 0.723,-0.695 L -4.25,9.58 Z m 8.854,-6.498 0.008,-1.5 c -2.778,-0.475 -6.298,-0.611 -9.02,-0.506 -0.5,0.018 -0.72,0.256 -0.723,0.697 l -0.008,1.559 c 0.44,-0.018 0.9,-0.014 1.341,-0.012 l -0.03,5.66 1.58,0.008 c 0.501,0.004 0.722,-0.215 0.724,-0.656 l 0.026,-5 c 0.52,0.002 1.041,0.023 1.541,0.047 l 0.251,5.582 1.58,0.01 c 0.5,0.002 0.742,-0.239 0.724,-0.678 L -5.6,3.512 c 0.521,0.043 1,0.105 1.42,0.168 0.499,0.082 0.801,-0.157 0.803,-0.637"/></g><g transform="translate(608.2959,725.5)" id="g84"><path id="path86" style="fill:#57438c;fill-opacity:1;fill-rule:nonzero;stroke:none" d="m 0,0 c 0.46,0.002 0.683,-0.217 0.685,-0.656 l 0.007,-1.541 -14.123,-0.071 c -0.461,-0.003 -0.681,0.215 -0.684,0.657 l -0.008,1.539 z"/></g><g transform="translate(595.4951,729.1758)" id="g88"><path id="path90" style="fill:#57438c;fill-opacity:1;fill-rule:nonzero;stroke:none" d="m 0,0 c 3.512,1.799 5.202,3.707 5.191,5.848 l -0.004,0.8 1.68,0.008 C 7.347,6.66 7.508,6.52 7.511,6 L 7.515,5.279 C 7.518,4.68 7.4,4.059 7.163,3.459 L 11.256,1.098 C 11.878,0.74 12.182,0.283 12.104,-0.258 12.046,-0.799 11.709,-1.24 11.069,-1.584 L 5.854,1.25 C 5.099,0.348 4.143,-0.459 3.085,-1.045 2.208,-1.549 1.528,-1.672 0.986,-1.455 0.306,-1.178 0.044,-0.699 0,0"/></g></g></g></g></g></svg>