<?xml version="1.0" encoding="utf-8"?>
<svg width="2000pt" height="2000pt" viewBox="0 0 2000 2000" version="1.1" xmlns="http://www.w3.org/2000/svg">
  <g id="surface1" transform="matrix(1, 0, 0, 1, 0.446636, -1.541865)">
    <rect x="0" y="0" width="2000" height="2000" style="fill-opacity: 1; stroke: none; fill: rgba(255, 255, 255, 0);"/>
    <path style="stroke: none; fill-rule: nonzero; fill-opacity: 1; fill: rgb(202, 202, 202);" d="M 963.723 502.02 C 963.797 345.922 741.742 348.102 741.742 348.102 C 741.742 348.102 762.078 380.578 762.035 460.988 C 762.023 487.039 762.308 602.367 762.34 764.734 L 963.969 778.52 C 963.66 623.43 963.469 502.148 963.723 502.02"/>
    <path style="stroke: none; fill-rule: nonzero; fill-opacity: 1; fill: rgb(77, 52, 135);" d="M 734.046875 426.679688 C 734.046875 426.679688 732.996094 355.570313 680.632813 355.539063 C 628.417969 355.539063 613.398438 397.269531 613.398438 397.269531 L 441.183594 778.230469 L 653.476563 778.351563 L 733.953125 597.808594 L 734.046875 426.679688 "/>
    <path style="stroke: none; fill-rule: nonzero; fill-opacity: 1; fill: rgb(202, 202, 202);" d="M 762.371 766.078 C 762.297 922.18 984.352 920 984.352 920 C 984.352 920 964.016 887.531 964.059 807.121 C 964.066 781.07 962.674 653.257 962.643 490.897 L 762.125 489.59 C 762.434 644.68 762.625 765.949 762.371 766.078"/>
    <path style="stroke: none; fill-rule: nonzero; fill-opacity: 1; fill: rgb(77, 52, 135);" d="M 992.042969 841.429688 C 992.042969 841.429688 993.097656 912.53125 1045.460938 912.558594 C 1097.671875 912.558594 1112.691406 870.839844 1112.691406 870.839844 C 1112.691406 870.839844 1239.308594 586.03125 1258.519531 541.519531 C 1273.578125 506.621094 1330.609375 489.871094 1330.609375 489.871094 L 1147.421875 489.800781 C 1147.421875 489.800781 1070.839844 493.730469 1045.179688 551.308594 C 1019.511719 608.890625 992.140625 670.300781 992.140625 670.300781 L 992.042969 841.429688 "/>
    <path style="stroke: none; fill-rule: nonzero; fill-opacity: 1; fill: rgb(202, 202, 202);" d="M 1278.641 580.09 C 1278.641 580.09 1295.039 521.512 1338.32 514.738 C 1389.91 506.672 1405.559 556.469 1405.559 556.469 L 1493.646 747.228 L 1577.77 937.43 L 1365.48 937.551 L 1247.719 673.371 L 1278.641 580.09"/>
    <path style="stroke: none; fill-rule: nonzero; fill-opacity: 1; fill: rgb(77, 52, 135);" d="M 1347.352 1317.422 C 1463.141 1422.109 1610.371 1255.859 1610.371 1255.859 C 1610.371 1255.859 1572.641 1249.191 1513 1195.262 C 1493.68 1177.789 1399.735 1093.801 1279.223 984.985 L 1142.012 1132.262 C 1257.309 1235.988 1347.43 1317.141 1347.352 1317.422"/>
    <path style="stroke: none; fill-rule: nonzero; fill-opacity: 1; fill: rgb(202, 202, 202);" d="M 1557.219 1197.488 C 1557.219 1197.488 1610.691 1244.371 1645.82 1205.531 C 1680.82 1166.789 1659.922 1127.672 1659.922 1127.672 L 1492.648 744.512 L 1247.797 673.595 L 1430.289 1082.711 L 1557.219 1197.488"/>
    <path style="stroke: none; fill-rule: nonzero; fill-opacity: 1; fill: rgb(77, 52, 135);" d="M 1286.371 991 C 1170.578 886.309 1023.352 1052.551 1023.352 1052.551 C 1023.352 1052.551 1061.078 1059.23 1120.73 1113.16 C 1140.051 1130.629 1230.712 1211.967 1351.22 1320.775 L 1491.711 1176.148 C 1376.422 1072.422 1286.289 991.27 1286.371 991"/>
    <path style="stroke: none; fill-rule: nonzero; fill-opacity: 1; fill: rgb(202, 202, 202);" d="M 1076.5 1110.929688 C 1076.5 1110.929688 1023.03125 1064.050781 987.910156 1102.878906 C 952.910156 1141.628906 973.808594 1180.75 973.808594 1180.75 C 973.808594 1180.75 1100.289063 1465.621094 1120.441406 1509.699219 C 1136.238281 1544.28125 1110.441406 1597.820313 1110.441406 1597.820313 L 1233.289063 1461.929688 C 1233.289063 1461.929688 1281.710938 1402.46875 1256.179688 1344.828125 C 1230.660156 1287.191406 1203.429688 1225.710938 1203.429688 1225.710938 L 1076.5 1110.929688 "/>
    <path style="stroke: none; fill-rule: nonzero; fill-opacity: 1; fill: rgb(77, 52, 135);" d="M 561.594 1299.961 C 435.973 1392.621 569.629 1569.961 569.629 1569.961 C 569.629 1569.961 583.672 1534.309 648.387 1486.578 C 669.348 1471.121 773.024 1393.369 903.622 1296.9 L 783.879 1135.52 C 659.297 1227.898 561.848 1300.09 561.594 1299.961"/>
    <path style="stroke: none; fill-rule: nonzero; fill-opacity: 1; fill: rgb(202, 202, 202);" d="M 638.863281 1529.828125 C 638.863281 1529.828125 579.199219 1570.859375 609.328125 1616.191406 C 639.398438 1661.371094 683.417969 1650.828125 683.417969 1650.828125 C 683.417969 1650.828125 995.355469 1618.078125 1046.601563 1605.148438 C 1097.839844 1592.21875 1085.230469 1532.96875 1085.230469 1532.96875 L 1030.769531 1393.511719 L 783.980469 1433.378906 L 638.863281 1529.828125 "/>
    <path style="stroke: none; fill-rule: nonzero; fill-opacity: 1; fill: rgb(77, 52, 135);" d="M 893.625 1305.09 C 1019.25 1212.422 885.59 1035.078 885.59 1035.078 C 885.59 1035.078 871.547 1070.73 806.832 1118.461 C 785.871 1133.93 683.128 1211.072 552.531 1307.545 L 671.34 1469.52 C 795.922 1377.148 893.371 1304.961 893.625 1305.09"/>
    <path style="stroke: none; fill-rule: nonzero; fill-opacity: 1; fill: rgb(202, 202, 202);" d="M 817.8125 1075.570313 C 817.8125 1075.570313 874.386719 1032.480469 843.308594 990.339844 C 812.296875 948.339844 769.804688 961.039063 769.804688 961.039063 C 769.804688 961.039063 465.472656 1028.359375 418.265625 1039.339844 C 381.234375 1047.960938 333.894531 1012.03125 333.894531 1012.03125 L 442.640625 1159.441406 C 442.640625 1159.441406 491.289063 1218.710938 552.855469 1205.148438 C 614.425781 1191.601563 680.085938 1177.140625 680.085938 1177.140625 L 817.8125 1075.570313 "/>
    <path style="stroke: none; fill-rule: nonzero; fill-opacity: 1; fill: rgb(77, 52, 135);" d="M 473.383 1004.84 C 473.383 1004.84 418.313 1030.68 384.914 1002.32 C 345.113 968.52 372.605 924.16 372.605 924.16 L 540.324 558.978 L 733.956 597.781 L 568.972 967.34 L 473.383 1004.84"/>
  </g>
</svg>