<?xml version="1.0" encoding="utf-8"?>
<!-- Generator: Adobe Illustrator 16.0.0, SVG Export Plug-In . SVG Version: 6.00 Build 0)  -->
<!DOCTYPE svg PUBLIC "-//W3C//DTD SVG 1.1//EN" "http://www.w3.org/Graphics/SVG/1.1/DTD/svg11.dtd">
<svg version="1.1" id="Layer_1" xmlns="http://www.w3.org/2000/svg" xmlns:xlink="http://www.w3.org/1999/xlink" x="0px" y="0px"
	 width="512px" height="512px" viewBox="0 0 512 512" enable-background="new 0 0 512 512" xml:space="preserve">
<linearGradient id="SVGID_1_" gradientUnits="userSpaceOnUse" x1="87.3079" y1="-526.6187" x2="424.5163" y2="-189.4102" gradientTransform="matrix(1 0 0 -1 -124.8003 19.4805)">
	<stop  offset="0" style="stop-color:#FFFFFF"/>
	<stop  offset="0.2034" style="stop-color:#FCFCFC"/>
	<stop  offset="0.344" style="stop-color:#F3F3F3"/>
	<stop  offset="0.4657" style="stop-color:#E4E4E4"/>
	<stop  offset="0.5767" style="stop-color:#CFCECE"/>
	<stop  offset="0.6803" style="stop-color:#B3B2B2"/>
	<stop  offset="0.7786" style="stop-color:#918F8F"/>
	<stop  offset="0.8708" style="stop-color:#696767"/>
	<stop  offset="0.8932" style="stop-color:#5E5C5C"/>
</linearGradient>
<polyline opacity="0.2" fill="url(#SVGID_1_)" enable-background="new    " points="91.506,675.099 374.375,383.191 
	338.778,336.807 273.87,378.278 275.903,264.252 313.099,222.274 265.418,204.903 233.146,156.521 148.18,106.464 -156.861,407.47 
	"/>
<path fill="#F9C900" d="M214.927,417.042l-12.971-9.729l-12.973,9.729c-3.563,2.672-8.646,0.13-8.646-4.324v-32.417h43.235v32.417
	C223.573,417.172,218.489,419.714,214.927,417.042z"/>
<rect x="180.338" y="380.302" fill="#F9AA0C" width="43.233" height="16.214"/>
<path fill="#D6CABB" d="M174.934,99.271h183.75V380.3h-183.75c-17.909,0-32.427-14.518-32.427-32.426V131.698
	C142.507,113.789,157.025,99.271,174.934,99.271z"/>
<path fill="#EE2524" d="M137.103,131.698v221.581c0,17.91,14.52,32.428,32.427,32.428h21.617V169.529h-16.213
	C154.073,169.529,137.103,152.558,137.103,131.698z"/>
<path fill="#C4161C" d="M180.338,385.706H369.49c2.985,0,5.404-2.42,5.404-5.404V164.125c0-2.985-2.42-5.404-5.404-5.404H180.338
	V385.706z"/>
<path fill="#F1EDE8" d="M174.934,153.316h183.75V110.08h-183.75c-11.938,0-21.618,9.678-21.618,21.617l0,0
	C153.316,143.638,162.994,153.316,174.934,153.316z"/>
<path fill="#F9AA0C" d="M369.49,158.72H174.934c-14.898,0-27.021-12.122-27.021-27.021c0-14.9,12.122-27.021,27.021-27.021h194.559
	c2.985,0,5.404-2.42,5.404-5.404s-2.419-5.405-5.404-5.405H174.934c-20.858,0-37.831,16.971-37.831,37.831
	c0,20.86,16.973,37.832,37.831,37.832h199.963v-5.404C374.897,161.141,372.478,158.72,369.49,158.72z"/>
<g>
	<path fill="#DD9627" d="M326.257,369.493h-97.279c-2.983,0-5.402-2.42-5.402-5.404c0-11.92-9.698-21.616-21.618-21.616
		c-2.985,0-5.404-2.422-5.404-5.404V218.169c0-2.985,2.42-5.404,5.404-5.404c11.919,0,21.618-9.698,21.618-21.618
		c0-2.985,2.42-5.404,5.402-5.404h97.279c2.983,0,5.402,2.42,5.402,5.404c0,11.92,9.697,21.618,21.617,21.618
		c2.985,0,5.404,2.42,5.404,5.404v118.897c0,2.982-2.42,5.404-5.404,5.404c-11.92,0-21.617,9.696-21.617,21.615
		C331.66,367.073,329.24,369.493,326.257,369.493z M233.931,358.684h87.371c2.284-13.559,13.014-24.287,26.57-26.57V223.124
		c-13.559-2.284-24.286-13.013-26.57-26.572h-87.371c-2.284,13.559-13.013,24.288-26.571,26.572v108.987
		C220.918,334.396,231.648,345.125,233.931,358.684z"/>
	<path fill="#DD9627" d="M272.213,353.279c-8.939,0-16.213-7.273-16.213-16.213v-59.449H245.19c-8.938,0-16.213-7.273-16.213-16.213
		v-10.811c0-8.939,7.273-16.213,16.213-16.213H256v-16.213c0-8.939,7.271-16.213,16.213-16.213h10.809
		c8.939,0,16.214,7.274,16.214,16.213v16.213h10.812c8.938,0,16.213,7.274,16.213,16.213v10.811c0,8.938-7.274,16.213-16.213,16.213
		h-10.812v59.449c0,8.938-7.272,16.213-16.214,16.213H272.213z"/>
</g>
<path fill="#F9C900" d="M310.043,245.191h-21.617v-27.022c0-2.985-2.42-5.404-5.403-5.404h-10.81c-2.984,0-5.404,2.42-5.404,5.404
	v27.022h-21.618c-2.982,0-5.402,2.42-5.402,5.404v10.809c0,2.984,2.42,5.404,5.402,5.404h21.618v70.258
	c0,2.982,2.42,5.402,5.404,5.402h10.809c2.985,0,5.404-2.42,5.404-5.402v-70.258h21.617c2.983,0,5.402-2.42,5.402-5.404v-10.811
	C315.448,247.611,313.029,245.191,310.043,245.191z"/>
<polygon fill="#F9AA0C" points="272.213,337.066 272.213,261.404 245.191,261.404 245.191,250.596 272.213,250.596 272.213,218.169 
	283.022,218.169 283.022,250.596 310.043,250.596 310.043,261.404 283.022,261.404 283.022,337.066 "/>
<g>
	<rect x="234.383" y="120.89" fill="#E3DCD2" width="124.302" height="5.404"/>
	<rect x="196.551" y="137.103" fill="#E3DCD2" width="162.133" height="5.404"/>
</g>
</svg>
