<?xml version="1.0" encoding="utf-8"?>
<!-- Generator: Adobe Illustrator 16.0.0, SVG Export Plug-In . SVG Version: 6.00 Build 0)  -->
<!DOCTYPE svg PUBLIC "-//W3C//DTD SVG 1.1//EN" "http://www.w3.org/Graphics/SVG/1.1/DTD/svg11.dtd">
<svg version="1.1" id="Layer_1" xmlns="http://www.w3.org/2000/svg" xmlns:xlink="http://www.w3.org/1999/xlink" x="0px" y="0px"
	 width="512px" height="512px" viewBox="0 0 512 512" enable-background="new 0 0 512 512" xml:space="preserve">
<g>
	<g>
		<path fill="#F2845C" d="M340.979,135.755c0-6.167-5.044-11.22-11.227-11.22H182.765c-6.176,0-11.22,5.047-11.22,11.22v338.143
			c0,0.317,0.063,0.61,0.089,0.915c-0.051,0.439-0.089,0.885-0.089,1.337c0,17.192,37.935,31.129,84.717,31.129
			c46.788,0,84.717-13.942,84.717-31.129c0-0.452-0.039-0.896-0.089-1.337c0.019-0.305,0.089-0.598,0.089-0.915V135.755z"/>
		<ellipse fill="#FFFFFF" cx="256.262" cy="128.415" rx="84.717" ry="19.024"/>
		<g>
			<path fill="#F5F1D5" d="M284.853,78.439c0,15.787-12.804,28.594-28.591,28.594c-15.794,0-28.591-12.807-28.591-28.594
				c0-15.793,12.797-72.409,28.591-72.409C272.049,6.03,284.853,62.646,284.853,78.439z"/>
			<path fill="#F5F1D5" d="M273.282,90c0,9.404-7.619,17.034-17.027,17.034c-9.407,0-17.027-7.629-17.027-17.034
				c0-9.397,7.62-43.125,17.027-43.125C265.663,46.875,273.282,80.602,273.282,90z"/>
		</g>
		
			<line fill="none" stroke="#FED402" stroke-width="0.9146" stroke-linecap="round" stroke-linejoin="round" stroke-miterlimit="10" x1="256.262" y1="90.874" x2="256.262" y2="118.925"/>
	</g>
</g>
<path fill="#F5F1D5" d="M299.604,274.029v23.191h-28.987v57.979h-23.192v-57.979h-28.99v-23.191h28.99v-23.578h23.192v23.578
	H299.604z"/>
</svg>
