<?xml version="1.0" encoding="utf-8"?>
<!-- Generator: Adobe Illustrator 16.0.0, SVG Export Plug-In . SVG Version: 6.00 Build 0)  -->
<!DOCTYPE svg PUBLIC "-//W3C//DTD SVG 1.1//EN" "http://www.w3.org/Graphics/SVG/1.1/DTD/svg11.dtd">
<svg version="1.1" xmlns="http://www.w3.org/2000/svg" xmlns:xlink="http://www.w3.org/1999/xlink" x="0px" y="0px" width="800px"
	 height="800px" viewBox="0 0 800 800" enable-background="new 0 0 800 800" xml:space="preserve">
<g id="BACKGROUND">
	<g>
		<g>
			<rect fill="#09303D" width="800" height="623.077"/>
			<g>
				<rect y="623.077" fill="#074654" width="800" height="176.923"/>
			</g>
		</g>
		<g opacity="0.7">
			<polygon fill="#FFFFFF" points="57.916,54.528 66.298,50.454 57.091,49 53.018,40.618 51.563,49.824 43.181,53.898 
				52.387,55.353 56.462,63.734 			"/>
			<polygon fill="#FFFFFF" points="147.31,86.243 149.32,90.316 153.814,90.969 150.563,94.14 151.33,98.616 147.31,96.502 
				143.29,98.616 144.058,94.14 140.805,90.969 145.3,90.316 			"/>
			<circle fill="#FFFFFF" cx="110" cy="40.5" r="2.75"/>
			<circle fill="#FFFFFF" cx="88.75" cy="98.616" r="2.75"/>
			<circle fill="#FFFFFF" cx="22.5" cy="14.75" r="2.75"/>
			<polygon fill="#FFFFFF" points="33.359,95.458 32.39,99.896 35.496,103.209 30.977,103.659 28.785,107.637 26.96,103.478 
				22.5,102.622 25.892,99.602 25.327,95.095 29.248,97.388 			"/>
			<circle fill="#FFFFFF" cx="57.489" cy="157.5" r="2.75"/>
			<circle fill="#FFFFFF" cx="140.805" cy="157.5" r="2.75"/>
			<polygon fill="#FFFFFF" points="52.004,217.501 50.764,223.182 54.739,227.424 48.954,228 46.148,233.092 43.813,227.768 
				38.102,226.672 42.445,222.806 41.722,217.036 46.741,219.972 			"/>
			<polygon fill="#FFFFFF" points="120.895,228.355 130.163,227.37 121.997,222.875 121.012,213.608 116.517,221.772 
				107.25,222.758 115.414,227.253 116.401,236.521 			"/>
			<circle fill="#FFFFFF" cx="83.667" cy="300.907" r="2.75"/>
			<circle fill="#FFFFFF" cx="28.998" cy="361.34" r="2.75"/>
			<polygon fill="#FFFFFF" points="107.25,349.256 109.26,353.329 113.754,353.982 110.502,357.153 111.27,361.629 107.25,359.516 
				103.229,361.629 103.998,357.153 100.745,353.982 105.24,353.329 			"/>
			<polygon fill="#FFFFFF" points="52.925,445.633 54.935,449.705 59.43,450.359 56.178,453.529 56.945,458.006 52.925,455.893 
				48.905,458.006 49.673,453.529 46.42,450.359 50.915,449.705 			"/>
			<polygon fill="#FFFFFF" points="109.328,499.471 108.087,505.15 112.063,509.393 106.278,509.969 103.472,515.061 
				101.136,509.736 95.426,508.641 99.769,504.775 99.045,499.005 104.065,501.94 			"/>
			<circle fill="#FFFFFF" cx="107.25" cy="421.154" r="2.75"/>
			<circle fill="#FFFFFF" cx="39" cy="526.919" r="2.75"/>
			<circle fill="#FFFFFF" cx="81" cy="589.663" r="2.75"/>
			<circle fill="#FFFFFF" cx="182.333" cy="345.549" r="2.75"/>
			<circle fill="#FFFFFF" cx="209.179" cy="298.157" r="2.75"/>
			<polygon fill="#FFFFFF" points="257.619,305.352 259.628,309.425 264.123,310.078 260.871,313.249 261.639,317.725 
				257.619,315.611 253.598,317.725 254.366,313.249 251.114,310.078 255.608,309.425 			"/>
			<circle fill="#FFFFFF" cx="185.083" cy="247.75" r="2.75"/>
			<circle fill="#FFFFFF" cx="218.848" cy="188.344" r="2.75"/>
			<polygon fill="#FFFFFF" points="271.521,225.53 270.28,231.21 274.256,235.453 268.471,236.028 265.665,241.121 263.329,235.796 
				257.619,234.7 261.961,230.834 261.238,225.064 266.258,228 			"/>
			<circle fill="#FFFFFF" cx="216.098" cy="125.89" r="2.75"/>
			<polygon fill="#FFFFFF" points="266.312,84.264 275.58,83.279 267.414,78.784 266.429,69.517 261.934,77.682 252.667,78.667 
				260.831,83.162 261.818,92.43 			"/>
			<polygon fill="#FFFFFF" points="160.319,11.314 162.329,15.387 166.824,16.04 163.572,19.21 164.339,23.687 160.319,21.573 
				156.299,23.687 157.067,19.21 153.814,16.04 158.309,15.387 			"/>
			<circle fill="#FFFFFF" cx="196.916" cy="60.984" r="2.75"/>
			<circle fill="#FFFFFF" cx="243.666" cy="14.75" r="2.75"/>
			<circle fill="#FFFFFF" cx="306.291" cy="40.5" r="2.75"/>
			<circle fill="#FFFFFF" cx="328.332" cy="205.14" r="2.75"/>
			<polygon fill="#FFFFFF" points="746.404,54.528 738.022,50.454 747.229,49 751.303,40.618 752.758,49.824 761.14,53.898 
				751.934,55.353 747.857,63.734 			"/>
			<polygon fill="#FFFFFF" points="657.01,86.243 655,90.316 650.506,90.969 653.758,94.14 652.99,98.616 657.01,96.502 
				661.031,98.616 660.263,94.14 663.516,90.969 659.021,90.316 			"/>
			<circle fill="#FFFFFF" cx="694.32" cy="40.5" r="2.75"/>
			<circle fill="#FFFFFF" cx="715.57" cy="98.616" r="2.75"/>
			<circle fill="#FFFFFF" cx="781.82" cy="14.75" r="2.75"/>
			<polygon fill="#FFFFFF" points="770.961,95.458 771.93,99.896 768.824,103.209 773.344,103.659 775.535,107.637 777.359,103.478 
				781.82,102.622 778.428,99.602 778.993,95.095 775.072,97.388 			"/>
			<circle fill="#FFFFFF" cx="746.831" cy="157.5" r="2.75"/>
			<circle fill="#FFFFFF" cx="663.516" cy="157.5" r="2.75"/>
			<polygon fill="#FFFFFF" points="752.316,217.501 753.557,223.182 749.581,227.424 755.366,228 758.172,233.092 760.508,227.768 
				766.219,226.672 761.875,222.806 762.599,217.036 757.579,219.972 			"/>
			<polygon fill="#FFFFFF" points="683.426,228.355 674.158,227.37 682.323,222.875 683.309,213.608 687.803,221.772 
				697.07,222.758 688.906,227.253 687.919,236.521 			"/>
			<circle fill="#FFFFFF" cx="720.654" cy="300.907" r="2.75"/>
			<circle fill="#FFFFFF" cx="775.322" cy="361.34" r="2.75"/>
			<polygon fill="#FFFFFF" points="697.07,349.256 695.061,353.329 690.566,353.982 693.818,357.153 693.051,361.629 
				697.07,359.516 701.091,361.629 700.322,357.153 703.575,353.982 699.08,353.329 			"/>
			<polygon fill="#FFFFFF" points="751.395,445.633 749.385,449.705 744.891,450.359 748.143,453.529 747.375,458.006 
				751.395,455.893 755.416,458.006 754.647,453.529 757.9,450.359 753.405,449.705 			"/>
			<polygon fill="#FFFFFF" points="694.992,499.471 696.232,505.15 692.258,509.393 698.043,509.969 700.849,515.061 
				703.184,509.736 708.895,508.641 704.552,504.775 705.275,499.005 700.256,501.94 			"/>
			<circle fill="#FFFFFF" cx="697.07" cy="421.154" r="2.75"/>
			<circle fill="#FFFFFF" cx="765.32" cy="526.919" r="2.75"/>
			<circle fill="#FFFFFF" cx="723.32" cy="589.663" r="2.75"/>
			<circle fill="#FFFFFF" cx="621.988" cy="345.549" r="2.75"/>
			<circle fill="#FFFFFF" cx="597.892" cy="280.38" r="2.75"/>
			<polygon fill="#FFFFFF" points="557.904,283.035 555.895,287.108 551.4,287.761 554.652,290.932 553.885,295.408 
				557.904,293.294 561.926,295.408 561.157,290.932 564.41,287.761 559.915,287.108 			"/>
			<circle fill="#FFFFFF" cx="619.238" cy="247.75" r="2.75"/>
			<circle fill="#FFFFFF" cx="585.473" cy="188.344" r="2.75"/>
			<polygon fill="#FFFFFF" points="518.451,242.938 519.692,248.618 515.717,252.861 521.502,253.437 524.309,258.529 
				526.644,253.204 532.354,252.108 528.012,248.243 528.734,242.473 523.715,245.408 			"/>
			<circle fill="#FFFFFF" cx="588.223" cy="125.89" r="2.75"/>
			<polygon fill="#FFFFFF" points="538.008,84.264 528.74,83.279 536.906,78.784 537.892,69.517 542.387,77.682 551.654,78.667 
				543.489,83.162 542.502,92.43 			"/>
			<polygon fill="#FFFFFF" points="644.001,11.314 641.991,15.387 637.496,16.04 640.748,19.21 639.98,23.687 644.001,21.573 
				648.021,23.687 647.254,19.21 650.506,16.04 646.012,15.387 			"/>
			<circle fill="#FFFFFF" cx="607.404" cy="60.984" r="2.75"/>
			<circle fill="#FFFFFF" cx="560.654" cy="14.75" r="2.75"/>
			<circle fill="#FFFFFF" cx="498.029" cy="40.5" r="2.75"/>
			<circle fill="#FFFFFF" cx="532.354" cy="154.75" r="2.75"/>
			<circle fill="#FFFFFF" cx="484.988" cy="283.035" r="2.75"/>
			<circle fill="#FFFFFF" cx="310.27" cy="277.63" r="2.75"/>
			<polygon fill="#FFFFFF" points="428.42,188.884 437.688,187.899 429.522,183.404 428.537,174.137 424.043,182.302 
				414.775,183.288 422.939,187.782 423.927,197.05 			"/>
			<circle fill="#FFFFFF" cx="492.572" cy="415.654" r="2.75"/>
			<circle fill="#FFFFFF" cx="420.46" cy="437.15" r="2.75"/>
			<circle fill="#FFFFFF" cx="318.752" cy="421.154" r="2.75"/>
			<polygon fill="#FFFFFF" points="389.152,466.697 387.911,472.378 391.886,476.621 386.101,477.196 383.294,482.289 
				380.959,476.964 375.25,475.868 379.591,472.002 378.869,466.232 383.888,469.168 			"/>
			<polygon fill="#FFFFFF" points="365.676,384.547 367.686,388.62 372.18,389.273 368.928,392.443 369.695,396.919 
				365.676,394.806 361.654,396.919 362.423,392.443 359.17,389.273 363.665,388.62 			"/>
			<polygon fill="#FFFFFF" points="350.041,316.559 352.051,320.631 356.545,321.285 353.293,324.455 354.061,328.931 
				350.041,326.818 346.02,328.931 346.788,324.455 343.535,321.285 348.03,320.631 			"/>
			<circle fill="#FFFFFF" cx="402.016" cy="311.539" r="2.75"/>
			<circle fill="#FFFFFF" cx="439.139" cy="271.009" r="2.75"/>
			<polygon fill="#FFFFFF" points="380.833,237.438 379.592,243.118 383.567,247.36 377.782,247.936 374.976,253.028 
				372.641,247.704 366.931,246.608 371.272,242.742 370.55,236.972 375.569,239.908 			"/>
			<circle fill="#FFFFFF" cx="489.822" cy="197.05" r="2.75"/>
			<circle fill="#FFFFFF" cx="441.889" cy="23.687" r="2.75"/>
			<polygon fill="#FFFFFF" points="444.639,57.548 446.648,61.621 451.144,62.274 447.892,65.445 448.659,69.921 444.639,67.808 
				440.618,69.921 441.386,65.445 438.134,62.274 442.628,61.621 			"/>
			<polygon fill="#FFFFFF" points="346.401,14.75 348.411,18.823 352.906,19.476 349.654,22.646 350.421,27.123 346.401,25.009 
				342.38,27.123 343.148,22.646 339.896,19.476 344.39,18.823 			"/>
			<polygon fill="#FFFFFF" points="362.128,62.358 360.888,68.038 364.864,72.281 359.079,72.856 356.273,77.949 353.937,72.624 
				348.226,71.528 352.57,67.663 351.846,61.893 356.866,64.828 			"/>
		</g>
	</g>
</g>
<g id="DESIGNED_BY_FREEPIK">
</g>
<g id="OBJECTS">
	<g>
		<g>
			<path fill="#F7D21C" d="M334.514,123.16c0,0,29.85-28.294,74.472-29.954c44.624-1.661,72.671,13.603,86.051,32.427
				c0,0-22.899-3.209-40.595,3.21c0,0,15.059,16.459,26.632,35.353c0,0-60.011-30.378-136.077-21.812L334.514,123.16z"/>
			<polygon fill="#FADF3A" points="313.361,94.504 332.507,121.592 365.675,121.174 345.829,147.755 356.476,179.171 
				325.065,168.51 298.477,188.344 298.908,155.175 271.83,136.018 303.507,126.178 			"/>
		</g>
		<g>
			<g>
				<path fill="#EACE2F" d="M423.59,522.426c-9.829-7.237-23.106-8.731-34.478-4.6c-11.086,4.024-19.511,13.461-22.813,24.696
					c-3.423,11.648-0.443,24.299,7.059,33.674c9.801,12.249,26.991,16.532,41.576,11.234c14.522-5.274,24.041-19.505,24.204-34.802
					C439.011,540.564,433.288,529.563,423.59,522.426z M416.376,581.717c-11.162,5.699-25.067,3.877-34.753-3.875
					c-9.702-7.764-13.885-20.676-11.16-32.702c2.7-11.903,12.358-21.157,24.076-24.073c20.212-5.032,39.699,11.157,39.915,31.559
					C434.32,565.013,427.396,576.091,416.376,581.717z"/>
				<g>
					<g>
						<circle fill="#B4DCE8" cx="402.015" cy="591.415" r="26.206"/>
						<g>
							<circle fill="#F4DC9A" cx="402.015" cy="591.415" r="20.936"/>
							<path fill="#F9C19B" d="M402.015,570.478c-11.562,0-20.936,9.374-20.936,20.938c0,0,14.891-4.158,20.936-17.942
								c0,0,7.262,17.942,20.937,17.942C422.951,579.852,413.577,570.478,402.015,570.478z"/>
						</g>
					</g>
					<g>
						<path fill="#AD7445" d="M405.938,596.584h-7.847h-59.515c0,0,4.688,61.28,20.008,66.154
							c12.045,3.835,34.414,4.754,43.429,4.38c9.016,0.374,31.385-0.545,43.429-4.38c15.322-4.874,20.008-66.154,20.008-66.154
							H405.938z"/>
						<path fill="#AD7445" d="M435.277,665.02c-4.729,0.765-9.871,1.295-14.793,1.642l-0.024,0.038l20.767,25.934h5.811
							l-11.623-27.554L435.277,665.02z"/>
						<path fill="#AD7445" d="M368.752,665.02l-0.139,0.06l-11.622,27.554h5.811l20.765-25.934l-0.024-0.038
							C378.622,666.314,373.481,665.784,368.752,665.02z"/>
					</g>
				</g>
			</g>
			<g>
				<g>
					<path fill="#EACE2F" d="M586.432,234.924c-21.488-15.818-50.514-19.083-75.369-10.054
						c-24.232,8.801-42.646,29.427-49.866,53.988c-7.483,25.463-0.97,53.117,15.431,73.609
						c21.427,26.777,59.003,36.138,90.888,24.558c31.746-11.531,52.551-42.641,52.906-76.077
						C620.142,274.576,607.633,250.53,586.432,234.924z M572.506,368.276c-25.837,13.19-58.02,8.972-80.437-8.967
						c-22.457-17.97-32.137-47.853-25.826-75.686c6.245-27.551,28.597-48.97,55.72-55.721c46.78-11.643,91.875,25.823,92.377,73.045
						C614.036,329.61,598.009,355.254,572.506,368.276z"/>
					<g>
						<path fill="#F4DC9A" d="M464.269,331.943c0,0,8.515,57.778,60.817,51.696C525.086,383.64,503.801,340.458,464.269,331.943z"/>
						<g>
							<path fill="#EFD48F" d="M456.08,460.105c10.76-23.646,41.844,10.83,41.844,10.83l-3.093,6.803l-3.096,6.799
								C491.735,484.537,445.32,483.751,456.08,460.105z"/>
							<g>
								<path fill="#7A461C" d="M418.451,375.936c0.018-2.205,0.037-1.649,0.465-3.708c0.735-3.52,2.16-6.818,4.582-9.502
									c6.596-7.31,20.467-6.713,27.037,0.179c5.675,5.953,5.144,14.91,5.144,22.49c0,24.003,0,48.009,0,72.013
									c0,66.648,0,133.294,0,199.944c0,1.747,0,3.496,0,5.242c0,7.845,12.164,7.845,12.164,0c0-57.744,0-115.488,0-173.234
									c0-31.065,0-62.131,0-93.196c0-4.545-0.163-9.123,0.077-13.662c0.907-17.163-7.867-34.558-26.361-36.678
									c-18.872-2.164-35.116,10.765-35.27,30.113C406.226,383.783,418.389,383.776,418.451,375.936L418.451,375.936z"/>
							</g>
							<path fill="#F4DC9A" d="M452.388,466.188c10.76-23.647,41.846,10.831,41.846,10.831l-3.096,6.802l-3.093,6.8
								C488.045,490.62,441.629,489.833,452.388,466.188z"/>
						</g>
						<path fill="#D6A454" d="M525.086,383.64c0,0-0.355-0.73-1.051-1.992l-2.598,2.44c0,0,4.865,57.523-12.975,63.204
							c-17.839,5.681-38.925-18.154-38.925-18.154s15.407,56.958,12.165,91.891c0,0,47.034,26.255,47.844,28.566
							c0.811,2.31-63.252,95.737-60.009,107.409c3.245,11.672,58.388,40.461,81.095,38.637c0,0,33.203-61.681,34.421-95.103
							C586.27,567.117,557.93,428.037,525.086,383.64z"/>
						<path fill="#7A461C" d="M464.269,331.943c0,0,0.863,5.838,3.716,13.605v0c0,0,8.707-3.573,14.254-6.258v-0.684
							C476.745,335.685,470.758,333.341,464.269,331.943z"/>
						<path fill="#7A461C" d="M492.572,377.574c0,0,10.621-13.802,17.108-16.234c0,0,9.477,11.2,14.354,20.308l-2.598,2.44
							c0,0-12.573,1.649-19.869-2.44c0,0,3.651-8.989,0.813-8.769c-2.838,0.22-6.878,6.295-6.878,6.295L492.572,377.574z"/>
						<path fill="#EAB465" d="M464.269,331.943c0,0-1.217-38.315,54.736-29.801c55.954,8.515,90.014,78.456,108.259,117.987
							c18.245,39.533,51.695,190.973,35.275,245.101c0,0,49.87,38.316,42.573,51.089c-7.299,12.771-105.825,3.648-154.479-20.679
							c0,0,15.812-58.443,17.029-91.865c1.216-33.421-9.732-175.738-42.576-220.136C525.086,383.64,505.625,343.499,464.269,331.943
							z"/>
					</g>
				</g>
				<g>
					<path fill="#EACE2F" d="M275.629,283.273c-21.488-15.818-50.513-19.082-75.369-10.054
						c-24.233,8.802-42.647,29.428-49.866,53.988c-7.484,25.463-0.969,53.117,15.429,73.609
						c21.427,26.776,59.003,36.137,90.886,24.558c31.747-11.53,52.553-42.64,52.909-76.078
						C309.338,322.925,296.829,298.879,275.629,283.273z M261.702,416.625c-25.835,13.19-58.017,8.973-80.436-8.967
						c-22.456-17.97-32.135-47.854-25.826-75.687c6.246-27.55,28.598-48.969,55.721-55.72
						c46.778-11.644,91.874,25.823,92.377,73.044C303.232,377.959,287.206,403.604,261.702,416.625z"/>
					<g>
						<g>
							<path fill="#EFD48F" d="M348.422,463.503c-10.759-23.646-41.844,10.83-41.844,10.83l3.094,6.802l3.096,6.8
								C312.768,487.935,359.182,487.148,348.422,463.503z"/>
							<path fill="#F4DC9A" d="M352.114,469.584c-10.759-23.646-41.844,10.831-41.844,10.831l3.095,6.803l3.094,6.799
								C316.458,494.017,362.874,493.23,352.114,469.584z"/>
							<path fill="#89CAC4" d="M295.141,591.389c-18.011-12.347-31.018-31.627-31.018-31.627
								c10.947,2.434,34.059-1.823,50.479-27.367s3.041-84.367,3.041-84.367s-12.772,8.951-35.883,10.775
								c-23.111,1.825-20.239-21.652-20.239-21.652l-0.024,0.064C256.215,460.064,243.5,484.887,243.5,505
								c0,47.438,37.652,158.154,10.892,187.348c-5.277,5.756-13.977,9.52-24.528,11.865
								c46.676-3.146,103.608-12.882,115.148-38.626C352.918,647.95,325.836,612.428,295.141,591.389z"/>
						</g>
						<g>
							<g>
								<path fill="#F4DC9A" d="M306.291,372.035c0,0,6.487,42.167-42.167,56.765C264.123,428.8,264.124,376.9,306.291,372.035z"/>
								<path fill="#985415" d="M306.291,372.035c-12.346,1.424-21.074,6.884-27.249,13.889c-0.623,4.833-1.14,9.069-1.14,9.069
									s20.287-1.804,28.392-12.583C306.934,376.221,306.291,372.035,306.291,372.035z"/>
								<path fill="#91E2D8" d="M306.291,372.035c0,0,1.216-31.22-42.167-38.113c-43.384-6.894-103.798,57.713-125.692,143.735
									c-21.895,86.023,15.002,170.199,2.838,187.229S107,683.667,113.11,696.646c5.262,11.177,114.521,24.896,141.282-4.298
									s0-139.883,0-187.321C254.392,457.587,264.529,383.793,306.291,372.035z"/>
							</g>
							<path fill="#DCF4F0" d="M306.291,372.035c0,0-28.382,0.886-42.167,28.382c-13.786,27.495-78.582,122.521-132.546,126.502
								c0,0-5.695-83.104,48.643-143.406c54.338-60.301,81.797-55.197,99.748-47.218
								C303.872,346.919,306.287,361.66,306.291,372.035z"/>
						</g>
					</g>
				</g>
			</g>
		</g>
	</g>
</g>
</svg>
