<?xml version="1.0" encoding="utf-8"?>
<!-- Generator: Adobe Illustrator 16.0.0, SVG Export Plug-In . SVG Version: 6.00 Build 0)  -->
<!DOCTYPE svg PUBLIC "-//W3C//DTD SVG 1.1//EN" "http://www.w3.org/Graphics/SVG/1.1/DTD/svg11.dtd">
<svg version="1.1" id="Layer_1" xmlns="http://www.w3.org/2000/svg" xmlns:xlink="http://www.w3.org/1999/xlink" x="0px" y="0px"
	 width="512px" height="512px" viewBox="0 0 512 512" enable-background="new 0 0 512 512" xml:space="preserve">
<g opacity="0.15">
	<path fill="#BCBCBC" d="M286.902,329.957c-5.545,0-10.053,4.498-10.053,10.053c0,5.551,4.508,10.055,10.053,10.055
		c5.556,0,10.063-4.504,10.063-10.055C296.965,334.455,292.457,329.957,286.902,329.957z"/>
	<path fill="#BCBCBC" d="M286.902,358.033c-5.545,0-10.053,4.508-10.053,10.053c0,5.555,4.508,10.059,10.053,10.059
		c5.556,0,10.063-4.504,10.063-10.059C296.965,362.541,292.457,358.033,286.902,358.033z"/>
	<path fill="#BCBCBC" d="M286.902,386.111c-5.545,0-10.053,4.51-10.053,10.055c0,5.549,4.508,10.053,10.053,10.053
		c5.556,0,10.063-4.504,10.063-10.053C296.965,390.621,292.457,386.111,286.902,386.111z"/>
	<path fill="#BCBCBC" d="M423.302,304.906h-23.443v0.016c0,0-0.082-0.016-0.123-0.016c-4.385,0-7.938,3.404-8.257,7.697
		l-0.01,71.574c-7.435-9.961-18.648-16.914-31.494-18.777v-18.803h6.089c1.961,3.477,5.638,5.848,9.909,5.848
		c6.306,0,11.419-5.113,11.419-11.412c0-6.311-5.113-11.414-11.419-11.414c-4.271,0-7.948,2.371-9.909,5.842h-6.09v-9.754
		c3.307-2.219,5.484-6.002,5.484-10.291c0-6.838-5.546-12.383-12.385-12.383s-12.384,5.545-12.384,12.383
		c0,4.287,2.188,8.068,5.493,10.291v9.754h-0.021h-6.15c-1.951-3.471-5.628-5.842-9.898-5.842c-6.306,0-11.42,5.104-11.42,11.414
		c0,6.299,5.113,11.414,11.42,11.414c4.271,0,7.947-2.373,9.898-5.848h6.15h0.021V365.4c-12.897,1.863-24.132,8.861-31.546,18.859
		l-0.02-71.656c-0.319-4.293-3.872-7.697-8.246-7.697c-0.052,0-0.082,0.016-0.134,0.016v-0.016h-23.443v11.373h14.941v138.285
		h110.625V316.279h14.941V304.906L423.302,304.906z M353.042,450.893c-5.986,0-10.844-4.85-10.844-10.844
		c0-5.986,4.857-10.844,10.844-10.844c5.987,0,10.845,4.857,10.845,10.844C363.887,446.041,359.03,450.893,353.042,450.893z
		 M384.065,425.684h-62.044L322,411.502c0-17.16,13.894-31.078,31.042-31.078s31.043,13.918,31.043,31.078L384.065,425.684z"/>
	<path fill="#BCBCBC" d="M409.141,340.01c0,5.551,4.498,10.055,10.043,10.055c5.556,0,10.063-4.504,10.063-10.055
		c0-5.555-4.508-10.053-10.063-10.053C413.639,329.957,409.141,334.455,409.141,340.01z"/>
	<path fill="#BCBCBC" d="M419.184,358.033c-5.545,0-10.043,4.508-10.043,10.053c0,5.555,4.498,10.059,10.043,10.059
		c5.556,0,10.063-4.504,10.063-10.059C429.247,362.541,424.74,358.033,419.184,358.033z"/>
	<path fill="#BCBCBC" d="M419.184,386.111c-5.545,0-10.043,4.51-10.043,10.055c0,5.549,4.498,10.053,10.043,10.053
		c5.556,0,10.063-4.504,10.063-10.053C429.247,390.621,424.74,386.111,419.184,386.111z"/>
</g>
<g opacity="0.15">
	<g>
		<path fill="#BCBCBC" d="M194.658,177.491c0-4.106-3.359-7.471-7.475-7.471h-97.88c-4.112,0-7.471,3.361-7.471,7.471v225.172
			c0,0.211,0.042,0.405,0.059,0.609c-0.033,0.291-0.059,0.589-0.059,0.89c0,11.449,25.26,20.729,56.413,20.729
			c31.156,0,56.413-9.285,56.413-20.729c0-0.301-0.026-0.595-0.059-0.89c0.011-0.204,0.059-0.398,0.059-0.609V177.491z
			 M167.107,285.014h-19.302v38.607h-15.444v-38.607h-19.306V269.57h19.306v-15.702h15.444v15.702h19.302V285.014z"/>
		<ellipse fill="#BCBCBC" cx="138.245" cy="172.604" rx="56.413" ry="12.668"/>
		<g>
			<path fill="#BCBCBC" d="M157.284,139.325c0,10.513-8.526,19.041-19.039,19.041c-10.517,0-19.039-8.528-19.039-19.041
				c0-10.516,8.521-48.217,19.039-48.217C148.758,91.108,157.284,128.809,157.284,139.325z"/>
			<path fill="#FFFFFF" d="M149.58,147.023c0,6.262-5.074,11.342-11.339,11.342c-6.264,0-11.339-5.08-11.339-11.342
				c0-6.257,5.075-28.716,11.339-28.716C144.506,118.307,149.58,140.766,149.58,147.023z"/>
		</g>
		
			<line fill="#BCBCBC" stroke="#939393" stroke-width="0.9146" stroke-linecap="round" stroke-linejoin="round" stroke-miterlimit="10" x1="138.245" y1="147.604" x2="138.245" y2="166.285"/>
	</g>
</g>
<polygon opacity="0.15" fill="#BBBBBB" points="431.173,137.206 370.268,126.457 392.906,103.82 386.433,97.347 363.796,119.984 
	353.048,59.081 342.3,119.983 319.663,97.348 313.191,103.82 335.827,126.457 274.923,137.206 335.825,147.953 313.19,170.589 
	319.663,177.062 342.299,154.426 353.048,215.331 363.796,154.425 386.433,177.062 392.906,170.589 370.27,147.953 "/>
</svg>
