<?xml version="1.0" encoding="utf-8"?>
<!-- Generator: Adobe Illustrator 16.0.0, SVG Export Plug-In . SVG Version: 6.00 Build 0)  -->
<!DOCTYPE svg PUBLIC "-//W3C//DTD SVG 1.1//EN" "http://www.w3.org/Graphics/SVG/1.1/DTD/svg11.dtd">
<svg version="1.1" id="Capa_1" xmlns="http://www.w3.org/2000/svg" xmlns:xlink="http://www.w3.org/1999/xlink" x="0px" y="0px"
	 width="306px" height="306px" viewBox="0 0 306 306" enable-background="new 0 0 306 306" xml:space="preserve">
<g>
	<path d="M9.202,148.469H296.8c2.509,0,4.545,2.036,4.545,4.545s-2.036,4.546-4.545,4.546H9.202c-2.509,0-4.546-2.037-4.546-4.546
		S6.693,148.469,9.202,148.469z"/>
	<path d="M123.177,34.502c1.164,0,2.327,0.445,3.219,1.327c1.772,1.772,1.772,4.655,0,6.428L15.63,153.023l110.767,110.73
		c1.772,1.772,1.772,4.654,0,6.427c-1.773,1.773-4.655,1.773-6.428,0L5.993,156.241c-0.854-0.854-1.327-2.009-1.327-3.218
		c0-1.208,0.481-2.364,1.327-3.218L119.969,35.839C120.85,34.947,122.013,34.502,123.177,34.502z"/>
</g>
</svg>
