<?xml version='1.0' encoding='iso-8859-1'?>
<svg version="1.1" xmlns="http://www.w3.org/2000/svg" viewBox="0 0 489.597 489.597" xmlns:xlink="http://www.w3.org/1999/xlink" enable-background="new 0 0 489.597 489.597">
  <path d="m181.797,474.597c0,8.284-6.716,15-15,15h-1.998c-8.284,0-15-6.716-15-15s6.716-15 15-15h1.998c8.285,0 15,6.716 15,15zm228.001-257.097v76.774c0,23.39-19.029,42.419-42.419,42.419h-0.306c-6.309,19.09-24.321,32.904-45.498,32.904h-61.775v50h85c8.284,0 15,6.716 15,15s-6.716,15-15,15h-200.002c-8.284,0-15-6.716-15-15s6.716-15 15-15h85.001v-50h-61.777c-21.176,0-39.188-13.814-45.496-32.904h-0.308c-23.39,0-42.419-19.029-42.419-42.419v-76.774c0-23.39 19.029-42.419 42.419-42.419h20.082v-61.645c0-21.022 13.624-38.922 32.5-45.324v-20.613c0-26.191 21.531-47.499 47.996-47.499h44.005c26.467,0 47.999,21.308 47.999,47.499v20.614c18.876,6.402 32.5,24.302 32.5,45.324v61.645h20.079c23.39-0.001 42.419,19.028 42.419,42.418zm-267.498-12.419h-20.083c-6.848,0-12.419,5.571-12.419,12.419v76.774c0,6.215 4.59,11.378 10.558,12.28 1.504-13.317 10.119-24.513 21.944-29.687v-71.786zm62.5-139.484h80v-18.098c0-9.649-8.074-17.499-17.999-17.499h-44.005c-9.923,0-17.996,7.85-17.996,17.499v18.098zm-32.5,208.193h145v-160.353c0-9.837-7.991-17.84-17.813-17.84h-109.375c-9.821,0-17.812,8.003-17.812,17.84v160.353zm167.177,36.937c0-3.76-3.177-6.937-6.938-6.937h-175.482c-3.759,0-6.936,3.177-6.936,6.937v10.966 0.001c0,9.872 8.03,17.902 17.9,17.902h153.553c9.872,0 17.902-8.031 17.902-17.902v-10.967zm40.322-93.227c0-6.848-5.571-12.419-12.419-12.419h-20.079v71.787c11.825,5.175 20.438,16.369 21.942,29.685 5.967-0.901 10.556-6.064 10.556-12.279v-76.774zm-54.998,242.097h-2c-8.284,0-15,6.716-15,15s6.716,15 15,15h2c8.284,0 15-6.716 15-15s-6.716-15-15-15z"/>
</svg>
