<?xml version="1.0" encoding="utf-8"?>
<!-- Generator: Adobe Illustrator 16.0.0, SVG Export Plug-In . SVG Version: 6.00 Build 0)  -->
<!DOCTYPE svg PUBLIC "-//W3C//DTD SVG 1.1//EN" "http://www.w3.org/Graphics/SVG/1.1/DTD/svg11.dtd">
<svg version="1.1" id="Capa_1" xmlns="http://www.w3.org/2000/svg" xmlns:xlink="http://www.w3.org/1999/xlink" x="0px" y="0px"
	 width="306px" height="306px" viewBox="0 0 306 306" enable-background="new 0 0 306 306" xml:space="preserve">
<g>
	<path d="M296.799,157.543H9.201c-2.509,0-4.545-2.036-4.545-4.545c0-2.509,2.036-4.546,4.545-4.546h287.598
		c2.509,0,4.546,2.037,4.546,4.546C301.345,155.507,299.308,157.543,296.799,157.543z"/>
	<path d="M182.823,271.51c-1.164,0-2.327-0.445-3.219-1.327c-1.772-1.772-1.772-4.655,0-6.428l110.767-110.766L179.605,42.259
		c-1.772-1.772-1.772-4.654,0-6.427c1.773-1.773,4.655-1.773,6.428,0l113.976,113.939c0.854,0.854,1.327,2.009,1.327,3.218
		c0,1.208-0.481,2.364-1.327,3.218L186.032,270.173C185.151,271.064,183.988,271.51,182.823,271.51z"/>
</g>
</svg>
