<?xml version="1.0" encoding="utf-8"?>
<!-- Generator: Adobe Illustrator 16.0.0, SVG Export Plug-In . SVG Version: 6.00 Build 0)  -->
<!DOCTYPE svg PUBLIC "-//W3C//DTD SVG 1.1//EN" "http://www.w3.org/Graphics/SVG/1.1/DTD/svg11.dtd">
<svg version="1.1" id="Layer_1" xmlns="http://www.w3.org/2000/svg" xmlns:xlink="http://www.w3.org/1999/xlink" x="0px" y="0px"
	 width="512px" height="512px" viewBox="0 0 512 512" enable-background="new 0 0 512 512" xml:space="preserve">
<path fill="#F5F1D5" d="M90,66h332v390H90V66z"/>
<path fill="#F2845C" d="M60,426h392v60H60V426z"/>
<g>
	<path fill="#4A849F" d="M150,156h212v30H150V156z"/>
	<path fill="#4A849F" d="M150,216h212v30H150V216z"/>
	<path fill="#4A849F" d="M150,276h212v30H150V276z"/>
	<path fill="#4A849F" d="M150,336h212v30H150V336z"/>
</g>
<path fill="#F2845C" d="M60,36h392v60H60V36z"/>
<path fill="#4A849F" d="M30,486c-16.57,0-30-13.43-30-30s13.43-30,30-30c16.568,0,30,13.43,30,30S46.571,486,30,486z"/>
<path fill="#4A849F" d="M30,96C13.43,96,0,82.57,0,66s13.43-30,30-30c16.568,0,30,13.43,30,30S46.571,96,30,96z"/>
<path fill="#4A849F" d="M482,486c-16.57,0-30-13.43-30-30s13.43-30,30-30c16.568,0,30,13.43,30,30S498.571,486,482,486z"/>
<path fill="#4A849F" d="M482,96c-16.57,0-30-13.43-30-30s13.43-30,30-30c16.568,0,30,13.43,30,30S498.571,96,482,96z"/>
</svg>
