<?xml version="1.0" encoding="utf-8"?>
<!-- Generator: Adobe Illustrator 16.0.0, SVG Export Plug-In . SVG Version: 6.00 Build 0)  -->
<!DOCTYPE svg PUBLIC "-//W3C//DTD SVG 1.1//EN" "http://www.w3.org/Graphics/SVG/1.1/DTD/svg11.dtd">
<svg version="1.1" id="Layer_1" xmlns="http://www.w3.org/2000/svg" xmlns:xlink="http://www.w3.org/1999/xlink" x="0px" y="0px"
	 width="512px" height="512px" viewBox="0 0 512 512" enable-background="new 0 0 512 512" xml:space="preserve">
<path fill="#F2845C" d="M451,0v422l-330,30L91,207.598L121,0H451z"/>
<path fill="#FFFFFF" d="M391,150v60h-75v152h-60V210h-75v-60h75V90h60v60H391z"/>
<path fill="#4A849F" d="M451,452v-30H286H121V0h-15C81.149,0,61,20.148,61,45v422c0,24.898,20.098,45,45,45h180h165v-30
	c-8.402,0-24-6.602-24-15C427,458.598,442.598,452,451,452z"/>
<path fill="#EDE9E8" d="M436,467c0-8.402,6.598-15,15-15H286H106c-8.402,0-15,6.598-15,15c0,8.398,6.598,15,15,15h180h165
	C442.598,482,436,475.398,436,467z"/>
</svg>
