<?xml version="1.0" encoding="utf-8"?>
<!-- Generator: Adobe Illustrator 16.0.0, SVG Export Plug-In . SVG Version: 6.00 Build 0)  -->
<!DOCTYPE svg PUBLIC "-//W3C//DTD SVG 1.1//EN" "http://www.w3.org/Graphics/SVG/1.1/DTD/svg11.dtd">
<svg version="1.1" id="Layer_1" xmlns="http://www.w3.org/2000/svg" xmlns:xlink="http://www.w3.org/1999/xlink" x="0px" y="0px"
	 width="512px" height="512px" viewBox="0 0 512 512" enable-background="new 0 0 512 512" xml:space="preserve">
<linearGradient id="SVGID_1_" gradientUnits="userSpaceOnUse" x1="78.8079" y1="844.6748" x2="382.7183" y2="540.7642" gradientTransform="matrix(1 0 0 1 -83.2002 -328.6797)">
	<stop  offset="0" style="stop-color:#FFFFFF"/>
	<stop  offset="0.2034" style="stop-color:#FCFCFC"/>
	<stop  offset="0.344" style="stop-color:#F3F3F3"/>
	<stop  offset="0.4657" style="stop-color:#E4E4E4"/>
	<stop  offset="0.5767" style="stop-color:#CFCECE"/>
	<stop  offset="0.6803" style="stop-color:#B3B2B2"/>
	<stop  offset="0.7786" style="stop-color:#918F8F"/>
	<stop  offset="0.8708" style="stop-color:#696767"/>
	<stop  offset="0.8932" style="stop-color:#5E5C5C"/>
</linearGradient>
<polyline opacity="0.2" fill="url(#SVGID_1_)" enable-background="new    " points="111.867,632.255 366.804,369.172 
	334.722,327.368 276.224,364.746 278.056,261.979 311.578,224.145 268.607,208.489 239.522,164.885 162.945,119.771 
	-111.974,391.055 "/>
<g>
	<g>
		<g>
			<path fill="#DFBC74" d="M359.306,110.665H182.668h-2.198c-0.359,0-0.707,0.046-1.044,0.12c-6.131,0.41-11.385,1.95-14.593,4.128
				c-2.105,1.427-3.342,3.119-3.342,4.938c0,3.993,5.881,7.379,14.077,8.646v0.031h0.186h13.825h174.565
				c2.76,0,0.06,2.257,0.06,5.018V119.72v-4.155C364.204,112.871,362.001,110.665,359.306,110.665z"/>
			<path fill="#AC9576" d="M164.833,114.912c-1.946,0.739-3.342,2.612-3.342,4.808v0.13
				C161.492,118.031,162.729,116.339,164.833,114.912z"/>
			<path fill="#FFFFFF" d="M354.391,117.31H189.592h-2.049c-0.335,0-0.662,0.041-0.977,0.112c-5.721,0.38-10.625,1.822-13.614,3.853
				c-1.967,1.33-3.117,2.91-3.117,4.604c0,3.725,5.485,6.887,13.133,8.07v0.025h0.173h12.9h162.862c2.577,0,0.049,2.107,0.049,4.681
				v-12.896v-3.878C358.954,119.366,356.903,117.31,354.391,117.31z"/>
			<path fill="#E32726" d="M364.146,128.526H189.58h-13.825h-0.186v-0.031c-8.196-1.266-14.077-4.652-14.077-8.646v13.694V378.52
				c0,3.885,5.573,7.188,13.428,8.531c0.219,0.035,0.428,0.076,0.649,0.11v0.026h0.186h13.825h174.565
				c0.023,0,0.036,0.008,0.06,0.008v-0.153c2.729-0.026,4.96-2.271,4.96-5.011v-0.135v-12.262V133.544
				C369.164,130.784,366.906,128.526,364.146,128.526z"/>
		</g>
		<path fill="#FFB93E" d="M295.657,220.233h-14.688c-1.619,0-2.943-1.323-2.943-2.938v-18.692c0-1.619-1.318-2.938-2.936-2.938
			h-19.522c-1.615,0-2.937,1.319-2.937,2.938v18.692c0,1.615-1.325,2.938-2.943,2.938h-14.687c-1.618,0-2.94,1.322-2.94,2.94v19.521
			c0,1.612,1.322,2.936,2.94,2.936h14.687c1.619,0,2.943,1.324,2.943,2.94v44.091c0,1.614,1.32,2.94,2.937,2.94h19.522
			c1.615,0,2.936-1.326,2.936-2.94V248.57c0-1.616,1.324-2.94,2.943-2.94h14.688c1.614,0,2.938-1.323,2.938-2.936v-19.521
			C298.596,221.556,297.273,220.233,295.657,220.233z"/>
	</g>
	<rect x="189.58" y="113.274" fill="#E32726" width="38.563" height="11.333"/>
</g>
</svg>
