<?xml version="1.0" encoding="utf-8"?>
<!-- Generator: Adobe Illustrator 16.0.0, SVG Export Plug-In . SVG Version: 6.00 Build 0)  -->
<!DOCTYPE svg PUBLIC "-//W3C//DTD SVG 1.1//EN" "http://www.w3.org/Graphics/SVG/1.1/DTD/svg11.dtd">
<svg version="1.1" id="Layer_1" xmlns="http://www.w3.org/2000/svg" xmlns:xlink="http://www.w3.org/1999/xlink" x="0px" y="0px"
	 width="512px" height="512px" viewBox="0 0 512 512" enable-background="new 0 0 512 512" xml:space="preserve">
<path fill="#F2845C" d="M361,61v60h-75v150h-60V121h-75V61h75V0h60v61H361z"/>
<path fill="#F5F1D5" d="M210.399,309.098L142,240.699c-12.853-12.207-31.336-10.965-42.301,0c-10.914,10.914-12.259,29.402,0,42.301
	l51.901,52.5l-21,21l-56.401-56.402C65.801,291.699,61,280.602,61,268.598c0-3.746,0-151.195,0-147.598c0-16.57-13.431-30-30-30
	c-16.57,0-31,13.43-31,30v150.598c0.301,44.103,23.199,87,61.301,117.603L91,413.2V512h150c0-5.281,0-136.879,0-128.801
	C241,355.301,230.199,328.898,210.399,309.098z"/>
<path fill="#F5F1D5" d="M301.602,309.098L370,240.699c12.852-12.207,31.336-10.965,42.301,0c10.914,10.914,12.258,29.402,0,42.301
	l-51.902,52.5l21,21l56.402-56.402c8.397-8.397,13.199-19.496,13.199-31.5c0-3.746,0-151.195,0-147.598c0-16.57,13.43-30,30-30
	c16.569,0,31,13.43,31,30v150.598c-0.302,44.103-23.199,87.004-61.302,117.603L421,413.2V512H271c0-5.281,0-136.879,0-128.801
	C271,355.301,281.801,328.898,301.602,309.098z"/>
</svg>
