<?xml version="1.0" encoding="iso-8859-1"?>
<!-- Generator: Adobe Illustrator 19.0.0, SVG Export Plug-In . SVG Version: 6.00 Build 0)  -->
<svg version="1.1" id="Layer_1" xmlns="http://www.w3.org/2000/svg" xmlns:xlink="http://www.w3.org/1999/xlink" x="0px" y="0px"
	 viewBox="0 0 512 512" style="enable-background:new 0 0 512 512;" xml:space="preserve">
<g>
	<rect x="10.199" y="43.765" style="fill:#FFAD61;" width="212.755" height="424.47"/>
	<rect x="222.955" y="197.65" style="fill:#FFAD61;" width="278.846" height="270.585"/>
</g>
<rect x="272.441" y="293.696" style="fill:#F2F2F2;" width="179.873" height="174.539"/>
<g>
	<rect x="73.2" y="290.596" style="fill:#72BEDE;" width="86.754" height="114.639"/>
	<rect x="73.2" y="106.765" style="fill:#72BEDE;" width="86.754" height="114.639"/>
</g>
<g>
	<path style="fill:#534741;" d="M501.801,478.435c5.632,0,10.199-4.567,10.199-10.199V197.648c0-5.632-4.567-10.199-10.199-10.199
		h-268.65V43.764c0-5.632-4.567-10.199-10.199-10.199H10.199C4.567,33.565,0,38.132,0,43.764v424.473
		c0,5.632,4.567,10.199,10.199,10.199H501.801z M212.752,458.037H20.398V53.963h192.354V458.037z M282.64,348.305h159.471v22.462
		H282.64V348.305z M442.112,327.906H282.64v-24.011h159.471v24.011H442.112z M282.64,458.037v-24.012h101.424
		c5.632,0,10.199-4.567,10.199-10.199c0-5.632-4.567-10.199-10.199-10.199H282.64v-22.461h159.471v66.871H282.64z M491.602,458.037
		H462.51V293.696c0-5.632-4.567-10.199-10.199-10.199h-179.87c-5.632,0-10.199,4.567-10.199,10.199v164.341h-29.091v-250.19h258.451
		V458.037z"/>
	<path style="fill:#534741;" d="M159.952,280.399H73.198c-5.632,0-10.199,4.567-10.199,10.199v114.638
		c0,5.632,4.567,10.199,10.199,10.199h86.754c5.632,0,10.199-4.567,10.199-10.199V290.598
		C170.151,284.965,165.585,280.399,159.952,280.399z M83.398,300.797h22.978v94.24H83.398V300.797z M149.753,395.037h-22.979v-94.24
		h22.979V395.037z"/>
	<path style="fill:#534741;" d="M159.952,96.565H73.198c-5.632,0-10.199,4.567-10.199,10.199v114.638
		c0,5.632,4.567,10.199,10.199,10.199h86.754c5.632,0,10.199-4.567,10.199-10.199V106.764
		C170.151,101.131,165.585,96.565,159.952,96.565z M83.398,116.963h22.978v94.24H83.398V116.963z M149.753,211.203h-22.979v-94.24
		h22.979V211.203z"/>
	<path style="fill:#534741;" d="M419.178,413.627h-3.097c-5.632,0-10.199,4.567-10.199,10.199c0,5.632,4.567,10.199,10.199,10.199
		h3.097c5.632,0,10.199-4.567,10.199-10.199C429.377,418.194,424.811,413.627,419.178,413.627z"/>
</g>
<g>
</g>
<g>
</g>
<g>
</g>
<g>
</g>
<g>
</g>
<g>
</g>
<g>
</g>
<g>
</g>
<g>
</g>
<g>
</g>
<g>
</g>
<g>
</g>
<g>
</g>
<g>
</g>
<g>
</g>
</svg>
