<?xml version="1.0" encoding="utf-8"?>
<!-- Generator: Adobe Illustrator 16.0.0, SVG Export Plug-In . SVG Version: 6.00 Build 0)  -->
<!DOCTYPE svg PUBLIC "-//W3C//DTD SVG 1.1//EN" "http://www.w3.org/Graphics/SVG/1.1/DTD/svg11.dtd">
<svg version="1.1" id="Layer_1" xmlns="http://www.w3.org/2000/svg" xmlns:xlink="http://www.w3.org/1999/xlink" x="0px" y="0px"
	 width="540.497px" height="360.661px" viewBox="-15.089 75.762 540.497 360.661"
	 enable-background="new -15.089 75.762 540.497 360.661" xml:space="preserve">
<g opacity="0.2">
	<path fill="#2B3278" d="M0.146,278.141l11.945-74.987l0.01-0.024c3.627,24.879,7.978,50.105,11.947,75.011H12.091H0.146
		L0.146,278.141z"/>
	<path fill="#2B3278" d="M86.372,220.979h-7.277h-0.561h-3.521h-0.545h-8.879c-2.406-19.281-4.92-38.698-7.232-58v-0.009
		c-0.715-5.9-1.399-11.789-2.059-17.658l-0.246,1.988l-0.01,0.067l-1.765,14.354l-0.551,4.479l-6.738,54.778h-9.372h-4.074h-0.554
		h-7.256l3.015,60.838l0.069,73.408h4.172h0.554h4.074h16.11h0.551h1.765h0.01h2.305h16.111h0.545h3.521h0.561h4.408l-0.053-73.408
		L86.372,220.979z M53.728,208.262c0.178-0.102,0.361-0.195,0.551-0.276c0.55-0.242,1.146-0.392,1.765-0.441h0.01
		c0.133-0.009,0.271-0.013,0.41-0.013c0.66,0,1.303,0.116,1.895,0.334c2.082,0.771,3.566,2.773,3.566,5.128
		c0,2.351-1.484,4.355-3.566,5.124c-0.592,0.22-1.233,0.336-1.895,0.336c-0.139,0-0.277-0.004-0.41-0.016h-0.01
		c-0.619-0.047-1.215-0.196-1.765-0.439c-0.188-0.08-0.373-0.176-0.551-0.277c-1.631-0.943-2.731-2.709-2.731-4.728
		C50.995,210.973,52.097,209.204,53.728,208.262z M35.05,352.636h-1.508h-0.554h-2.034v-0.844l-0.027-0.004
		c0,0,0.258-15.365,1.059-29.695h1.005h0.553h1.508L35.05,352.636L35.05,352.636z M35.05,321.346h-1.508h-0.554h-0.961
		c0.263-4.511,0.578-8.89,0.961-12.619c0.169-1.664,0.354-3.205,0.554-4.568c0.434-2.988,0.93-5.131,1.508-5.949V321.346z
		 M39.7,352.636h-2.084h-2.082v-30.543h2.082h1.01c0.705,12.418,0.979,25.615,1.045,28.896H39.7V352.636z M38.581,321.346h-0.965
		h-2.082v-23.179c0.85,1.125,1.53,5.11,2.082,10.442v0.011C38.003,312.374,38.321,316.788,38.581,321.346z M55.788,352.636h-1.511
		h-0.551h-2.035v-0.844l-0.022-0.004c0,0,0.25-15.365,1.057-29.695h1.002h0.551h1.511L55.788,352.636L55.788,352.636z
		 M55.788,321.346h-1.511h-0.551h-0.959c0.26-4.517,0.576-8.9,0.959-12.634c0.172-1.662,0.355-3.196,0.551-4.555
		c0.431-2.988,0.938-5.132,1.511-5.949V321.346z M60.438,352.636h-2.082h-2.088v-30.543h2.088h1.015
		c0.692,12.418,0.975,25.615,1.039,28.896h0.028V352.636z M59.321,321.346h-0.965h-2.088v-23.179
		c0.851,1.125,1.535,5.11,2.088,10.442v0.011C58.741,312.374,59.062,316.788,59.321,321.346z M64.532,277.398v-29.536l-3.367-12.307
		l-2.81,10.266v0.006l-0.563,2.035l0.045,29.536h-1.787h-0.01h-1.765h-0.551h-0.621v-29.536l-3.364-12.307l-3.373,12.307
		l0.045,29.536h-4.73v-29.536l-3.369-12.307l-0.696,2.553v0.006l-2.681,9.748l0.056,29.536h-1.138l-0.313-6.567l-0.554-11.461
		l-1.504-31.212l1.504-0.008l0.554-0.003l4.074-0.026l16.11-0.094l0.551-0.002l1.765-0.011h0.01l2.305-0.013l16.111-0.098h0.545
		l3.521-0.022l0.561-0.003l1.521-0.008l-1.521,24.121l-0.561,8.808l-1.052,16.6H75.96v-29.536l-0.947-3.457l-0.545-2.016
		l-1.871-6.834l-3.375,12.307l0.047,29.536H64.532z M80.06,321.346h-0.965h-0.561h-1.523v-23.179
		c0.578,0.772,1.086,2.896,1.523,5.879c0.202,1.363,0.387,2.904,0.561,4.574C79.478,312.374,79.794,316.79,80.06,321.346z
		 M76.526,352.636h-1.514h-0.545H72.43v-0.844l-0.022-0.004c0,0,0.247-15.365,1.051-29.695h1.01h0.545h1.514L76.526,352.636
		L76.526,352.636z M76.526,321.346h-1.514h-0.545h-0.963c0.26-4.517,0.578-8.896,0.963-12.625c0.17-1.664,0.354-3.199,0.545-4.563
		c0.438-2.988,0.939-5.132,1.514-5.949V321.346z M81.175,352.636h-2.08h-0.561h-1.523v-30.543h1.523h0.561h1.01
		c0.699,12.418,0.979,25.615,1.043,28.896h0.027V352.636z"/>
	<path fill="#2B3278" d="M88.118,278.141l11.95-74.987l0.007-0.024c3.629,24.879,7.981,50.105,11.944,75.011h-11.951H88.118
		L88.118,278.141z"/>
	<path fill="#2B3278" d="M489.558,404.734h-2.603v-35.146l2.603-1.039l13.85-5.539v-78.518h-12.716v-6.584l12.093-1.841
		l-13.227-5.457l-1.023-0.42v-6.586l1.023-0.221l10.859-2.363c-0.585-0.444-1.184-0.959-1.781-1.502
		c-0.154-0.139-0.308-0.283-0.464-0.428c-0.581-0.549-1.171-1.131-1.763-1.763c-0.018-0.021-0.041-0.038-0.06-0.063
		c-0.598-0.64-1.197-1.338-1.799-2.058c-0.16-0.196-0.325-0.393-0.49-0.592c-0.578-0.706-1.145-1.43-1.718-2.19
		c-0.038-0.057-0.083-0.109-0.124-0.166c-0.581-0.783-1.156-1.609-1.734-2.447c-0.166-0.245-0.334-0.494-0.502-0.742
		c-0.143-0.215-0.281-0.433-0.426-0.65c-0.2-0.306-0.393-0.615-0.59-0.928c-0.354-0.549-0.705-1.099-1.047-1.664
		c-0.3-0.489-0.584-0.984-0.881-1.479c-0.332-0.577-0.666-1.152-0.987-1.733c-0.29-0.514-0.567-1.031-0.841-1.549
		c-0.316-0.588-0.629-1.174-0.934-1.767c-0.266-0.531-0.524-1.063-0.782-1.594c-0.289-0.597-0.577-1.198-0.86-1.8l-0.271-0.601
		c-0.194-0.444-0.396-0.887-0.584-1.325c-0.166-0.385-0.337-0.77-0.5-1.147c-0.38-0.911-0.733-1.813-1.069-2.716
		c-0.06-0.139-0.118-0.283-0.173-0.422c-0.38-1.035-0.729-2.059-1.056-3.068c-0.105-0.335-0.198-0.659-0.302-0.988
		c-0.206-0.69-0.412-1.375-0.586-2.053c-0.104-0.377-0.192-0.743-0.281-1.111c-0.153-0.631-0.289-1.255-0.413-1.865
		c-0.073-0.355-0.146-0.713-0.206-1.061c-0.112-0.643-0.201-1.264-0.277-1.884c-0.034-0.292-0.082-0.585-0.105-0.874
		c-0.089-0.88-0.142-1.743-0.142-2.563h-3.033v-23.268l3.5-2.572c-1.199-2.172-2.351-4.391-3.459-6.641
		c-0.366-0.732-0.697-1.486-1.051-2.228c-0.728-1.534-1.462-3.07-2.148-4.634c-0.396-0.898-0.768-1.814-1.147-2.723
		c-0.604-1.438-1.219-2.871-1.792-4.329c-0.387-0.978-0.749-1.973-1.12-2.964c-0.531-1.412-1.068-2.822-1.569-4.252
		c-0.36-1.027-0.708-2.063-1.051-3.096c-0.479-1.42-0.953-2.832-1.401-4.262c-0.334-1.053-0.652-2.113-0.971-3.17
		c-0.426-1.432-0.851-2.863-1.254-4.303c-0.303-1.066-0.588-2.135-0.877-3.208l-0.191-0.726c-0.316-1.205-0.629-2.408-0.934-3.619
		c-0.269-1.07-0.531-2.145-0.781-3.221c-0.349-1.465-0.686-2.931-1.01-4.397c-0.136-0.617-0.271-1.235-0.4-1.853l-0.26-1.209
		c-0.408-1.939-0.788-3.877-1.157-5.816c-0.153-0.811-0.315-1.613-0.46-2.424c-0.484-2.629-0.934-5.256-1.343-7.871
		c-0.021-0.103-0.038-0.203-0.05-0.305l-0.011-0.055c-0.434-2.773-0.819-5.535-1.186-8.284c-0.106-0.837-0.21-1.665-0.312-2.498
		c-0.242-1.948-0.478-3.89-0.684-5.822c-0.104-0.929-0.201-1.856-0.296-2.782c-0.188-1.911-0.366-3.811-0.53-5.697
		c-0.064-0.803-0.143-1.612-0.207-2.412c-0.21-2.637-0.4-5.256-0.555-7.826c-0.08,1.342-0.178,2.697-0.271,4.061l-0.089,1.227
		c-0.112,1.54-0.234,3.097-0.372,4.656c-0.076,0.921-0.149,1.84-0.235,2.767c-0.152,1.683-0.33,3.378-0.515,5.079
		c-0.082,0.82-0.162,1.636-0.253,2.463c-0.248,2.171-0.517,4.359-0.803,6.559c-0.048,0.36-0.083,0.717-0.136,1.08
		c-0.153,1.174-0.318,2.351-0.49,3.532c-0.2,1.407-0.412,2.818-0.637,4.229c-0.074,0.489-0.166,0.974-0.242,1.461
		c-0.354,2.221-0.734,4.442-1.144,6.671c-0.168,0.928-0.351,1.854-0.53,2.781c-0.346,1.806-0.705,3.608-1.082,5.412l-0.313,1.479
		c-0.131,0.605-0.26,1.212-0.396,1.814c-0.305,1.356-0.613,2.711-0.937,4.063c-0.266,1.115-0.533,2.231-0.811,3.346
		c-0.354,1.401-0.722,2.793-1.093,4.189c-0.165,0.635-0.337,1.27-0.508,1.902c-0.153,0.558-0.307,1.118-0.467,1.676
		c-0.236,0.828-0.472,1.657-0.717,2.484c-0.428,1.457-0.871,2.907-1.324,4.349c-0.24,0.747-0.467,1.493-0.709,2.237
		c-0.664,2.059-1.36,4.107-2.084,6.143c-0.059,0.164-0.123,0.334-0.182,0.501c-0.732,2.038-1.506,4.056-2.297,6.058
		c-0.267,0.67-0.539,1.332-0.814,1.998c-0.584,1.439-1.186,2.869-1.805,4.283c-0.316,0.728-0.64,1.451-0.97,2.17
		c-0.637,1.412-1.299,2.811-1.969,4.201c-0.309,0.631-0.604,1.268-0.923,1.892c-0.985,1.983-2.001,3.94-3.063,5.864l3.518,2.572
		v23.268h-3.057c0,0.803-0.054,1.645-0.138,2.508c-0.022,0.264-0.059,0.531-0.088,0.796c-0.08,0.638-0.172,1.288-0.286,1.955
		c-0.05,0.288-0.097,0.568-0.156,0.863c-0.152,0.803-0.337,1.617-0.546,2.452c-0.032,0.13-0.057,0.26-0.092,0.39
		c-0.248,0.962-0.531,1.941-0.838,2.938c-0.094,0.292-0.195,0.592-0.293,0.887c-0.238,0.724-0.486,1.456-0.752,2.188
		c-0.123,0.334-0.244,0.672-0.377,1.008c-0.295,0.793-0.608,1.59-0.941,2.387c-0.095,0.233-0.187,0.468-0.287,0.701l-0.059,0.148
		c-0.172,0.389-0.354,0.777-0.521,1.172c-0.327,0.725-0.645,1.447-0.979,2.164c-0.227,0.486-0.475,0.961-0.711,1.441
		c-0.324,0.664-0.655,1.334-1,1.992c-0.252,0.492-0.523,0.976-0.789,1.458c-0.345,0.638-0.684,1.278-1.044,1.899
		c-0.271,0.478-0.556,0.942-0.833,1.41c-0.365,0.617-0.734,1.234-1.109,1.836c-0.389,0.621-0.78,1.237-1.18,1.842
		c-0.16,0.246-0.324,0.492-0.486,0.734c-0.086,0.126-0.175,0.248-0.264,0.375c-0.514,0.75-1.029,1.475-1.552,2.182
		c-0.184,0.255-0.366,0.5-0.556,0.746c-0.478,0.637-0.962,1.254-1.448,1.846c-0.137,0.17-0.271,0.346-0.41,0.512
		c-0.608,0.729-1.216,1.422-1.821,2.074c-0.149,0.16-0.301,0.307-0.445,0.462c-0.479,0.507-0.961,0.982-1.434,1.431
		c-0.174,0.162-0.348,0.326-0.52,0.481c-0.605,0.549-1.209,1.065-1.801,1.515l10.735,2.174l2.213,0.445v6.573l-2.213,0.847
		l-13.078,5.021l13.078,1.836l0.111,0.015v6.602h-0.111h-13.805v78.477l13.805,5.01l4.316,1.568v35.146h-4.316h-43.313
		l-0.056-103.039V268.82h6.412l-19.494-58.99v-25.018h14.164v-4.083h-14.164v-6.294h-2.213h-2.143v6.294h-14.164v4.083h14.164
		v24.802l-19.652,59.207h6.415l-0.038,135.914h-28.353v-67.558h-8.501v-36.894h6.399l-19.024-58.418l-0.879-2.383v-23.137h14.161
		v-4.082h-14.161v-6.291H282h-2.604v6.291h-14.168v4.082h14.168v23.865l-0.242,1.654l-19.073,58.419h6.45v32.896l0.021,4.285
		h-12.881v-20.037h-0.406l-6.002-27.18l-6.023,27.18h-0.387v87.306h-25.094l0.037-53.039l-4.599-30.949l-4.991,30.949l0.012,53.039
		h-39.197v-83.988h-8.516v-32.902h6.412l-19.166-57.62v-23.629h14.164v-4.082h-14.164v-6.293h-1.972h-0.674h-1.711v6.293h-14.164
		v4.082h14.164v23.24l-19.965,58.009h6.396v32.902h-5.727v83.988H111.9V279.229c0,0-5.914-0.012-11.836-0.012
		c-5.928,0.006-11.869,0.023-11.869,0.1l0.029,125.418h-1.705l-0.063-45.914h-7.367h-0.562h-3.521h-0.545H58.356h-2.305h-0.01
		h-1.765h-0.551H37.616h-4.074h-0.554h-7.116l0.041,45.914H24.27V279.229H12.09H0.192v125.506h-15.28v31.688h27.18h20.897h4.628
		h16.11h2.314h2.313h16.111h4.066h21.534h43.716h138.22h67.527h58.664h8.168h21.713h3.742h3.947h2.893h4.039h3.279h3.125h23.262
		h7.193h35.854v-31.688H489.558z M411.835,354.611h-2.665h-0.975h-3.592v-0.961l-0.044-0.004c0,0,0.442-17.524,1.865-33.879h1.771
		h0.975h2.664L411.835,354.611L411.835,354.611z M411.835,318.915h-2.665h-0.975h-1.688c0.076-0.871,0.151-1.728,0.242-2.584
		c0.018-0.254,0.047-0.513,0.075-0.761c0.058-0.596,0.111-1.18,0.178-1.764c0.029-0.313,0.064-0.619,0.101-0.93
		c0.057-0.531,0.117-1.057,0.18-1.578c0.035-0.307,0.068-0.615,0.106-0.916c0.062-0.525,0.13-1.051,0.194-1.566
		c0.038-0.272,0.07-0.559,0.108-0.83c0.089-0.637,0.172-1.256,0.263-1.868c0.016-0.134,0.032-0.271,0.057-0.397
		c0.06-0.408,0.121-0.81,0.184-1.205l0.15-0.92c0.039-0.222,0.074-0.435,0.11-0.65c0.084-0.463,0.163-0.92,0.253-1.359
		c0.044-0.248,0.092-0.492,0.139-0.734c0.08-0.393,0.159-0.776,0.238-1.147c0.063-0.287,0.125-0.565,0.186-0.836
		c0.039-0.156,0.074-0.313,0.113-0.47c0.082-0.34,0.168-0.666,0.25-0.979c0.028-0.119,0.064-0.234,0.095-0.35
		c0.118-0.416,0.236-0.816,0.36-1.185c0.012-0.049,0.031-0.084,0.047-0.135c0.105-0.317,0.213-0.617,0.324-0.899
		c0.042-0.101,0.083-0.191,0.125-0.285c0.088-0.217,0.176-0.416,0.266-0.605c0.053-0.092,0.097-0.184,0.141-0.266
		c0.096-0.174,0.189-0.334,0.289-0.479c0.039-0.067,0.09-0.135,0.125-0.2c0.142-0.188,0.283-0.359,0.429-0.488V318.915z
		 M58.356,404.734h-2.313h-2.314H40.866c1.727-19.834,6.686-34.896,12.86-37.905c0.183-0.086,0.367-0.166,0.551-0.236
		c0.566-0.207,1.146-0.313,1.729-0.313l0.035,0.007h0.01c0.781,0.004,1.551,0.207,2.305,0.584
		c6.138,3.09,11.109,18.106,12.865,37.864H58.356L58.356,404.734z M143.11,304.307c0.23,0.012,0.453,0.086,0.675,0.225
		c2.147,1.328,4.11,8.563,4.11,21.482c0,2.514-1.776,4.495-4.11,4.811c-0.207,0.029-0.429,0.043-0.646,0.043h-0.027
		c-2.659-0.008-4.778-2.197-4.778-4.854C138.331,311.343,140.718,304.212,143.11,304.307z M145.153,404.734h-1.368h-1.363
		c-2.881-0.627-5.047-3.186-5.047-6.262c0-25.41,2.774-38.772,5.735-40.426c0.226-0.125,0.449-0.184,0.675-0.174
		c3.211,0.129,6.413,13.785,6.413,40.6C150.198,401.55,148.046,404.107,145.153,404.734z M282.004,343.032
		c-2.378,0.012-4.757-1.543-4.757-4.687c0-14.707,2.379-21.818,4.757-21.701c2.376,0.119,4.751,7.47,4.751,21.701
		C286.755,341.454,284.38,343.023,282.004,343.032z M349.531,285.243c2.381,0.127,4.767,7.493,4.767,21.737
		c0,3.064-2.386,4.634-4.767,4.65c-2.385,0.021-4.769-1.508-4.769-4.65C344.764,292.236,347.147,285.111,349.531,285.243z
		 M349.531,351.695h-5.647c0-6.793,2.715-10.463,5.647-11.01c3.437-0.637,7.171,3.031,7.171,11.01H349.531z M412.688,292.473
		c0.177,0.147,0.349,0.354,0.507,0.592c0.061,0.076,0.113,0.174,0.166,0.26c0.111,0.176,0.221,0.365,0.33,0.578
		c0.059,0.121,0.118,0.256,0.18,0.387c0.099,0.217,0.198,0.451,0.293,0.699c0.058,0.152,0.117,0.307,0.178,0.469
		c0.091,0.266,0.183,0.551,0.273,0.846c0.06,0.178,0.109,0.35,0.162,0.525c0.101,0.344,0.195,0.713,0.289,1.084
		c0.041,0.162,0.086,0.311,0.125,0.475c0.135,0.549,0.266,1.121,0.389,1.717c0.029,0.131,0.054,0.267,0.08,0.392
		c0.101,0.491,0.197,0.994,0.292,1.522c0.044,0.234,0.089,0.486,0.133,0.73c0.077,0.438,0.153,0.873,0.229,1.326l0.053,0.344
		l0.053,0.338c0.148,0.949,0.293,1.924,0.429,2.938c0.01,0.084,0.022,0.16,0.028,0.236c0.134,0.98,0.259,1.984,0.38,3.004
		c0.022,0.219,0.05,0.426,0.072,0.64c0.124,1.057,0.235,2.133,0.352,3.223c0.021,0.224,0.045,0.466,0.067,0.695
		c0.112,1.127,0.226,2.271,0.328,3.426h-1.709h-3.677L412.688,292.473L412.688,292.473z M420.037,354.611h-3.674h-3.677v-34.844
		h3.677h1.785c1.23,14.17,1.723,29.226,1.838,32.967h0.051V354.611z M458.531,370.175c0.191,0.119,0.385,0.229,0.57,0.354
		c0.31,0.193,0.622,0.4,0.918,0.619c0.07,0.054,0.139,0.105,0.212,0.158c0.413,0.31,0.814,0.635,1.206,0.976
		c0.151,0.125,0.296,0.26,0.44,0.396c0.313,0.289,0.615,0.584,0.917,0.887c0.139,0.146,0.274,0.287,0.409,0.435
		c0.353,0.379,0.687,0.772,1.017,1.183c0.053,0.075,0.118,0.145,0.178,0.215c0.371,0.485,0.727,0.994,1.063,1.514
		c0.097,0.145,0.182,0.299,0.272,0.443c0.239,0.395,0.463,0.787,0.688,1.19c0.095,0.181,0.188,0.365,0.28,0.547
		c0.216,0.429,0.412,0.863,0.6,1.304c0.062,0.145,0.136,0.297,0.191,0.44c0.235,0.592,0.451,1.197,0.641,1.813
		c0.036,0.121,0.064,0.248,0.103,0.369c0.146,0.5,0.275,1.015,0.388,1.527c0.045,0.207,0.082,0.408,0.125,0.613
		c0.088,0.471,0.163,0.941,0.224,1.424c0.03,0.193,0.056,0.398,0.077,0.602c0.069,0.666,0.123,1.34,0.135,2.023h-10.082h-3.125
		h-3.264h-0.017h-3.93V367.43h0.008c0.687,0.01,1.357,0.047,2.025,0.119c0.248,0.029,0.489,0.088,0.736,0.127
		c0.391,0.055,0.778,0.115,1.159,0.188l0.074,0.019c0.159,0.033,0.313,0.091,0.473,0.121c0.447,0.115,0.895,0.235,1.334,0.379
		c0.225,0.076,0.441,0.158,0.666,0.242c0.242,0.09,0.49,0.183,0.732,0.283c0.127,0.047,0.25,0.1,0.371,0.151
		c0.195,0.084,0.384,0.174,0.565,0.265c0.388,0.182,0.763,0.375,1.132,0.584C458.207,369.999,458.372,370.081,458.531,370.175z
		 M452.698,319.77h0.017h2.032c0.127,1.444,0.244,2.903,0.352,4.354c0.018,0.181,0.03,0.362,0.044,0.543
		c0.104,1.383,0.204,2.769,0.295,4.131c0.01,0.226,0.029,0.451,0.045,0.675c0.086,1.344,0.171,2.678,0.244,3.977
		c0.016,0.197,0.021,0.393,0.036,0.584c0.077,1.328,0.149,2.639,0.212,3.891l0.004,0.037l0.023,0.494
		c0.034,0.648,0.063,1.285,0.094,1.9c0.012,0.283,0.022,0.549,0.041,0.819c0.023,0.531,0.048,1.06,0.067,1.562
		c0.011,0.236,0.023,0.463,0.035,0.693c0.019,0.514,0.041,1.021,0.063,1.497c0.009,0.205,0.018,0.402,0.022,0.599
		c0.021,0.52,0.045,1.029,0.06,1.51c0.006,0.104,0.012,0.213,0.012,0.322c0.024,0.561,0.045,1.104,0.065,1.602
		c0,0.021,0,0.045,0,0.064c0.06,1.656,0.101,2.934,0.124,3.713h0.051v1.877h-0.658h-3.264h-0.017h-3.414V319.77H452.698z
		 M449.283,318.915v-26.442c0.172,0.143,0.33,0.327,0.49,0.549c0.047,0.071,0.094,0.16,0.146,0.24
		c0.108,0.161,0.215,0.334,0.321,0.532c0.06,0.106,0.105,0.24,0.164,0.36c0.095,0.199,0.189,0.4,0.281,0.632
		c0.056,0.141,0.115,0.297,0.168,0.448c0.088,0.234,0.174,0.482,0.26,0.742c0.053,0.166,0.105,0.355,0.165,0.525
		c0.083,0.281,0.159,0.559,0.241,0.85c0.054,0.195,0.102,0.398,0.16,0.605c0.07,0.305,0.152,0.617,0.229,0.941
		c0.047,0.219,0.099,0.438,0.146,0.66c0.078,0.35,0.147,0.69,0.223,1.051c0.047,0.236,0.097,0.473,0.14,0.715
		c0.072,0.371,0.141,0.75,0.212,1.139l0.066,0.375l0.051,0.266c0.168,1.019,0.337,2.084,0.496,3.195
		c0.023,0.16,0.047,0.324,0.07,0.49c0.159,1.121,0.307,2.277,0.455,3.477c0.022,0.158,0.041,0.324,0.059,0.49
		c0.146,1.221,0.286,2.475,0.416,3.752c0.01,0.107,0.023,0.219,0.032,0.332c0.136,1.336,0.266,2.703,0.394,4.074h-1.956h-0.017
		L449.283,318.915L449.283,318.915z M458.007,197.018v10.341h-2.029h-2.027v-10.341h2.027H458.007z M449.33,163.447
		c0.414,0.027,0.814,0.095,1.205,0.188c0.095,0.021,0.188,0.046,0.289,0.072c0.371,0.106,0.743,0.229,1.086,0.393
		c0.013,0,0.019,0.003,0.023,0.006c0.268,0.127,0.52,0.273,0.764,0.432l0.168,0.113c0.248,0.164,0.479,0.352,0.706,0.547
		c0.126,0.109,0.264,0.209,0.38,0.326c0.259,0.258,0.49,0.541,0.703,0.832c0.064,0.081,0.136,0.153,0.195,0.239
		c0.265,0.386,0.489,0.804,0.678,1.239c0.041,0.105,0.06,0.221,0.102,0.324c0.127,0.34,0.234,0.686,0.31,1.047l0.039,0.193
		c0.059,0.332,0.104,0.67,0.117,1.018h-0.117h-3.264h-0.017h-3.367V163.447L449.33,163.447z M449.33,171.282h3.367h0.017h3.264
		h0.088c-0.018,0.19-0.053,0.376-0.088,0.565l-0.083,0.355c-0.063,0.295-0.153,0.584-0.254,0.869
		c-0.061,0.162-0.112,0.322-0.184,0.478c-0.133,0.302-0.293,0.585-0.467,0.86c-0.069,0.113-0.129,0.238-0.213,0.352
		c-0.266,0.375-0.555,0.73-0.885,1.049c-0.047,0.044-0.101,0.076-0.147,0.119c-0.295,0.268-0.607,0.516-0.94,0.732l-0.106,0.068
		c-0.26,0.166-0.531,0.318-0.813,0.447c-0.063,0.027-0.133,0.051-0.197,0.076c-0.289,0.123-0.584,0.224-0.885,0.307
		c-0.107,0.029-0.213,0.057-0.319,0.079c-0.378,0.085-0.755,0.15-1.151,0.176v-6.532H449.33z M441.819,169.394l0.035-0.183
		c0.07-0.372,0.188-0.727,0.318-1.074c0.031-0.098,0.053-0.207,0.098-0.303c0.186-0.438,0.41-0.854,0.676-1.246
		c0.06-0.086,0.135-0.162,0.2-0.246c0.212-0.29,0.442-0.568,0.702-0.822c0.118-0.115,0.248-0.213,0.372-0.319
		c0.229-0.199,0.466-0.394,0.72-0.561c0.271-0.176,0.537-0.349,0.826-0.488l0.083-0.04c0.006-0.003,0.006-0.006,0.012-0.009
		c0.356-0.163,0.735-0.289,1.116-0.396c0.091-0.026,0.188-0.051,0.283-0.072c0.389-0.093,0.787-0.16,1.203-0.188v6.969h-2.697
		h-0.672h-3.275h-0.115C441.712,170.064,441.757,169.729,441.819,169.394z M448.464,171.282v6.533
		c-0.396-0.025-0.779-0.091-1.154-0.176c-0.1-0.022-0.203-0.048-0.303-0.077c-0.319-0.085-0.629-0.191-0.929-0.318
		c-0.053-0.025-0.104-0.039-0.157-0.064l-0.154-0.068c-0.269-0.133-0.525-0.287-0.773-0.447c-0.317-0.206-0.612-0.442-0.896-0.697
		c-0.064-0.053-0.13-0.1-0.189-0.155c-0.33-0.318-0.625-0.671-0.891-1.043c-0.076-0.114-0.142-0.235-0.207-0.351
		c-0.176-0.276-0.342-0.563-0.479-0.865c-0.064-0.154-0.113-0.318-0.181-0.479c-0.1-0.287-0.186-0.576-0.256-0.875l-0.076-0.355
		c-0.039-0.186-0.071-0.371-0.09-0.562h0.09h3.275h0.672L448.464,171.282L448.464,171.282z M439.787,197.018h2.031h2.029v10.341
		h-2.029h-2.031V197.018z M447.791,404.734h-2.024h-3.947h-3.742h-9.715v-14.553h9.715h3.742h3.275h0.672h2.024V404.734z
		 M447.791,389.208h-2.024h-0.672h-3.275h-3.742h-9.715c0.019-0.879,0.095-1.744,0.203-2.597c0.033-0.247,0.08-0.502,0.115-0.75
		c0.102-0.618,0.223-1.231,0.373-1.836c0.053-0.241,0.11-0.481,0.176-0.719c0.225-0.803,0.47-1.592,0.771-2.35
		c0-0.004,0-0.004,0-0.004c0.298-0.764,0.651-1.492,1.026-2.209c0.106-0.209,0.222-0.408,0.339-0.613
		c0.295-0.523,0.608-1.037,0.945-1.529c0.127-0.186,0.247-0.377,0.383-0.559c0.927-1.295,1.989-2.473,3.158-3.508
		c0.158-0.143,0.324-0.277,0.489-0.42c0.458-0.383,0.927-0.736,1.413-1.08l0.321-0.227c0.076-0.058,0.153-0.109,0.232-0.156
		c0.356-0.238,0.734-0.449,1.102-0.66c0.218-0.125,0.435-0.254,0.652-0.367c0.428-0.221,0.863-0.41,1.307-0.602
		c0.15-0.064,0.295-0.135,0.449-0.195l0.104-0.047c0.238-0.094,0.492-0.17,0.734-0.254c0.327-0.111,0.66-0.23,0.997-0.32
		c0.259-0.074,0.524-0.137,0.782-0.199c0.31-0.07,0.616-0.141,0.924-0.199l0.406-0.072c0.664-0.11,1.34-0.202,2.024-0.241v21.713
		H447.791z M448.432,354.611h-2.665h-0.672h-3.275h-0.614v-0.961l-0.048-0.004c0,0,0-0.067,0.006-0.098c0-0.047,0-0.111,0.007-0.191
		c0-0.108,0.006-0.243,0.012-0.428c0-0.063,0.006-0.133,0.006-0.203c0.006-0.192,0.012-0.416,0.02-0.67
		c0.003-0.061,0.006-0.125,0.006-0.188c0.012-0.309,0.022-0.662,0.035-1.041c0.003-0.133,0.009-0.277,0.015-0.412
		c0.016-0.391,0.027-0.797,0.041-1.24c0.004-0.041,0.004-0.074,0.004-0.111c0.018-0.467,0.035-0.987,0.059-1.522
		c0.007-0.178,0.013-0.358,0.021-0.537c0.023-0.557,0.044-1.127,0.066-1.733c0.011-0.138,0.017-0.283,0.024-0.433
		c0.015-0.516,0.041-1.057,0.067-1.61c0.01-0.195,0.016-0.388,0.022-0.584c0.033-0.654,0.063-1.328,0.092-2.019
		c0.013-0.233,0.027-0.474,0.035-0.713c0.033-0.58,0.063-1.177,0.096-1.791c0.006-0.19,0.021-0.39,0.029-0.584v-0.013l0.006-0.059
		c0.06-1.145,0.127-2.344,0.194-3.553c0.023-0.369,0.041-0.738,0.065-1.109c0.072-1.258,0.151-2.545,0.24-3.848
		c0.007-0.119,0.021-0.246,0.03-0.373c0.082-1.209,0.164-2.432,0.256-3.664c0.027-0.361,0.058-0.721,0.082-1.08
		c0.107-1.363,0.217-2.721,0.334-4.072h2.066h0.672h2.665V354.611L448.432,354.611z M448.432,318.915h-2.665h-0.672h-1.989
		c0.12-1.399,0.253-2.783,0.396-4.144c0.012-0.104,0.018-0.209,0.028-0.315c0.136-1.297,0.277-2.576,0.432-3.824
		c0.019-0.146,0.035-0.301,0.05-0.446c0.145-1.218,0.305-2.396,0.464-3.535c0.026-0.16,0.044-0.314,0.071-0.467
		c0.157-1.121,0.33-2.195,0.51-3.224c0.033-0.196,0.067-0.399,0.104-0.597c0.064-0.354,0.13-0.709,0.195-1.045
		c0.049-0.26,0.104-0.52,0.15-0.768c0.066-0.324,0.133-0.635,0.203-0.943l0.059-0.276l0.104-0.455
		c0.068-0.289,0.14-0.565,0.209-0.844c0.055-0.226,0.113-0.462,0.176-0.675c0.066-0.26,0.139-0.506,0.216-0.748
		c0.059-0.2,0.117-0.409,0.18-0.604c0.08-0.229,0.15-0.441,0.23-0.654c0.063-0.172,0.127-0.354,0.186-0.514
		c0.082-0.207,0.168-0.389,0.251-0.568c0.063-0.141,0.124-0.287,0.187-0.412c0.095-0.188,0.193-0.338,0.292-0.5
		c0.053-0.09,0.108-0.194,0.162-0.271c0.155-0.229,0.313-0.414,0.476-0.562v26.39H448.432z M446.628,207.358v-10.341h2.03h2.035
		v10.341h-2.035H446.628z M469.438,404.734h-10.336h-3.125h-3.279h-3.93v-14.553h3.93h0.017h3.264h3.125h10.336L469.438,404.734
		L469.438,404.734z M485.028,354.611h-2.664h-4.563v-0.961l-0.047-0.004c0,0,0.444-17.524,1.871-33.879h2.737h2.664L485.028,354.611
		L485.028,354.611z M485.028,318.915h-2.664h-2.662c0.076-0.871,0.16-1.728,0.242-2.584c0.023-0.254,0.047-0.513,0.076-0.761
		c0.057-0.596,0.115-1.18,0.178-1.764c0.035-0.313,0.064-0.619,0.101-0.93c0.06-0.531,0.125-1.057,0.181-1.578
		c0.038-0.307,0.073-0.615,0.106-0.916c0.066-0.525,0.129-1.051,0.196-1.566c0.035-0.272,0.07-0.559,0.106-0.83
		c0.089-0.637,0.171-1.256,0.263-1.868c0.023-0.134,0.038-0.271,0.056-0.397c0.112-0.73,0.22-1.437,0.338-2.125
		c0.034-0.222,0.075-0.435,0.11-0.65c0.083-0.463,0.16-0.92,0.248-1.359c0.045-0.248,0.095-0.492,0.139-0.734
		c0.08-0.393,0.162-0.776,0.239-1.147l0.083-0.371l0.105-0.465c0.035-0.156,0.077-0.313,0.108-0.47
		c0.086-0.342,0.168-0.666,0.258-0.983c0.031-0.115,0.06-0.229,0.092-0.345c0.114-0.416,0.234-0.815,0.355-1.19
		c0.017-0.035,0.023-0.063,0.039-0.101c0.109-0.332,0.222-0.639,0.34-0.934c0.035-0.094,0.076-0.184,0.114-0.271
		c0.092-0.22,0.184-0.425,0.274-0.619c0.047-0.086,0.092-0.172,0.136-0.254c0.098-0.181,0.192-0.343,0.296-0.49
		c0.041-0.063,0.076-0.129,0.12-0.19c0.14-0.191,0.28-0.363,0.425-0.492L485.028,318.915L485.028,318.915z M485.882,292.473
		c0.177,0.147,0.348,0.354,0.516,0.592c0.054,0.076,0.104,0.174,0.156,0.26c0.115,0.176,0.225,0.365,0.334,0.578
		c0.057,0.121,0.121,0.256,0.178,0.387c0.104,0.217,0.197,0.451,0.291,0.699c0.06,0.152,0.119,0.307,0.178,0.469
		c0.095,0.266,0.184,0.551,0.274,0.846c0.06,0.178,0.112,0.35,0.165,0.525c0.098,0.344,0.19,0.713,0.289,1.084
		c0.045,0.162,0.082,0.311,0.121,0.475c0.136,0.549,0.266,1.121,0.396,1.717c0.023,0.131,0.048,0.267,0.077,0.392
		c0.1,0.491,0.194,0.994,0.289,1.522c0.047,0.234,0.094,0.486,0.133,0.73c0.079,0.438,0.152,0.873,0.228,1.326l0.053,0.344
		l0.054,0.338c0.147,0.949,0.292,1.924,0.428,2.938c0.01,0.084,0.024,0.16,0.036,0.236c0.129,0.98,0.254,1.984,0.371,3.004
		c0.027,0.219,0.051,0.426,0.08,0.64c0.117,1.057,0.232,2.133,0.346,3.223c0.023,0.224,0.043,0.466,0.07,0.695
		c0.109,1.127,0.221,2.271,0.324,3.426h-1.709h-3.676L485.882,292.473L485.882,292.473z M485.882,319.77h3.676h1.786
		c1.229,14.17,1.726,29.225,1.839,32.967h0.049v1.877h-3.674h-3.676V319.77z"/>
</g>
</svg>
