<?xml version="1.0" encoding="utf-8"?>
<!-- Generator: Adobe Illustrator 16.0.0, SVG Export Plug-In . SVG Version: 6.00 Build 0)  -->
<!DOCTYPE svg PUBLIC "-//W3C//DTD SVG 1.1//EN" "http://www.w3.org/Graphics/SVG/1.1/DTD/svg11.dtd">
<svg version="1.1" id="Capa_1" xmlns="http://www.w3.org/2000/svg" xmlns:xlink="http://www.w3.org/1999/xlink" x="0px" y="0px"
	 width="44.238px" height="44.238px" viewBox="0 0 44.238 44.238" enable-background="new 0 0 44.238 44.238" xml:space="preserve">
<g>
	<g>
		<path fill="#585AA7" d="M22.119,0.745c11.787,0,21.375,9.588,21.375,21.374s-9.588,21.374-21.375,21.374
			S0.744,33.905,0.744,22.119S10.334,0.745,22.119,0.745z M22.119,42.044c10.986,0,19.926-8.938,19.926-19.925
			c0-10.986-8.939-19.924-19.926-19.924c-10.987,0-19.925,8.938-19.925,19.924C2.194,33.105,11.132,42.044,22.119,42.044z"/>
		<path fill="#585AA7" d="M19.657,14.615c0.185,0,0.371,0.068,0.511,0.212l7.082,7.087c0.282,0.283,0.282,0.742,0,1.025
			l-7.082,7.086c-0.283,0.283-0.743,0.283-1.026,0s-0.283-0.741,0-1.024l6.569-6.574l-6.569-6.578c-0.282-0.283-0.282-0.743,0-1.025
			C19.286,14.684,19.471,14.615,19.657,14.615z"/>
	</g>
</g>
</svg>
