<?xml version="1.0" encoding="utf-8"?>
<!-- Generator: Adobe Illustrator 16.0.0, SVG Export Plug-In . SVG Version: 6.00 Build 0)  -->
<!DOCTYPE svg PUBLIC "-//W3C//DTD SVG 1.1//EN" "http://www.w3.org/Graphics/SVG/1.1/DTD/svg11.dtd">
<svg version="1.1" id="Layer_1" xmlns="http://www.w3.org/2000/svg" xmlns:xlink="http://www.w3.org/1999/xlink" x="0px" y="0px"
	 width="512px" height="512px" viewBox="0 0 512 512" enable-background="new 0 0 512 512" xml:space="preserve">
<path fill="#A5A5A5" d="M339.073,52.744v405.449c0,25.384,51.292,46.364,76.659,46.46c25.446,0,46.415-21.019,46.415-46.46V52.744
	H339.073z"/>
<path fill="#E2E2E2" d="M369.843,458.193V6.591H210.355H49.852v451.604c0,25.442,20.554,46.845,45.999,46.845l114.504-0.138V504.9
	l205.377-0.247C390.365,504.561,369.843,483.576,369.843,458.193z"/>
<g>
	<polygon fill="#BFBFBF" points="210.341,255.745 83.628,255.745 83.628,286.514 210.341,286.514 337.477,286.514 337.477,255.745 	
		"/>
	<polygon fill="#BFBFBF" points="210.341,194.208 83.628,194.208 83.628,224.977 210.341,224.977 337.477,224.977 337.477,194.208 	
		"/>
	<polygon fill="#BFBFBF" points="210.341,132.672 83.628,132.672 83.628,163.44 210.341,163.44 337.477,163.44 337.477,132.672 	"/>
	<polygon fill="#BFBFBF" points="210.341,40.367 83.628,40.367 83.628,101.903 210.341,101.903 337.477,101.903 337.477,40.367 	"/>
	<polygon fill="#BFBFBF" points="210.341,317.281 83.628,317.281 83.628,348.05 210.341,348.05 337.477,348.05 337.477,317.281 	"/>
	<rect x="83.628" y="378.818" fill="#BFBFBF" width="126.713" height="30.769"/>
	<rect x="83.628" y="440.354" fill="#BFBFBF" width="126.713" height="30.771"/>
</g>
<rect x="241.109" y="378.818" fill="#BFBFBF" width="96.367" height="92.305"/>
</svg>
