<?xml version="1.0" encoding="utf-8"?>
<!-- Generator: Adobe Illustrator 16.0.0, SVG Export Plug-In . SVG Version: 6.00 Build 0)  -->
<!DOCTYPE svg PUBLIC "-//W3C//DTD SVG 1.1//EN" "http://www.w3.org/Graphics/SVG/1.1/DTD/svg11.dtd">
<svg version="1.1" id="Capa_1" xmlns="http://www.w3.org/2000/svg" xmlns:xlink="http://www.w3.org/1999/xlink" x="0px" y="0px"
	 width="274px" height="274px" viewBox="0 0 274 274" enable-background="new 0 0 274 274" xml:space="preserve">
<g opacity="0.5">
	<g>
		<path fill="#388F9E" d="M185.164,170.715c-2.955,0-5.352,2.396-5.352,5.352v36.927c0,14.754-12.004,26.758-26.758,26.758H95.274
			c-2.955,0-5.35,2.394-5.352,5.349l-0.007,10.641l-12.773-12.773c-0.827-1.898-2.719-3.215-4.908-3.215H37.461
			c-14.754,0-26.758-12.004-26.758-26.758V130.58c0-14.754,12.003-26.758,26.758-26.758h54.051c2.955,0,5.352-2.396,5.352-5.352
			c0-2.956-2.396-5.352-5.352-5.352H37.461C16.805,93.117,0,109.922,0,130.578v82.414c0,20.656,16.805,37.461,37.461,37.461h32.033
			l21.979,21.979c1.024,1.023,2.392,1.567,3.785,1.567c0.689,0,1.384-0.133,2.045-0.406c2-0.827,3.304-2.776,3.306-4.94
			l0.013-18.199h52.433c20.656,0,37.461-16.805,37.461-37.461v-36.926C190.516,173.111,188.119,170.715,185.164,170.715z"/>
	</g>
</g>
<g opacity="0.5">
	<g>
		<path fill="#388F9E" d="M196.218,0h-13.544c-42.891,0-77.783,34.893-77.783,77.783c0,42.89,34.893,77.781,77.782,77.781h13.544
			c6.695,0,13.32-0.85,19.742-2.529l20.008,19.997c1.023,1.022,2.393,1.565,3.784,1.565c0.69,0,1.386-0.133,2.048-0.408
			c1.999-0.828,3.303-2.778,3.303-4.942v-30.963c8.471-6.859,15.508-15.525,20.446-25.206c5.608-10.996,8.452-22.87,8.452-35.294
			C274,34.893,239.107,0,196.218,0z M236.529,131.399c-1.342,1.011-2.131,2.594-2.131,4.275v20.658l-13.096-13.09
			c-1.021-1.018-2.387-1.566-3.783-1.566c-0.525,0-1.056,0.078-1.572,0.236c-6.369,1.958-13.008,2.949-19.729,2.949h-13.544
			c-36.988,0-67.08-30.091-67.08-67.079c0-36.988,30.091-67.08,67.08-67.08h13.544c36.987,0,67.079,30.092,67.079,67.08
			C263.297,99.045,253.541,118.588,236.529,131.399z"/>
	</g>
</g>
<g opacity="0.5">
	<g>
		<path fill="#388F9E" d="M213.545,58.557c-0.771-11.203-9.803-20.235-21.008-21.007c-6.352-0.436-12.412,1.706-17.051,6.037
			c-4.576,4.271-7.2,10.309-7.2,16.565c0,2.956,2.396,5.352,5.353,5.352c2.955,0,5.352-2.396,5.352-5.352
			c0-3.35,1.35-6.454,3.8-8.741c2.446-2.285,5.646-3.416,9.015-3.183c5.899,0.407,10.657,5.164,11.063,11.065
			c0.411,5.96-3.499,11.227-9.298,12.524c-4.696,1.051-7.979,5.133-7.979,9.927v12.857c0,2.956,2.396,5.352,5.352,5.352
			c2.957,0,5.353-2.396,5.353-5.352V82.172C207.078,79.567,214.313,69.7,213.545,58.557z"/>
	</g>
</g>
<g opacity="0.5">
	<g>
		<path fill="#388F9E" d="M194.727,111.987c-0.994-0.996-2.375-1.568-3.783-1.568c-1.406,0-2.786,0.572-3.782,1.568
			c-0.996,0.996-1.568,2.376-1.568,3.784c0,1.413,0.574,2.793,1.568,3.789c0.996,0.996,2.376,1.563,3.782,1.563
			c1.408,0,2.789-0.567,3.783-1.563c0.996-1,1.568-2.376,1.568-3.789C196.295,114.363,195.723,112.982,194.727,111.987z"/>
	</g>
</g>
<g opacity="0.5">
	<g>
		<path fill="#388F9E" d="M147.168,165.898H34.25c-2.955,0-5.352,2.396-5.352,5.352s2.396,5.352,5.352,5.352h112.918
			c2.955,0,5.352-2.396,5.352-5.352S150.123,165.898,147.168,165.898z"/>
	</g>
</g>
<g opacity="0.5">
	<g>
		<path fill="#388F9E" d="M150.951,197.436c-0.995-0.996-2.375-1.567-3.783-1.567s-2.788,0.571-3.783,1.567
			c-0.996,0.996-1.568,2.377-1.568,3.783c0,1.407,0.572,2.788,1.568,3.783c0.995,0.996,2.375,1.568,3.783,1.568
			s2.788-0.572,3.783-1.568c0.996-0.995,1.568-2.37,1.568-3.783C152.52,199.813,151.945,198.432,150.951,197.436z"/>
	</g>
</g>
<g opacity="0.5">
	<g>
		<path fill="#388F9E" d="M126.119,195.867H34.25c-2.955,0-5.352,2.396-5.352,5.352c0,2.956,2.396,5.352,5.352,5.352h91.869
			c2.956,0,5.352-2.396,5.352-5.352C131.471,198.264,129.074,195.867,126.119,195.867z"/>
	</g>
</g>
<g opacity="0.5">
	<g>
		<path fill="#388F9E" d="M112.383,135.93H34.25c-2.955,0-5.352,2.396-5.352,5.352s2.396,5.352,5.352,5.352h78.133
			c2.956,0,5.352-2.396,5.352-5.352S115.338,135.93,112.383,135.93z"/>
	</g>
</g>
</svg>
