<?xml version="1.0" encoding="utf-8"?>
<!-- Generator: Adobe Illustrator 16.0.0, SVG Export Plug-In . SVG Version: 6.00 Build 0)  -->
<!DOCTYPE svg PUBLIC "-//W3C//DTD SVG 1.1//EN" "http://www.w3.org/Graphics/SVG/1.1/DTD/svg11.dtd">
<svg version="1.1" id="Capa_1" xmlns="http://www.w3.org/2000/svg" xmlns:xlink="http://www.w3.org/1999/xlink" x="0px" y="0px"
	 width="274px" height="274px" viewBox="0 0 274 274" enable-background="new 0 0 274 274" xml:space="preserve">
<g>
	<g>
		<g>
			<path fill="#585AA7" d="M137,0C61.337,0,0,61.337,0,137s61.337,137,137,137c75.628-0.085,136.915-61.372,137-137
				C274,61.337,212.663,0,137,0z M137,265.161C66.219,265.161,8.839,207.781,8.839,137S66.219,8.839,137,8.839
				C207.748,8.919,265.081,66.251,265.161,137C265.161,207.781,207.781,265.161,137,265.161z"/>
			<path fill="#585AA7" d="M137,30.936C78.422,30.936,30.936,78.422,30.936,137S78.422,243.064,137,243.064
				S243.064,195.578,243.064,137C243.051,78.428,195.572,30.95,137,30.936z M137,176.774c-21.966,0-39.774-17.808-39.774-39.774
				S115.034,97.226,137,97.226c21.967,0,39.774,17.808,39.774,39.774S158.967,176.774,137,176.774z"/>
		</g>
	</g>
</g>
</svg>
