<?xml version="1.0" encoding="utf-8"?>
<!-- Generator: Adobe Illustrator 16.0.0, SVG Export Plug-In . SVG Version: 6.00 Build 0)  -->
<!DOCTYPE svg PUBLIC "-//W3C//DTD SVG 1.1//EN" "http://www.w3.org/Graphics/SVG/1.1/DTD/svg11.dtd">
<svg version="1.1" id="Layer_1" xmlns="http://www.w3.org/2000/svg" xmlns:xlink="http://www.w3.org/1999/xlink" x="0px" y="0px"
	 width="274px" height="274px" viewBox="0 0 274 274" enable-background="new 0 0 274 274" xml:space="preserve">
<polyline fill="none" stroke="#010101" stroke-width="5" stroke-miterlimit="10" points="198.493,80.783 208.269,80.783 
	208.269,213.693 75.357,213.693 75.357,203.919 "/>
<g id="LWPOLYLINE">
	
		<rect x="65.583" y="71.008" fill="none" stroke="#010101" stroke-width="5" stroke-miterlimit="10" width="132.911" height="132.911"/>
</g>
<g id="LINE">
	<line fill="none" stroke="#010101" stroke-width="5" stroke-miterlimit="10" x1="85.519" y1="90.945" x2="178.557" y2="90.945"/>
</g>
<g id="LINE_1_">
	<line fill="none" stroke="#010101" stroke-width="5" stroke-miterlimit="10" x1="88.842" y1="117.527" x2="108.779" y2="117.527"/>
</g>
<g id="LINE_2_">
	<line fill="none" stroke="#010101" stroke-width="5" stroke-miterlimit="10" x1="122.07" y1="117.527" x2="142.007" y2="117.527"/>
</g>
<g id="LINE_3_">
	
		<line fill="none" stroke="#010101" stroke-width="5" stroke-miterlimit="10" x1="155.298" y1="117.527" x2="175.234" y2="117.527"/>
</g>
<g id="LINE_4_">
	<line fill="none" stroke="#010101" stroke-width="5" stroke-miterlimit="10" x1="88.842" y1="137.464" x2="108.779" y2="137.464"/>
</g>
<g id="LINE_5_">
	<line fill="none" stroke="#010101" stroke-width="5" stroke-miterlimit="10" x1="122.07" y1="137.464" x2="142.007" y2="137.464"/>
</g>
<g id="LINE_6_">
	
		<line fill="none" stroke="#010101" stroke-width="5" stroke-miterlimit="10" x1="155.298" y1="137.464" x2="175.234" y2="137.464"/>
</g>
<g id="LINE_7_">
	<line fill="none" stroke="#010101" stroke-width="5" stroke-miterlimit="10" x1="88.842" y1="157.4" x2="108.779" y2="157.4"/>
</g>
<g id="LINE_8_">
	<line fill="none" stroke="#010101" stroke-width="5" stroke-miterlimit="10" x1="122.07" y1="157.4" x2="142.007" y2="157.4"/>
</g>
<g id="LINE_9_">
	<line fill="none" stroke="#010101" stroke-width="5" stroke-miterlimit="10" x1="155.298" y1="157.4" x2="175.234" y2="157.4"/>
</g>
<g id="LINE_10_">
	<line fill="none" stroke="#010101" stroke-width="5" stroke-miterlimit="10" x1="88.842" y1="177.338" x2="108.779" y2="177.338"/>
</g>
<g id="LINE_11_">
	<line fill="none" stroke="#010101" stroke-width="5" stroke-miterlimit="10" x1="122.07" y1="177.338" x2="142.007" y2="177.338"/>
</g>
<g id="LINE_12_">
	
		<line fill="none" stroke="#010101" stroke-width="5" stroke-miterlimit="10" x1="155.298" y1="177.338" x2="175.234" y2="177.338"/>
</g>
<g id="LINE_13_">
	<line fill="none" stroke="#010101" stroke-width="5" stroke-miterlimit="10" x1="98.811" y1="77.654" x2="98.811" y2="57.717"/>
</g>
<g id="LINE_14_">
	<line fill="none" stroke="#010101" stroke-width="5" stroke-miterlimit="10" x1="165.267" y1="77.654" x2="165.267" y2="57.717"/>
</g>
</svg>
