<?xml version="1.0" encoding="utf-8"?>
<!-- Generator: Adobe Illustrator 16.0.0, SVG Export Plug-In . SVG Version: 6.00 Build 0)  -->
<!DOCTYPE svg PUBLIC "-//W3C//DTD SVG 1.1//EN" "http://www.w3.org/Graphics/SVG/1.1/DTD/svg11.dtd">
<svg version="1.1" id="Layer_1" xmlns="http://www.w3.org/2000/svg" xmlns:xlink="http://www.w3.org/1999/xlink" x="0px" y="0px"
	 width="512px" height="512px" viewBox="0 0 512 512" enable-background="new 0 0 512 512" xml:space="preserve">
<g id="XMLID_6_" opacity="0.2">
	<linearGradient id="XMLID_4_" gradientUnits="userSpaceOnUse" x1="257.5664" y1="465.7998" x2="257.5664" y2="120.8242">
		<stop  offset="0" style="stop-color:#FFFFFF"/>
		<stop  offset="0.2296" style="stop-color:#FAFAFA"/>
		<stop  offset="0.4925" style="stop-color:#ECECEC"/>
		<stop  offset="0.7708" style="stop-color:#D6D6D6"/>
		<stop  offset="1" style="stop-color:#BDBDBD"/>
	</linearGradient>
	<path id="XMLID_50_" fill="url(#XMLID_4_)" d="M274.743,211.93v-74.296h-34.352v74.296h-92.271v30.357h17.968
		c0.758,0.805,4.16,4.391,7.883,7.873c4.226,3.954,2.318,5.045,10.224,10.77s12.814,4.771,17.313,8.316
		c4.499,3.544,5.589,7.224,13.224,10.225c7.634,2.998,11.451,1.497,12.405,5.86c0.954,4.363,2.726,11.179,2.59,17.994
		c-0.136,6.816,3.955,19.358,3.955,27.946s-3,14.313-3.409,18.539c-0.41,4.227,2.045,5.862-0.955,9.135
		c-3,3.271,1.773,5.997,1.501,11.041c-0.274,5.043,2.18,19.767,3.815,25.766c1.637,5.996-0.409,8.179-0.817,13.359
		c-0.409,5.18-1.091,9.27,0.273,15.676c1.093,5.139,4.552,15.008,6.302,21.036v23.347h34.352V365.877
		c0.307-3.15,3.859-3.722,2.424-8.159c-1.233-3.812-1.637-6.703-2.424-10.792v-38.522c0.505-2.161,0.794-4.005,0.925-7.668
		c0.271-7.635,1.088-4.499,1.838-10.77c0.752-6.271,1.297-10.769,4.295-11.451c3-0.682,9.816,0.956,14.86-4.226
		c5.044-5.18,7.089-7.906,13.359-8.86c6.271-0.955,12.814-8.179,16.358-13.358c3.154-4.612,9.868-8.896,11.308-9.783h29.326V211.93
		H274.743z M240.392,248.174c-0.056,0.026-0.111,0.049-0.168,0.078c-6.117,3.082-5.998,7.77-6.542,9.814
		c-0.546,2.045,1.089,4.499,0,6.681c-1.092,2.181-0.819,6.406-1.364,5.726c-0.545-0.682-3.682-3.135-8.044-2.591
		c-4.362,0.546-6.134-2.045-10.497-3.953c-4.362-1.908-6.406-0.953-13.359-6.271c-6.435-4.921-19.165-14.038-21.027-15.371h61.001
		V248.174z M257.567,153.017c-2.27,0-4.109-1.84-4.109-4.11c0-2.27,1.84-4.11,4.109-4.11c2.271,0,4.11,1.84,4.11,4.11
		C261.678,151.176,259.838,153.017,257.567,153.017z M309.611,251.796c-6.407,5.727-8.588,5.862-12.95,7.908
		c-4.362,2.044-5.453,4.634-13.223,5.725c-3.868,0.543-6.453,0.309-8.695,0.577v-23.719h49.373
		C322.456,243.099,315.245,246.762,309.611,251.796z"/>
	<g id="XMLID_49_">
		<path id="XMLID_59_" fill="#FFFFFF" d="M235.249,400.514c-0.11,2.915-1.153,5.057-1.432,8.598
			c-0.239,3.025-0.568,5.684-0.531,8.645c0.034-2.585,0.319-4.987,0.531-7.682C234.126,406.155,235.369,403.949,235.249,400.514z"/>
		<path id="XMLID_60_" fill="#FFFFFF" d="M230.814,370.077c-0.018,0.373-0.02,0.799-0.01,1.266c0.003-0.135,0.007-0.27,0.015-0.393
			C230.833,370.65,230.831,370.36,230.814,370.077z"/>
		<path id="XMLID_61_" fill="#FFFFFF" d="M230.803,356.04c-0.092,0.891-0.477,1.805-1.485,2.905
			c-0.875,0.954-1.086,1.863-0.956,2.798c0.095-0.604,0.383-1.211,0.956-1.836C230.691,358.411,230.917,357.256,230.803,356.04z"/>
		<path id="XMLID_62_" fill="#FFFFFF" d="M283.438,266.392c7.77-1.091,8.86-3.681,13.223-5.727c4.362-2.044,6.543-2.181,12.95-7.905
			c5.634-5.034,12.845-8.697,14.505-9.508h-1.879c-2.939,1.562-8.252,4.637-12.626,8.544c-6.407,5.727-8.588,5.862-12.95,7.908
			c-4.362,2.044-5.453,4.634-13.223,5.725c-3.868,0.543-6.453,0.309-8.695,0.577v0.962
			C276.985,266.701,279.57,266.935,283.438,266.392z"/>
		<rect id="XMLID_63_" x="240.392" y="137.634" fill="#FFFFFF" width="34.352" height="0.963"/>
		<rect id="XMLID_64_" x="274.743" y="211.93" fill="#FFFFFF" width="92.27" height="0.963"/>
		<path id="XMLID_65_" fill="#FFFFFF" d="M240.392,248.174c-0.056,0.026-0.111,0.049-0.168,0.078
			c-6.117,3.082-5.998,7.77-6.542,9.814c-0.126,0.469-0.133,0.96-0.088,1.464c0.019-0.169,0.044-0.337,0.088-0.499
			c0.544-2.045,0.425-6.733,6.542-9.815c0.057-0.028,0.112-0.051,0.168-0.079V248.174z"/>
		<path id="XMLID_66_" fill="#FFFFFF" d="M257.567,153.98c2.271,0,4.11-1.84,4.11-4.11c0-0.164-0.013-0.323-0.03-0.482
			c-0.239,2.042-1.974,3.628-4.08,3.628s-3.84-1.586-4.08-3.628c-0.018,0.159-0.029,0.318-0.029,0.482
			C253.458,152.14,255.298,153.98,257.567,153.98z"/>
		<rect id="XMLID_3_" x="148.121" y="211.93" fill="#FFFFFF" width="92.271" height="0.963"/>
		<path id="XMLID_68_" fill="#FFFFFF" d="M274.743,346.926v0.963c0.787,4.09,1.19,6.981,2.424,10.792
			c0.169,0.521,0.264,0.987,0.308,1.412c0.069-0.659,0-1.426-0.308-2.375C275.934,353.906,275.53,351.015,274.743,346.926z"/>
		<path id="XMLID_2_" fill="#FFFFFF" d="M200.418,258.621c6.953,5.316,8.998,4.362,13.359,6.271
			c4.362,1.909,6.135,4.499,10.497,3.953c4.362-0.546,7.499,1.907,8.044,2.59c0.545,0.682,0.272-3.544,1.364-5.726
			c0.363-0.728,0.42-1.487,0.358-2.251c-0.042,0.436-0.149,0.867-0.358,1.288c-1.092,2.181-0.819,6.406-1.364,5.726
			c-0.545-0.682-3.682-3.135-8.044-2.591c-4.362,0.546-6.134-2.045-10.497-3.953c-4.362-1.908-6.406-0.953-13.359-6.271
			c-5.55-4.244-15.779-11.607-19.683-14.406h-1.345C181.253,244.584,193.983,253.701,200.418,258.621z"/>
		<path id="XMLID_70_" fill="#FFFFFF" d="M230.24,351.321c0.008-0.18,0.015-0.357,0.033-0.547c0.408-4.227,3.409-9.951,3.409-18.54
			c0-0.136-0.011-0.28-0.012-0.419c-0.124,8.283-2.997,13.86-3.396,17.995C230.22,350.354,230.216,350.854,230.24,351.321z"/>
		<path id="XMLID_71_" fill="#FFFFFF" d="M229.73,303.477c0-0.186,0.001-0.371-0.002-0.557c-0.001,0.136,0.002,0.271-0.001,0.405
			C229.727,303.373,229.731,303.429,229.73,303.477z"/>
	</g>
	<g id="XMLID_53_">
		<path id="XMLID_73_" fill="#A09F9F" d="M179.391,240.572c0.384,0.274,1.235,0.884,2.393,1.715h58.608v-1.715H179.391z"/>
		<path id="XMLID_74_" fill="#A09F9F" d="M230.265,349.926c-0.17,2.01,0.298,3.433,0.49,4.732
			C231.032,353.195,230.425,351.844,230.265,349.926z"/>
		<path id="XMLID_75_" fill="#A09F9F" d="M233.644,258.252c-0.24,1.185,0.177,2.493,0.351,3.804
			C234.216,260.802,233.82,259.495,233.644,258.252z"/>
		<path id="XMLID_76_" fill="#A09F9F" d="M274.743,240.572v1.715h46.114c1.525-0.85,2.705-1.445,3.259-1.715H274.743z"/>
		<path id="XMLID_77_" fill="#A09F9F" d="M257.567,143.08c-2.27,0-4.109,1.84-4.109,4.11c0,0.294,0.032,0.581,0.091,0.858
			c0.395-1.857,2.043-3.252,4.019-3.252c1.976,0,3.624,1.395,4.019,3.252c0.059-0.277,0.092-0.563,0.092-0.858
			C261.678,144.92,259.838,143.08,257.567,143.08z"/>
		<path id="XMLID_78_" fill="#A09F9F" d="M229.727,303.325c-0.132,6.624,3.715,18.644,3.933,27.199
			c0.008-0.323,0.022-0.64,0.022-0.97c0-8.588-4.09-21.129-3.955-27.945c0.136-6.817-1.636-13.632-2.59-17.994
			c-0.954-4.362-4.771-2.862-12.405-5.862c-7.635-2.999-8.725-6.679-13.224-10.225c-4.498-3.543-9.406-2.59-17.313-8.313
			c-7.906-5.727-5.999-6.817-10.224-10.771c-3.723-3.482-7.125-7.068-7.883-7.872h-17.968v1.715h17.968
			c0.758,0.805,4.16,4.391,7.883,7.873c4.226,3.954,2.318,5.045,10.224,10.77s12.814,4.771,17.313,8.316
			c4.499,3.544,5.589,7.224,13.224,10.225c7.634,2.998,11.451,1.497,12.405,5.86C228.091,289.694,229.863,296.51,229.727,303.325z"
			/>
		<path id="XMLID_79_" fill="#A09F9F" d="M274.743,364.161v1.716c0.279-2.88,3.262-3.614,2.676-7.106
			C276.982,360.902,274.971,361.822,274.743,364.161z"/>
		<path id="XMLID_80_" fill="#A09F9F" d="M326.379,250.353c-3.544,5.18-10.088,12.405-16.358,13.359
			c-6.271,0.955-8.315,3.68-13.359,8.86s-11.86,3.546-14.86,4.228c-2.998,0.681-3.543,5.18-4.295,11.451
			c-0.75,6.27-1.566,3.134-1.838,10.769c-0.131,3.663-0.42,5.507-0.925,7.667v1.717c0.505-2.161,0.794-4.005,0.925-7.668
			c0.271-7.635,1.088-4.499,1.838-10.77c0.752-6.271,1.297-10.769,4.295-11.451c3-0.682,9.816,0.956,14.86-4.226
			c5.044-5.18,7.089-7.906,13.359-8.86c6.271-0.955,12.814-8.179,16.358-13.358c3.154-4.612,9.868-8.896,11.308-9.783h29.326v-1.715
			h-29.326C336.247,241.458,329.533,245.742,326.379,250.353z"/>
		<rect id="XMLID_81_" x="240.392" y="467.454" fill="#A09F9F" width="34.352" height="1.716"/>
		<path id="XMLID_82_" fill="#A09F9F" d="M240.392,444.107c-1.75-6.028-5.209-15.896-6.302-21.036
			c-0.536-2.517-0.753-4.675-0.799-6.683c-0.057,2.501,0.108,5.151,0.799,8.398c1.093,5.139,4.552,15.008,6.302,21.036V444.107z"/>
		<path id="XMLID_83_" fill="#A09F9F" d="M235.226,399.165c0.096-1.443-0.024-3.056-0.591-5.13
			c-1.472-5.398-3.606-17.861-3.819-23.978c-0.248,5.106,2.191,19.722,3.819,25.694
			C234.988,397.047,235.162,398.157,235.226,399.165z"/>
		<path id="XMLID_84_" fill="#A09F9F" d="M230.819,368.271c0.18-3.359-1.873-5.69-2.38-7.839c-0.7,2.45,2.056,4.842,2.361,8.49
			C230.802,368.692,230.807,368.472,230.819,368.271z"/>
	</g>
</g>
<g id="XMLID_42_" opacity="0.2">
	
		<line id="XMLID_11_" fill="none" stroke="#FFFFFF" stroke-width="2" stroke-linecap="round" stroke-miterlimit="10" x1="257.567" y1="148.906" x2="309.422" y2="-12.948"/>
	
		<line id="XMLID_30_" fill="none" stroke="#FFFFFF" stroke-width="2" stroke-linecap="round" stroke-miterlimit="10" x1="257.567" y1="148.906" x2="205.713" y2="-12.948"/>
</g>
<g id="XMLID_860_" opacity="0.2">
	<linearGradient id="XMLID_5_" gradientUnits="userSpaceOnUse" x1="422.3887" y1="319.0137" x2="422.3887" y2="79.6493">
		<stop  offset="0" style="stop-color:#FFFFFF"/>
		<stop  offset="0.2296" style="stop-color:#FAFAFA"/>
		<stop  offset="0.4925" style="stop-color:#ECECEC"/>
		<stop  offset="0.7708" style="stop-color:#D6D6D6"/>
		<stop  offset="1" style="stop-color:#BDBDBD"/>
	</linearGradient>
	<path id="XMLID_888_" fill="url(#XMLID_5_)" d="M434.306,142.865V91.313h-23.835v51.551h-64.022v21.063h12.467
		c0.526,0.559,2.888,3.046,5.471,5.462c2.933,2.744,1.607,3.5,7.093,7.473c5.487,3.973,8.894,3.311,12.015,5.77
		c3.12,2.459,3.878,5.013,9.174,7.094c5.298,2.081,7.946,1.041,8.607,4.067c0.663,3.027,1.892,7.755,1.797,12.485
		c-0.094,4.729,2.743,13.432,2.743,19.39c0,5.96-2.08,9.932-2.363,12.864c-0.285,2.932,1.419,4.067-0.663,6.338
		c-2.081,2.269,1.23,4.161,1.041,7.66c-0.19,3.5,1.514,13.716,2.649,17.878c1.133,4.161-0.285,5.675-0.568,9.271
		c-0.284,3.593-0.757,6.43,0.188,10.876c0.759,3.565,3.158,10.413,4.372,14.598v16.198h23.835v-71.671
		c0.214-2.186,2.679-2.582,1.684-5.661c-0.856-2.645-1.137-4.651-1.684-7.488v-26.729c0.352-1.5,0.552-2.779,0.643-5.321
		c0.189-5.296,0.754-3.121,1.274-7.472c0.522-4.35,0.9-7.472,2.982-7.945c2.081-0.473,6.81,0.662,10.31-2.933
		c3.499-3.594,4.919-5.486,9.269-6.148c4.353-0.663,8.892-5.675,11.352-9.269c2.189-3.2,6.847-6.172,7.846-6.788h20.349v-21.063
		H434.306z M410.471,168.012c-0.038,0.019-0.076,0.035-0.116,0.054c-4.243,2.139-4.161,5.391-4.54,6.81
		c-0.377,1.419,0.757,3.122,0,4.635c-0.756,1.514-0.567,4.446-0.944,3.973c-0.379-0.473-2.555-2.175-5.581-1.796
		c-3.027,0.378-4.258-1.419-7.284-2.744c-3.026-1.324-4.446-0.662-9.27-4.351c-4.464-3.415-13.298-9.741-14.59-10.666h42.325
		V168.012z M422.389,101.986c-1.574,0-2.852-1.276-2.852-2.851c0-1.576,1.277-2.853,2.852-2.853c1.576,0,2.853,1.277,2.853,2.853
		C425.241,100.71,423.965,101.986,422.389,101.986z M458.5,170.525c-4.445,3.973-5.958,4.068-8.985,5.486s-3.784,3.216-9.176,3.973
		c-2.684,0.377-4.477,0.215-6.033,0.4v-16.457h34.26C467.413,164.491,462.409,167.033,458.5,170.525z"/>
	<g id="XMLID_874_">
		<path id="XMLID_887_" fill="#FFFFFF" d="M406.903,273.715c-0.076,2.022-0.799,3.508-0.993,5.966
			c-0.167,2.099-0.395,3.942-0.369,5.998c0.023-1.794,0.221-3.461,0.369-5.33C406.125,277.629,406.986,276.1,406.903,273.715z"/>
		<path id="XMLID_886_" fill="#FFFFFF" d="M403.826,252.596c-0.012,0.258-0.014,0.555-0.008,0.879
			c0.004-0.095,0.007-0.188,0.011-0.273C403.84,252.994,403.838,252.793,403.826,252.596z"/>
		<path id="XMLID_885_" fill="#FFFFFF" d="M403.817,242.855c-0.062,0.618-0.329,1.252-1.029,2.017
			c-0.606,0.662-0.754,1.294-0.663,1.942c0.066-0.422,0.267-0.841,0.663-1.273C403.74,244.501,403.897,243.699,403.817,242.855z"/>
		<path id="XMLID_884_" fill="#FFFFFF" d="M440.339,180.653c5.392-0.757,6.148-2.554,9.176-3.973
			c3.027-1.418,4.54-1.513,8.985-5.486c3.909-3.493,8.913-6.035,10.065-6.598h-1.306c-2.039,1.084-5.726,3.217-8.76,5.929
			c-4.445,3.973-5.958,4.068-8.985,5.486s-3.784,3.216-9.176,3.973c-2.684,0.376-4.477,0.215-6.033,0.4v0.668
			C435.862,180.867,437.655,181.029,440.339,180.653z"/>
		<rect id="XMLID_883_" x="410.471" y="91.313" fill="#FFFFFF" width="23.835" height="0.668"/>
		<rect id="XMLID_882_" x="434.306" y="142.865" fill="#FFFFFF" width="64.023" height="0.668"/>
		<path id="XMLID_881_" fill="#FFFFFF" d="M410.471,168.012c-0.038,0.019-0.076,0.035-0.116,0.054
			c-4.243,2.139-4.161,5.391-4.54,6.81c-0.085,0.326-0.092,0.667-0.06,1.016c0.013-0.117,0.029-0.233,0.06-0.347
			c0.379-1.418,0.297-4.671,4.54-6.81c0.04-0.02,0.078-0.036,0.116-0.054V168.012z"/>
		<path id="XMLID_880_" fill="#FFFFFF" d="M422.389,102.655c1.576,0,2.853-1.277,2.853-2.852c0-0.113-0.009-0.224-0.021-0.334
			c-0.167,1.417-1.369,2.518-2.832,2.518c-1.462,0-2.665-1.101-2.831-2.518c-0.012,0.11-0.021,0.221-0.021,0.334
			C419.537,101.378,420.814,102.655,422.389,102.655z"/>
		<rect id="XMLID_879_" x="346.448" y="142.865" fill="#FFFFFF" width="64.022" height="0.668"/>
		<path id="XMLID_878_" fill="#FFFFFF" d="M434.306,236.532v0.668c0.547,2.837,0.827,4.844,1.684,7.488
			c0.116,0.361,0.183,0.684,0.213,0.979c0.048-0.457,0-0.988-0.213-1.646C435.133,241.376,434.853,239.369,434.306,236.532z"/>
		<path id="XMLID_877_" fill="#FFFFFF" d="M382.735,175.262c4.823,3.688,6.243,3.026,9.27,4.351s4.257,3.121,7.284,2.743
			c3.026-0.378,5.202,1.325,5.581,1.797c0.377,0.473,0.188-2.459,0.944-3.972c0.253-0.506,0.293-1.033,0.251-1.562
			c-0.03,0.302-0.104,0.601-0.251,0.893c-0.756,1.514-0.567,4.446-0.944,3.973c-0.379-0.473-2.555-2.175-5.581-1.796
			c-3.027,0.378-4.258-1.419-7.284-2.744c-3.026-1.324-4.446-0.662-9.27-4.351c-3.851-2.945-10.948-8.055-13.656-9.997h-0.934
			C369.438,165.521,378.271,171.847,382.735,175.262z"/>
		<path id="XMLID_876_" fill="#FFFFFF" d="M403.428,239.582c0.006-0.124,0.01-0.248,0.023-0.379
			c0.283-2.934,2.363-6.906,2.363-12.864c0-0.095-0.007-0.196-0.008-0.292c-0.085,5.747-2.079,9.618-2.355,12.487
			C403.414,238.912,403.411,239.258,403.428,239.582z"/>
		<path id="XMLID_875_" fill="#FFFFFF" d="M403.074,206.385c0-0.129,0.002-0.258-0.002-0.386c-0.001,0.094,0.002,0.188-0.001,0.281
			C403.071,206.313,403.074,206.351,403.074,206.385z"/>
	</g>
	<g id="XMLID_861_">
		<path id="XMLID_873_" fill="#A09F9F" d="M368.146,162.737c0.268,0.191,0.856,0.613,1.66,1.19h40.665v-1.19H368.146z"/>
		<path id="XMLID_872_" fill="#A09F9F" d="M403.445,238.614c-0.119,1.395,0.206,2.381,0.34,3.282
			C403.978,240.883,403.557,239.945,403.445,238.614z"/>
		<path id="XMLID_871_" fill="#A09F9F" d="M405.789,175.005c-0.167,0.821,0.124,1.73,0.243,2.64
			C406.188,176.775,405.911,175.868,405.789,175.005z"/>
		<path id="XMLID_870_" fill="#A09F9F" d="M434.306,162.737v1.19h31.997c1.06-0.59,1.878-1.003,2.263-1.19H434.306z"/>
		<path id="XMLID_869_" fill="#A09F9F" d="M422.389,95.092c-1.574,0-2.852,1.277-2.852,2.852c0,0.204,0.022,0.403,0.063,0.595
			c0.273-1.289,1.417-2.256,2.788-2.256s2.516,0.968,2.789,2.256c0.04-0.192,0.063-0.391,0.063-0.595
			C425.241,96.369,423.965,95.092,422.389,95.092z"/>
		<path id="XMLID_868_" fill="#A09F9F" d="M403.071,206.28c-0.092,4.596,2.578,12.936,2.729,18.871
			c0.006-0.222,0.014-0.443,0.014-0.671c0-5.959-2.837-14.661-2.743-19.39c0.095-4.73-1.134-9.459-1.797-12.486
			c-0.661-3.026-3.31-1.986-8.607-4.067c-5.296-2.081-6.054-4.635-9.174-7.094c-3.121-2.459-6.527-1.797-12.014-5.77
			s-4.161-4.729-7.094-7.473c-2.583-2.417-4.944-4.904-5.471-5.462h-12.467v1.19h12.467c0.526,0.559,2.888,3.046,5.471,5.462
			c2.933,2.744,1.607,3.5,7.094,7.473s8.893,3.311,12.014,5.77c3.12,2.459,3.878,5.013,9.174,7.094
			c5.298,2.081,7.946,1.041,8.607,4.067C401.938,196.821,403.166,201.55,403.071,206.28z"/>
		<path id="XMLID_867_" fill="#A09F9F" d="M434.306,248.49v1.191c0.195-1.998,2.265-2.508,1.858-4.931
			C435.86,246.229,434.465,246.868,434.306,248.49z"/>
		<path id="XMLID_866_" fill="#A09F9F" d="M470.135,169.524c-2.46,3.595-6.999,8.608-11.352,9.27
			c-4.35,0.662-5.77,2.554-9.269,6.148c-3.5,3.594-8.229,2.459-10.31,2.932c-2.082,0.473-2.46,3.595-2.982,7.946
			c-0.521,4.352-1.085,2.176-1.274,7.473c-0.091,2.542-0.291,3.821-0.643,5.32v1.191c0.352-1.5,0.552-2.779,0.643-5.321
			c0.189-5.296,0.754-3.121,1.274-7.472c0.522-4.351,0.9-7.472,2.982-7.945c2.081-0.473,6.81,0.662,10.31-2.933
			c3.499-3.594,4.919-5.486,9.269-6.148c4.353-0.663,8.892-5.675,11.352-9.269c2.189-3.2,6.847-6.172,7.846-6.788h20.349v-1.19
			H477.98C476.981,163.353,472.324,166.325,470.135,169.524z"/>
		<rect id="XMLID_865_" x="410.471" y="320.161" fill="#A09F9F" width="23.835" height="1.191"/>
		<path id="XMLID_864_" fill="#A09F9F" d="M410.471,303.964c-1.214-4.185-3.613-11.032-4.372-14.598
			c-0.371-1.747-0.521-3.243-0.554-4.638c-0.04,1.736,0.074,3.575,0.554,5.828c0.759,3.565,3.158,10.413,4.372,14.598V303.964z"/>
		<path id="XMLID_863_" fill="#A09F9F" d="M406.887,272.78c0.065-1.002-0.017-2.122-0.408-3.562
			c-1.022-3.746-2.504-12.394-2.652-16.637c-0.171,3.544,1.521,13.686,2.652,17.828C406.723,271.31,406.844,272.08,406.887,272.78z"
			/>
		<path id="XMLID_862_" fill="#A09F9F" d="M403.829,251.342c0.125-2.33-1.299-3.947-1.651-5.438c-0.484,1.7,1.427,3.359,1.638,5.892
			C403.817,251.635,403.822,251.481,403.829,251.342z"/>
	</g>
</g>
<g id="XMLID_856_" opacity="0.2">
	
		<line id="XMLID_859_" fill="none" stroke="#FFFFFF" stroke-width="2" stroke-linecap="round" stroke-miterlimit="10" x1="422.389" y1="99.135" x2="458.368" y2="-13.17"/>
	
		<line id="XMLID_857_" fill="none" stroke="#FFFFFF" stroke-width="2" stroke-linecap="round" stroke-miterlimit="10" x1="422.389" y1="99.135" x2="386.41" y2="-13.17"/>
</g>
<g id="XMLID_1309_" opacity="0.2">
	<linearGradient id="XMLID_7_" gradientUnits="userSpaceOnUse" x1="89.6118" y1="319.0137" x2="89.6118" y2="79.6493">
		<stop  offset="0" style="stop-color:#FFFFFF"/>
		<stop  offset="0.2296" style="stop-color:#FAFAFA"/>
		<stop  offset="0.4925" style="stop-color:#ECECEC"/>
		<stop  offset="0.7708" style="stop-color:#D6D6D6"/>
		<stop  offset="1" style="stop-color:#BDBDBD"/>
	</linearGradient>
	<path id="XMLID_1337_" fill="url(#XMLID_7_)" d="M101.529,142.865V91.313H77.694v51.551H13.671v21.063h12.467
		c0.525,0.559,2.887,3.046,5.47,5.462c2.932,2.744,1.608,3.5,7.094,7.473c5.486,3.973,8.891,3.311,12.012,5.77
		c3.122,2.459,3.878,5.013,9.175,7.094c5.297,2.081,7.946,1.041,8.607,4.067c0.662,3.027,1.892,7.755,1.798,12.485
		c-0.095,4.729,2.743,13.432,2.743,19.39c0,5.96-2.081,9.932-2.365,12.864c-0.284,2.932,1.419,4.067-0.662,6.338
		c-2.081,2.269,1.229,4.161,1.04,7.66c-0.188,3.5,1.514,13.716,2.649,17.878c1.135,4.161-0.284,5.675-0.568,9.271
		c-0.284,3.593-0.756,6.43,0.189,10.876c0.758,3.565,3.159,10.413,4.373,14.598v16.198h23.835v-71.671
		c0.212-2.186,2.678-2.582,1.682-5.661c-0.855-2.645-1.136-4.651-1.682-7.488v-26.729c0.351-1.5,0.552-2.779,0.642-5.321
		c0.189-5.296,0.754-3.121,1.275-7.472c0.522-4.35,0.9-7.472,2.981-7.945c2.081-0.473,6.81,0.662,10.31-2.933
		c3.5-3.594,4.919-5.486,9.27-6.148c4.351-0.663,8.891-5.675,11.35-9.269c2.189-3.2,6.848-6.172,7.846-6.788h20.35v-21.063H101.529z
		 M77.694,168.012c-0.039,0.019-0.077,0.035-0.116,0.054c-4.244,2.139-4.162,5.391-4.54,6.81c-0.378,1.419,0.757,3.122,0,4.635
		c-0.756,1.514-0.567,4.446-0.946,3.973c-0.378-0.473-2.554-2.175-5.581-1.796c-3.026,0.378-4.256-1.419-7.282-2.744
		c-3.027-1.324-4.446-0.662-9.27-4.351c-4.465-3.415-13.298-9.741-14.591-10.666h42.326V168.012z M89.611,101.986
		c-1.575,0-2.851-1.276-2.851-2.851c0-1.576,1.276-2.853,2.851-2.853c1.576,0,2.853,1.277,2.853,2.853
		C92.464,100.71,91.187,101.986,89.611,101.986z M125.723,170.525c-4.445,3.973-5.958,4.068-8.986,5.486
		c-3.026,1.418-3.783,3.216-9.175,3.973c-2.684,0.377-4.477,0.215-6.033,0.4v-16.457h34.259
		C134.636,164.491,129.632,167.033,125.723,170.525z"/>
	<g id="XMLID_1323_">
		<path id="XMLID_1336_" fill="#FFFFFF" d="M74.126,273.715c-0.076,2.022-0.8,3.508-0.994,5.966
			c-0.166,2.099-0.394,3.942-0.369,5.998c0.024-1.794,0.221-3.461,0.369-5.33C73.347,277.629,74.209,276.1,74.126,273.715z"/>
		<path id="XMLID_1335_" fill="#FFFFFF" d="M71.049,252.596c-0.012,0.258-0.014,0.555-0.007,0.879
			c0.002-0.095,0.005-0.188,0.009-0.273C71.063,252.994,71.061,252.793,71.049,252.596z"/>
		<path id="XMLID_1334_" fill="#FFFFFF" d="M71.041,242.855c-0.063,0.618-0.331,1.252-1.03,2.017
			c-0.608,0.662-0.754,1.294-0.663,1.942c0.066-0.422,0.266-0.841,0.663-1.273C70.963,244.501,71.12,243.699,71.041,242.855z"/>
		<path id="XMLID_1333_" fill="#FFFFFF" d="M107.562,180.653c5.392-0.757,6.148-2.554,9.175-3.973
			c3.027-1.418,4.541-1.513,8.986-5.486c3.909-3.493,8.913-6.035,10.065-6.598h-1.304c-2.041,1.084-5.727,3.217-8.761,5.929
			c-4.445,3.973-5.958,4.068-8.986,5.486c-3.026,1.418-3.783,3.216-9.175,3.973c-2.684,0.376-4.477,0.215-6.033,0.4v0.668
			C103.085,180.867,104.878,181.029,107.562,180.653z"/>
		<rect id="XMLID_1332_" x="77.694" y="91.313" fill="#FFFFFF" width="23.835" height="0.668"/>
		<rect id="XMLID_1331_" x="101.529" y="142.865" fill="#FFFFFF" width="64.023" height="0.668"/>
		<path id="XMLID_1330_" fill="#FFFFFF" d="M77.694,168.012c-0.039,0.019-0.077,0.035-0.116,0.054
			c-4.244,2.139-4.162,5.391-4.54,6.81c-0.087,0.326-0.092,0.667-0.061,1.016c0.013-0.117,0.03-0.233,0.061-0.347
			c0.378-1.418,0.296-4.671,4.54-6.81c0.04-0.02,0.078-0.036,0.116-0.054V168.012z"/>
		<path id="XMLID_1329_" fill="#FFFFFF" d="M89.611,102.655c1.576,0,2.853-1.277,2.853-2.852c0-0.113-0.008-0.224-0.021-0.334
			c-0.166,1.417-1.369,2.518-2.831,2.518c-1.461,0-2.665-1.101-2.831-2.518c-0.013,0.11-0.021,0.221-0.021,0.334
			C86.76,101.378,88.037,102.655,89.611,102.655z"/>
		<rect id="XMLID_1328_" x="13.671" y="142.865" fill="#FFFFFF" width="64.022" height="0.668"/>
		<path id="XMLID_1327_" fill="#FFFFFF" d="M101.529,236.532v0.668c0.546,2.837,0.826,4.844,1.682,7.488
			c0.117,0.361,0.183,0.684,0.214,0.979c0.048-0.457,0-0.988-0.214-1.646C102.355,241.376,102.075,239.369,101.529,236.532z"/>
		<path id="XMLID_1326_" fill="#FFFFFF" d="M49.958,175.262c4.824,3.688,6.243,3.026,9.27,4.351
			c3.026,1.324,4.256,3.121,7.282,2.743c3.027-0.378,5.203,1.325,5.581,1.797c0.378,0.473,0.189-2.459,0.946-3.972
			c0.253-0.506,0.292-1.033,0.25-1.562c-0.029,0.302-0.104,0.601-0.25,0.893c-0.756,1.514-0.567,4.446-0.946,3.973
			c-0.378-0.473-2.554-2.175-5.581-1.796c-3.026,0.378-4.256-1.419-7.282-2.744c-3.027-1.324-4.446-0.662-9.27-4.351
			c-3.851-2.945-10.949-8.055-13.657-9.997h-0.934C36.66,165.521,45.494,171.847,49.958,175.262z"/>
		<path id="XMLID_1325_" fill="#FFFFFF" d="M70.651,239.582c0.005-0.124,0.009-0.248,0.022-0.379
			c0.284-2.934,2.365-6.906,2.365-12.864c0-0.095-0.007-0.196-0.008-0.292c-0.086,5.747-2.079,9.618-2.357,12.487
			C70.636,238.912,70.634,239.258,70.651,239.582z"/>
		<path id="XMLID_1324_" fill="#FFFFFF" d="M70.296,206.385c0-0.129,0.001-0.258,0-0.386c0,0.094,0,0.188,0,0.281
			C70.294,206.313,70.296,206.351,70.296,206.385z"/>
	</g>
	<g id="XMLID_1310_">
		<path id="XMLID_1322_" fill="#A09F9F" d="M35.368,162.737c0.267,0.191,0.857,0.613,1.661,1.19h40.665v-1.19H35.368z"/>
		<path id="XMLID_1321_" fill="#A09F9F" d="M70.668,238.614c-0.119,1.395,0.206,2.381,0.339,3.282
			C71.2,240.883,70.778,239.945,70.668,238.614z"/>
		<path id="XMLID_1320_" fill="#A09F9F" d="M73.012,175.005c-0.167,0.821,0.124,1.73,0.244,2.64
			C73.41,176.775,73.134,175.868,73.012,175.005z"/>
		<path id="XMLID_1319_" fill="#A09F9F" d="M101.529,162.737v1.19h31.996c1.059-0.59,1.878-1.003,2.262-1.19H101.529z"/>
		<path id="XMLID_1318_" fill="#A09F9F" d="M89.611,95.092c-1.575,0-2.851,1.277-2.851,2.852c0,0.204,0.021,0.403,0.063,0.595
			c0.274-1.289,1.418-2.256,2.789-2.256c1.371,0,2.515,0.968,2.789,2.256c0.041-0.192,0.063-0.391,0.063-0.595
			C92.464,96.369,91.187,95.092,89.611,95.092z"/>
		<path id="XMLID_1317_" fill="#A09F9F" d="M70.295,206.28c-0.092,4.596,2.577,12.936,2.729,18.871
			c0.006-0.222,0.014-0.443,0.014-0.671c0-5.959-2.837-14.661-2.743-19.39c0.094-4.73-1.136-9.459-1.798-12.486
			c-0.662-3.026-3.311-1.986-8.607-4.067c-5.296-2.081-6.053-4.635-9.175-7.094c-3.121-2.459-6.526-1.797-12.012-5.77
			c-5.486-3.973-4.162-4.729-7.094-7.473c-2.583-2.417-4.944-4.904-5.47-5.462H13.671v1.19h12.467
			c0.525,0.559,2.887,3.046,5.47,5.462c2.932,2.744,1.608,3.5,7.094,7.473c5.486,3.973,8.891,3.311,12.012,5.77
			c3.122,2.459,3.878,5.013,9.175,7.094c5.297,2.081,7.946,1.041,8.607,4.067C69.159,196.821,70.389,201.55,70.295,206.28z"/>
		<path id="XMLID_1316_" fill="#A09F9F" d="M101.529,248.49v1.191c0.194-1.998,2.263-2.508,1.858-4.931
			C103.083,246.229,101.687,246.868,101.529,248.49z"/>
		<path id="XMLID_1315_" fill="#A09F9F" d="M137.357,169.524c-2.459,3.595-6.999,8.608-11.35,9.27
			c-4.351,0.662-5.771,2.554-9.27,6.148c-3.5,3.594-8.229,2.459-10.31,2.932c-2.081,0.473-2.459,3.595-2.981,7.946
			c-0.521,4.352-1.086,2.176-1.275,7.473c-0.09,2.542-0.292,3.821-0.642,5.32v1.191c0.35-1.5,0.551-2.779,0.642-5.321
			c0.189-5.296,0.754-3.121,1.275-7.472c0.522-4.351,0.9-7.472,2.981-7.945c2.081-0.473,6.81,0.662,10.31-2.933
			c3.5-3.594,4.919-5.486,9.27-6.148c4.351-0.663,8.891-5.675,11.35-9.269c2.189-3.2,6.848-6.172,7.846-6.788h20.35v-1.19h-20.35
			C144.205,163.353,139.546,166.325,137.357,169.524z"/>
		<rect id="XMLID_1314_" x="77.694" y="320.161" fill="#A09F9F" width="23.835" height="1.191"/>
		<path id="XMLID_1313_" fill="#A09F9F" d="M77.694,303.964c-1.214-4.185-3.614-11.032-4.373-14.598
			c-0.372-1.747-0.522-3.243-0.553-4.638c-0.041,1.736,0.074,3.575,0.553,5.828c0.758,3.565,3.159,10.413,4.373,14.598V303.964z"/>
		<path id="XMLID_1312_" fill="#A09F9F" d="M74.11,272.78c0.066-1.002-0.018-2.122-0.41-3.562
			c-1.022-3.746-2.503-12.394-2.651-16.637c-0.171,3.544,1.52,13.686,2.651,17.828C73.945,271.31,74.066,272.08,74.11,272.78z"/>
		<path id="XMLID_1311_" fill="#A09F9F" d="M71.051,251.342c0.126-2.33-1.297-3.947-1.65-5.438c-0.485,1.7,1.427,3.359,1.638,5.892
			C71.041,251.635,71.044,251.481,71.051,251.342z"/>
	</g>
</g>
<g id="XMLID_1306_" opacity="0.2">
	
		<line id="XMLID_1308_" fill="none" stroke="#FFFFFF" stroke-width="2" stroke-linecap="round" stroke-miterlimit="10" x1="89.611" y1="99.135" x2="125.591" y2="-13.17"/>
	
		<line id="XMLID_1307_" fill="none" stroke="#FFFFFF" stroke-width="2" stroke-linecap="round" stroke-miterlimit="10" x1="89.611" y1="99.135" x2="53.631" y2="-13.17"/>
</g>
</svg>
