<?xml version="1.0" encoding="utf-8"?>
<!-- Generator: Adobe Illustrator 16.0.0, SVG Export Plug-In . SVG Version: 6.00 Build 0)  -->
<!DOCTYPE svg PUBLIC "-//W3C//DTD SVG 1.1//EN" "http://www.w3.org/Graphics/SVG/1.1/DTD/svg11.dtd">
<svg version="1.1" id="Capa_1" xmlns="http://www.w3.org/2000/svg" xmlns:xlink="http://www.w3.org/1999/xlink" x="0px" y="0px"
	 width="97.713px" height="97.713px" viewBox="0 0 97.713 97.713" enable-background="new 0 0 97.713 97.713" xml:space="preserve">
<g>
	<path fill="#C4161C" d="M48.855,0C29.021,0,12.883,16.138,12.883,35.974c0,5.174,1.059,10.114,3.146,14.684
		c8.994,19.681,26.238,40.46,31.31,46.358c0.38,0.438,0.934,0.69,1.517,0.69c0.583,0,1.137-0.254,1.517-0.69
		c5.069-5.897,22.313-26.681,31.312-46.358c2.088-4.57,3.146-9.51,3.146-14.684C84.828,16.138,68.69,0,48.855,0z M48.855,54.659
		c-10.303,0-18.686-8.383-18.686-18.686c0-10.304,8.383-18.687,18.686-18.687s18.686,8.383,18.686,18.687
		C67.542,46.276,59.159,54.659,48.855,54.659z"/>
</g>
</svg>
